  0
SECTION
  2
BLOCKS
  0
ENDSEC
  0
SECTION
  2
ENTITIES
  0
LINE
  8
0
 10
96.7803
 20
0.0768585
 11
97.5307
 21
0.304474
  0
LINE
  8
0
 10
97.5307
 20
0.304474
 11
98.2223
 21
0.674118
  0
LINE
  8
0
 10
98.2223
 20
0.674118
 11
98.8284
 21
1.17157
  0
LINE
  8
0
 10
98.8284
 20
1.17157
 11
99.3259
 21
1.77771
  0
LINE
  8
0
 10
99.3259
 20
1.77771
 11
99.6955
 21
2.46925
  0
LINE
  8
0
 10
99.6955
 20
2.46925
 11
99.9231
 21
3.21964
  0
LINE
  8
0
 10
99.9231
 20
3.21964
 11
100
 21
4
  0
LINE
  8
0
 10
100
 20
4
 11
100
 21
76
  0
LINE
  8
0
 10
100
 20
76
 11
99.9231
 21
76.7803
  0
LINE
  8
0
 10
99.9231
 20
76.7803
 11
99.6955
 21
77.5307
  0
LINE
  8
0
 10
99.6955
 20
77.5307
 11
99.3259
 21
78.2223
  0
LINE
  8
0
 10
99.3259
 20
78.2223
 11
98.8284
 21
78.8284
  0
LINE
  8
0
 10
98.8284
 20
78.8284
 11
98.2223
 21
79.3259
  0
LINE
  8
0
 10
98.2223
 20
79.3259
 11
97.5307
 21
79.6955
  0
LINE
  8
0
 10
97.5307
 20
79.6955
 11
96.7803
 21
79.9231
  0
LINE
  8
0
 10
96.7803
 20
79.9231
 11
96
 21
80
  0
LINE
  8
0
 10
96
 20
80
 11
4
 21
80
  0
LINE
  8
0
 10
4
 20
80
 11
3.21964
 21
79.9231
  0
LINE
  8
0
 10
3.21964
 20
79.9231
 11
2.46925
 21
79.6955
  0
LINE
  8
0
 10
2.46925
 20
79.6955
 11
1.77771
 21
79.3259
  0
LINE
  8
0
 10
1.77771
 20
79.3259
 11
1.17157
 21
78.8284
  0
LINE
  8
0
 10
1.17157
 20
78.8284
 11
0.674118
 21
78.2223
  0
LINE
  8
0
 10
0.674118
 20
78.2223
 11
0.304474
 21
77.5307
  0
LINE
  8
0
 10
0.304474
 20
77.5307
 11
0.0768585
 21
76.7803
  0
LINE
  8
0
 10
0.0768585
 20
76.7803
 11
0
 21
76
  0
LINE
  8
0
 10
0
 20
76
 11
0
 21
4
  0
LINE
  8
0
 10
0
 20
4
 11
0.0768585
 21
3.21964
  0
LINE
  8
0
 10
0.0768585
 20
3.21964
 11
0.304474
 21
2.46925
  0
LINE
  8
0
 10
0.304474
 20
2.46925
 11
0.674118
 21
1.77771
  0
LINE
  8
0
 10
0.674118
 20
1.77771
 11
1.17157
 21
1.17157
  0
LINE
  8
0
 10
1.17157
 20
1.17157
 11
1.77771
 21
0.674118
  0
LINE
  8
0
 10
1.77771
 20
0.674118
 11
2.46925
 21
0.304474
  0
LINE
  8
0
 10
2.46925
 20
0.304474
 11
3.21964
 21
0.0768585
  0
LINE
  8
0
 10
3.21964
 20
0.0768585
 11
3.99998
 21
0
  0
LINE
  8
0
 10
3.99998
 20
0
 11
96
 21
0
  0
LINE
  8
0
 10
96
 20
0
 11
96.7803
 21
0.0768585
  0
LINE
  8
0
 10
3.68785
 20
74.4307
 11
3.3877
 21
74.5218
  0
LINE
  8
0
 10
3.3877
 20
74.5218
 11
3.11108
 21
74.6696
  0
LINE
  8
0
 10
3.11108
 20
74.6696
 11
2.86862
 21
74.8686
  0
LINE
  8
0
 10
2.86862
 20
74.8686
 11
2.66965
 21
75.1111
  0
LINE
  8
0
 10
2.66965
 20
75.1111
 11
2.52179
 21
75.3877
  0
LINE
  8
0
 10
2.52179
 20
75.3877
 11
2.43074
 21
75.6879
  0
LINE
  8
0
 10
2.43074
 20
75.6879
 11
2.39999
 21
76
  0
LINE
  8
0
 10
2.39999
 20
76
 11
2.43074
 21
76.3121
  0
LINE
  8
0
 10
2.43074
 20
76.3121
 11
2.52179
 21
76.6123
  0
LINE
  8
0
 10
2.52179
 20
76.6123
 11
2.66965
 21
76.8889
  0
LINE
  8
0
 10
2.66965
 20
76.8889
 11
2.86862
 21
77.1314
  0
LINE
  8
0
 10
2.86862
 20
77.1314
 11
3.11108
 21
77.3303
  0
LINE
  8
0
 10
3.11108
 20
77.3303
 11
3.3877
 21
77.4782
  0
LINE
  8
0
 10
3.3877
 20
77.4782
 11
3.68785
 21
77.5692
  0
LINE
  8
0
 10
3.68785
 20
77.5692
 11
4
 21
77.6
  0
LINE
  8
0
 10
4
 20
77.6
 11
4.31213
 21
77.5692
  0
LINE
  8
0
 10
4.31213
 20
77.5692
 11
4.61229
 21
77.4782
  0
LINE
  8
0
 10
4.61229
 20
77.4782
 11
4.8889
 21
77.3303
  0
LINE
  8
0
 10
4.8889
 20
77.3303
 11
5.13136
 21
77.1314
  0
LINE
  8
0
 10
5.13136
 20
77.1314
 11
5.33034
 21
76.8889
  0
LINE
  8
0
 10
5.33034
 20
76.8889
 11
5.4782
 21
76.6123
  0
LINE
  8
0
 10
5.4782
 20
76.6123
 11
5.56924
 21
76.3121
  0
LINE
  8
0
 10
5.56924
 20
76.3121
 11
5.59999
 21
76
  0
LINE
  8
0
 10
5.59999
 20
76
 11
5.56924
 21
75.6879
  0
LINE
  8
0
 10
5.56924
 20
75.6879
 11
5.4782
 21
75.3877
  0
LINE
  8
0
 10
5.4782
 20
75.3877
 11
5.33034
 21
75.1111
  0
LINE
  8
0
 10
5.33034
 20
75.1111
 11
5.13136
 21
74.8686
  0
LINE
  8
0
 10
5.13136
 20
74.8686
 11
4.8889
 21
74.6696
  0
LINE
  8
0
 10
4.8889
 20
74.6696
 11
4.61229
 21
74.5218
  0
LINE
  8
0
 10
4.61229
 20
74.5218
 11
4.31213
 21
74.4307
  0
LINE
  8
0
 10
4.31213
 20
74.4307
 11
3.99998
 21
74.4
  0
LINE
  8
0
 10
3.99998
 20
74.4
 11
3.68785
 21
74.4307
  0
LINE
  8
0
 10
95.6879
 20
74.4307
 11
95.3877
 21
74.5218
  0
LINE
  8
0
 10
95.3877
 20
74.5218
 11
95.1111
 21
74.6696
  0
LINE
  8
0
 10
95.1111
 20
74.6696
 11
94.8686
 21
74.8686
  0
LINE
  8
0
 10
94.8686
 20
74.8686
 11
94.6696
 21
75.1111
  0
LINE
  8
0
 10
94.6696
 20
75.1111
 11
94.5218
 21
75.3877
  0
LINE
  8
0
 10
94.5218
 20
75.3877
 11
94.4307
 21
75.6879
  0
LINE
  8
0
 10
94.4307
 20
75.6879
 11
94.4
 21
76
  0
LINE
  8
0
 10
94.4
 20
76
 11
94.4307
 21
76.3121
  0
LINE
  8
0
 10
94.4307
 20
76.3121
 11
94.5218
 21
76.6123
  0
LINE
  8
0
 10
94.5218
 20
76.6123
 11
94.6696
 21
76.8889
  0
LINE
  8
0
 10
94.6696
 20
76.8889
 11
94.8686
 21
77.1314
  0
LINE
  8
0
 10
94.8686
 20
77.1314
 11
95.1111
 21
77.3303
  0
LINE
  8
0
 10
95.1111
 20
77.3303
 11
95.3877
 21
77.4782
  0
LINE
  8
0
 10
95.3877
 20
77.4782
 11
95.6879
 21
77.5692
  0
LINE
  8
0
 10
95.6879
 20
77.5692
 11
96
 21
77.6
  0
LINE
  8
0
 10
96
 20
77.6
 11
96.3121
 21
77.5692
  0
LINE
  8
0
 10
96.3121
 20
77.5692
 11
96.6123
 21
77.4782
  0
LINE
  8
0
 10
96.6123
 20
77.4782
 11
96.8889
 21
77.3303
  0
LINE
  8
0
 10
96.8889
 20
77.3303
 11
97.1314
 21
77.1314
  0
LINE
  8
0
 10
97.1314
 20
77.1314
 11
97.3303
 21
76.8889
  0
LINE
  8
0
 10
97.3303
 20
76.8889
 11
97.4782
 21
76.6123
  0
LINE
  8
0
 10
97.4782
 20
76.6123
 11
97.5692
 21
76.3121
  0
LINE
  8
0
 10
97.5692
 20
76.3121
 11
97.6
 21
76
  0
LINE
  8
0
 10
97.6
 20
76
 11
97.5692
 21
75.6879
  0
LINE
  8
0
 10
97.5692
 20
75.6879
 11
97.4782
 21
75.3877
  0
LINE
  8
0
 10
97.4782
 20
75.3877
 11
97.3303
 21
75.1111
  0
LINE
  8
0
 10
97.3303
 20
75.1111
 11
97.1314
 21
74.8686
  0
LINE
  8
0
 10
97.1314
 20
74.8686
 11
96.8889
 21
74.6696
  0
LINE
  8
0
 10
96.8889
 20
74.6696
 11
96.6123
 21
74.5218
  0
LINE
  8
0
 10
96.6123
 20
74.5218
 11
96.3121
 21
74.4307
  0
LINE
  8
0
 10
96.3121
 20
74.4307
 11
96
 21
74.4
  0
LINE
  8
0
 10
96
 20
74.4
 11
95.6879
 21
74.4307
  0
LINE
  8
0
 10
3.68785
 20
2.43074
 11
3.3877
 21
2.52179
  0
LINE
  8
0
 10
3.3877
 20
2.52179
 11
3.11108
 21
2.66965
  0
LINE
  8
0
 10
3.11108
 20
2.66965
 11
2.86862
 21
2.86862
  0
LINE
  8
0
 10
2.86862
 20
2.86862
 11
2.66965
 21
3.11108
  0
LINE
  8
0
 10
2.66965
 20
3.11108
 11
2.52179
 21
3.3877
  0
LINE
  8
0
 10
2.52179
 20
3.3877
 11
2.43074
 21
3.68785
  0
LINE
  8
0
 10
2.43074
 20
3.68785
 11
2.39999
 21
4
  0
LINE
  8
0
 10
2.39999
 20
4
 11
2.43074
 21
4.31213
  0
LINE
  8
0
 10
2.43074
 20
4.31213
 11
2.52179
 21
4.61229
  0
LINE
  8
0
 10
2.52179
 20
4.61229
 11
2.66965
 21
4.8889
  0
LINE
  8
0
 10
2.66965
 20
4.8889
 11
2.86862
 21
5.13136
  0
LINE
  8
0
 10
2.86862
 20
5.13136
 11
3.11108
 21
5.33034
  0
LINE
  8
0
 10
3.11108
 20
5.33034
 11
3.3877
 21
5.4782
  0
LINE
  8
0
 10
3.3877
 20
5.4782
 11
3.68785
 21
5.56924
  0
LINE
  8
0
 10
3.68785
 20
5.56924
 11
4
 21
5.59999
  0
LINE
  8
0
 10
4
 20
5.59999
 11
4.31213
 21
5.56924
  0
LINE
  8
0
 10
4.31213
 20
5.56924
 11
4.61229
 21
5.4782
  0
LINE
  8
0
 10
4.61229
 20
5.4782
 11
4.8889
 21
5.33034
  0
LINE
  8
0
 10
4.8889
 20
5.33034
 11
5.13136
 21
5.13136
  0
LINE
  8
0
 10
5.13136
 20
5.13136
 11
5.33034
 21
4.8889
  0
LINE
  8
0
 10
5.33034
 20
4.8889
 11
5.4782
 21
4.61229
  0
LINE
  8
0
 10
5.4782
 20
4.61229
 11
5.56924
 21
4.31213
  0
LINE
  8
0
 10
5.56924
 20
4.31213
 11
5.59999
 21
4
  0
LINE
  8
0
 10
5.59999
 20
4
 11
5.56924
 21
3.68785
  0
LINE
  8
0
 10
5.56924
 20
3.68785
 11
5.4782
 21
3.3877
  0
LINE
  8
0
 10
5.4782
 20
3.3877
 11
5.33034
 21
3.11108
  0
LINE
  8
0
 10
5.33034
 20
3.11108
 11
5.13136
 21
2.86862
  0
LINE
  8
0
 10
5.13136
 20
2.86862
 11
4.8889
 21
2.66965
  0
LINE
  8
0
 10
4.8889
 20
2.66965
 11
4.61229
 21
2.52179
  0
LINE
  8
0
 10
4.61229
 20
2.52179
 11
4.31213
 21
2.43074
  0
LINE
  8
0
 10
4.31213
 20
2.43074
 11
3.99998
 21
2.39999
  0
LINE
  8
0
 10
3.99998
 20
2.39999
 11
3.68785
 21
2.43074
  0
LINE
  8
0
 10
95.6879
 20
2.43074
 11
95.3877
 21
2.52179
  0
LINE
  8
0
 10
95.3877
 20
2.52179
 11
95.1111
 21
2.66965
  0
LINE
  8
0
 10
95.1111
 20
2.66965
 11
94.8686
 21
2.86862
  0
LINE
  8
0
 10
94.8686
 20
2.86862
 11
94.6696
 21
3.11108
  0
LINE
  8
0
 10
94.6696
 20
3.11108
 11
94.5218
 21
3.3877
  0
LINE
  8
0
 10
94.5218
 20
3.3877
 11
94.4307
 21
3.68785
  0
LINE
  8
0
 10
94.4307
 20
3.68785
 11
94.4
 21
4
  0
LINE
  8
0
 10
94.4
 20
4
 11
94.4307
 21
4.31213
  0
LINE
  8
0
 10
94.4307
 20
4.31213
 11
94.5218
 21
4.61229
  0
LINE
  8
0
 10
94.5218
 20
4.61229
 11
94.6696
 21
4.8889
  0
LINE
  8
0
 10
94.6696
 20
4.8889
 11
94.8686
 21
5.13136
  0
LINE
  8
0
 10
94.8686
 20
5.13136
 11
95.1111
 21
5.33034
  0
LINE
  8
0
 10
95.1111
 20
5.33034
 11
95.3877
 21
5.4782
  0
LINE
  8
0
 10
95.3877
 20
5.4782
 11
95.6879
 21
5.56924
  0
LINE
  8
0
 10
95.6879
 20
5.56924
 11
96
 21
5.59999
  0
LINE
  8
0
 10
96
 20
5.59999
 11
96.3121
 21
5.56924
  0
LINE
  8
0
 10
96.3121
 20
5.56924
 11
96.6123
 21
5.4782
  0
LINE
  8
0
 10
96.6123
 20
5.4782
 11
96.8889
 21
5.33034
  0
LINE
  8
0
 10
96.8889
 20
5.33034
 11
97.1314
 21
5.13136
  0
LINE
  8
0
 10
97.1314
 20
5.13136
 11
97.3303
 21
4.8889
  0
LINE
  8
0
 10
97.3303
 20
4.8889
 11
97.4782
 21
4.61229
  0
LINE
  8
0
 10
97.4782
 20
4.61229
 11
97.5692
 21
4.31213
  0
LINE
  8
0
 10
97.5692
 20
4.31213
 11
97.6
 21
4
  0
LINE
  8
0
 10
97.6
 20
4
 11
97.5692
 21
3.68785
  0
LINE
  8
0
 10
97.5692
 20
3.68785
 11
97.4782
 21
3.3877
  0
LINE
  8
0
 10
97.4782
 20
3.3877
 11
97.3303
 21
3.11108
  0
LINE
  8
0
 10
97.3303
 20
3.11108
 11
97.1314
 21
2.86862
  0
LINE
  8
0
 10
97.1314
 20
2.86862
 11
96.8889
 21
2.66965
  0
LINE
  8
0
 10
96.8889
 20
2.66965
 11
96.6123
 21
2.52179
  0
LINE
  8
0
 10
96.6123
 20
2.52179
 11
96.3121
 21
2.43074
  0
LINE
  8
0
 10
96.3121
 20
2.43074
 11
96
 21
2.39999
  0
LINE
  8
0
 10
96
 20
2.39999
 11
95.6879
 21
2.43074
  0
ENDSEC
  0
SECTION
  2
OBJECTS
  0
DICTIONARY
  0
ENDSEC
  0
EOF
