  0
SECTION
  2
BLOCKS
  0
ENDSEC
  0
SECTION
  2
ENTITIES
  0
LINE
  8
0
 10
26.7803
 20
0.0768585
 11
27.5307
 21
0.304474
  0
LINE
  8
0
 10
27.5307
 20
0.304474
 11
28.2223
 21
0.674118
  0
LINE
  8
0
 10
28.2223
 20
0.674118
 11
28.8284
 21
1.17157
  0
LINE
  8
0
 10
28.8284
 20
1.17157
 11
29.3259
 21
1.77771
  0
LINE
  8
0
 10
29.3259
 20
1.77771
 11
29.6955
 21
2.46925
  0
LINE
  8
0
 10
29.6955
 20
2.46925
 11
29.9231
 21
3.21964
  0
LINE
  8
0
 10
29.9231
 20
3.21964
 11
30
 21
4
  0
LINE
  8
0
 10
30
 20
4
 11
30
 21
26
  0
LINE
  8
0
 10
30
 20
26
 11
29.9231
 21
26.7803
  0
LINE
  8
0
 10
29.9231
 20
26.7803
 11
29.6955
 21
27.5307
  0
LINE
  8
0
 10
29.6955
 20
27.5307
 11
29.3259
 21
28.2223
  0
LINE
  8
0
 10
29.3259
 20
28.2223
 11
28.8284
 21
28.8284
  0
LINE
  8
0
 10
28.8284
 20
28.8284
 11
28.2223
 21
29.3259
  0
LINE
  8
0
 10
28.2223
 20
29.3259
 11
27.5307
 21
29.6955
  0
LINE
  8
0
 10
27.5307
 20
29.6955
 11
26.7803
 21
29.9231
  0
LINE
  8
0
 10
26.7803
 20
29.9231
 11
26
 21
30
  0
LINE
  8
0
 10
26
 20
30
 11
4
 21
30
  0
LINE
  8
0
 10
4
 20
30
 11
3.21964
 21
29.9231
  0
LINE
  8
0
 10
3.21964
 20
29.9231
 11
2.46925
 21
29.6955
  0
LINE
  8
0
 10
2.46925
 20
29.6955
 11
1.77771
 21
29.3259
  0
LINE
  8
0
 10
1.77771
 20
29.3259
 11
1.17157
 21
28.8284
  0
LINE
  8
0
 10
1.17157
 20
28.8284
 11
0.674118
 21
28.2223
  0
LINE
  8
0
 10
0.674118
 20
28.2223
 11
0.304474
 21
27.5307
  0
LINE
  8
0
 10
0.304474
 20
27.5307
 11
0.0768585
 21
26.7803
  0
LINE
  8
0
 10
0.0768585
 20
26.7803
 11
0
 21
26
  0
LINE
  8
0
 10
0
 20
26
 11
0
 21
4
  0
LINE
  8
0
 10
0
 20
4
 11
0.0768585
 21
3.21964
  0
LINE
  8
0
 10
0.0768585
 20
3.21964
 11
0.304474
 21
2.46925
  0
LINE
  8
0
 10
0.304474
 20
2.46925
 11
0.674118
 21
1.77771
  0
LINE
  8
0
 10
0.674118
 20
1.77771
 11
1.17157
 21
1.17157
  0
LINE
  8
0
 10
1.17157
 20
1.17157
 11
1.77771
 21
0.674118
  0
LINE
  8
0
 10
1.77771
 20
0.674118
 11
2.46925
 21
0.304474
  0
LINE
  8
0
 10
2.46925
 20
0.304474
 11
3.21964
 21
0.0768585
  0
LINE
  8
0
 10
3.21964
 20
0.0768585
 11
3.99998
 21
0
  0
LINE
  8
0
 10
3.99998
 20
0
 11
26
 21
0
  0
LINE
  8
0
 10
26
 20
0
 11
26.7803
 21
0.0768585
  0
LINE
  8
0
 10
3.68785
 20
24.4307
 11
3.3877
 21
24.5218
  0
LINE
  8
0
 10
3.3877
 20
24.5218
 11
3.11108
 21
24.6696
  0
LINE
  8
0
 10
3.11108
 20
24.6696
 11
2.86862
 21
24.8686
  0
LINE
  8
0
 10
2.86862
 20
24.8686
 11
2.66965
 21
25.1111
  0
LINE
  8
0
 10
2.66965
 20
25.1111
 11
2.52179
 21
25.3877
  0
LINE
  8
0
 10
2.52179
 20
25.3877
 11
2.43074
 21
25.6879
  0
LINE
  8
0
 10
2.43074
 20
25.6879
 11
2.39999
 21
26
  0
LINE
  8
0
 10
2.39999
 20
26
 11
2.43074
 21
26.3121
  0
LINE
  8
0
 10
2.43074
 20
26.3121
 11
2.52179
 21
26.6123
  0
LINE
  8
0
 10
2.52179
 20
26.6123
 11
2.66965
 21
26.8889
  0
LINE
  8
0
 10
2.66965
 20
26.8889
 11
2.86862
 21
27.1314
  0
LINE
  8
0
 10
2.86862
 20
27.1314
 11
3.11108
 21
27.3303
  0
LINE
  8
0
 10
3.11108
 20
27.3303
 11
3.3877
 21
27.4782
  0
LINE
  8
0
 10
3.3877
 20
27.4782
 11
3.68785
 21
27.5692
  0
LINE
  8
0
 10
3.68785
 20
27.5692
 11
4
 21
27.6
  0
LINE
  8
0
 10
4
 20
27.6
 11
4.31213
 21
27.5692
  0
LINE
  8
0
 10
4.31213
 20
27.5692
 11
4.61229
 21
27.4782
  0
LINE
  8
0
 10
4.61229
 20
27.4782
 11
4.8889
 21
27.3303
  0
LINE
  8
0
 10
4.8889
 20
27.3303
 11
5.13136
 21
27.1314
  0
LINE
  8
0
 10
5.13136
 20
27.1314
 11
5.33034
 21
26.8889
  0
LINE
  8
0
 10
5.33034
 20
26.8889
 11
5.4782
 21
26.6123
  0
LINE
  8
0
 10
5.4782
 20
26.6123
 11
5.56924
 21
26.3121
  0
LINE
  8
0
 10
5.56924
 20
26.3121
 11
5.59999
 21
26
  0
LINE
  8
0
 10
5.59999
 20
26
 11
5.56924
 21
25.6879
  0
LINE
  8
0
 10
5.56924
 20
25.6879
 11
5.4782
 21
25.3877
  0
LINE
  8
0
 10
5.4782
 20
25.3877
 11
5.33034
 21
25.1111
  0
LINE
  8
0
 10
5.33034
 20
25.1111
 11
5.13136
 21
24.8686
  0
LINE
  8
0
 10
5.13136
 20
24.8686
 11
4.8889
 21
24.6696
  0
LINE
  8
0
 10
4.8889
 20
24.6696
 11
4.61229
 21
24.5218
  0
LINE
  8
0
 10
4.61229
 20
24.5218
 11
4.31213
 21
24.4307
  0
LINE
  8
0
 10
4.31213
 20
24.4307
 11
3.99998
 21
24.4
  0
LINE
  8
0
 10
3.99998
 20
24.4
 11
3.68785
 21
24.4307
  0
LINE
  8
0
 10
25.6879
 20
24.4307
 11
25.3877
 21
24.5218
  0
LINE
  8
0
 10
25.3877
 20
24.5218
 11
25.1111
 21
24.6696
  0
LINE
  8
0
 10
25.1111
 20
24.6696
 11
24.8686
 21
24.8686
  0
LINE
  8
0
 10
24.8686
 20
24.8686
 11
24.6696
 21
25.1111
  0
LINE
  8
0
 10
24.6696
 20
25.1111
 11
24.5218
 21
25.3877
  0
LINE
  8
0
 10
24.5218
 20
25.3877
 11
24.4307
 21
25.6879
  0
LINE
  8
0
 10
24.4307
 20
25.6879
 11
24.4
 21
26
  0
LINE
  8
0
 10
24.4
 20
26
 11
24.4307
 21
26.3121
  0
LINE
  8
0
 10
24.4307
 20
26.3121
 11
24.5218
 21
26.6123
  0
LINE
  8
0
 10
24.5218
 20
26.6123
 11
24.6696
 21
26.8889
  0
LINE
  8
0
 10
24.6696
 20
26.8889
 11
24.8686
 21
27.1314
  0
LINE
  8
0
 10
24.8686
 20
27.1314
 11
25.1111
 21
27.3303
  0
LINE
  8
0
 10
25.1111
 20
27.3303
 11
25.3877
 21
27.4782
  0
LINE
  8
0
 10
25.3877
 20
27.4782
 11
25.6879
 21
27.5692
  0
LINE
  8
0
 10
25.6879
 20
27.5692
 11
26
 21
27.6
  0
LINE
  8
0
 10
26
 20
27.6
 11
26.3121
 21
27.5692
  0
LINE
  8
0
 10
26.3121
 20
27.5692
 11
26.6123
 21
27.4782
  0
LINE
  8
0
 10
26.6123
 20
27.4782
 11
26.8889
 21
27.3303
  0
LINE
  8
0
 10
26.8889
 20
27.3303
 11
27.1314
 21
27.1314
  0
LINE
  8
0
 10
27.1314
 20
27.1314
 11
27.3303
 21
26.8889
  0
LINE
  8
0
 10
27.3303
 20
26.8889
 11
27.4782
 21
26.6123
  0
LINE
  8
0
 10
27.4782
 20
26.6123
 11
27.5692
 21
26.3121
  0
LINE
  8
0
 10
27.5692
 20
26.3121
 11
27.6
 21
26
  0
LINE
  8
0
 10
27.6
 20
26
 11
27.5692
 21
25.6879
  0
LINE
  8
0
 10
27.5692
 20
25.6879
 11
27.4782
 21
25.3877
  0
LINE
  8
0
 10
27.4782
 20
25.3877
 11
27.3303
 21
25.1111
  0
LINE
  8
0
 10
27.3303
 20
25.1111
 11
27.1314
 21
24.8686
  0
LINE
  8
0
 10
27.1314
 20
24.8686
 11
26.8889
 21
24.6696
  0
LINE
  8
0
 10
26.8889
 20
24.6696
 11
26.6123
 21
24.5218
  0
LINE
  8
0
 10
26.6123
 20
24.5218
 11
26.3121
 21
24.4307
  0
LINE
  8
0
 10
26.3121
 20
24.4307
 11
26
 21
24.4
  0
LINE
  8
0
 10
26
 20
24.4
 11
25.6879
 21
24.4307
  0
LINE
  8
0
 10
3.68785
 20
2.43074
 11
3.3877
 21
2.52179
  0
LINE
  8
0
 10
3.3877
 20
2.52179
 11
3.11108
 21
2.66965
  0
LINE
  8
0
 10
3.11108
 20
2.66965
 11
2.86862
 21
2.86862
  0
LINE
  8
0
 10
2.86862
 20
2.86862
 11
2.66965
 21
3.11108
  0
LINE
  8
0
 10
2.66965
 20
3.11108
 11
2.52179
 21
3.3877
  0
LINE
  8
0
 10
2.52179
 20
3.3877
 11
2.43074
 21
3.68785
  0
LINE
  8
0
 10
2.43074
 20
3.68785
 11
2.39999
 21
4
  0
LINE
  8
0
 10
2.39999
 20
4
 11
2.43074
 21
4.31213
  0
LINE
  8
0
 10
2.43074
 20
4.31213
 11
2.52179
 21
4.61229
  0
LINE
  8
0
 10
2.52179
 20
4.61229
 11
2.66965
 21
4.8889
  0
LINE
  8
0
 10
2.66965
 20
4.8889
 11
2.86862
 21
5.13136
  0
LINE
  8
0
 10
2.86862
 20
5.13136
 11
3.11108
 21
5.33034
  0
LINE
  8
0
 10
3.11108
 20
5.33034
 11
3.3877
 21
5.4782
  0
LINE
  8
0
 10
3.3877
 20
5.4782
 11
3.68785
 21
5.56924
  0
LINE
  8
0
 10
3.68785
 20
5.56924
 11
4
 21
5.59999
  0
LINE
  8
0
 10
4
 20
5.59999
 11
4.31213
 21
5.56924
  0
LINE
  8
0
 10
4.31213
 20
5.56924
 11
4.61229
 21
5.4782
  0
LINE
  8
0
 10
4.61229
 20
5.4782
 11
4.8889
 21
5.33034
  0
LINE
  8
0
 10
4.8889
 20
5.33034
 11
5.13136
 21
5.13136
  0
LINE
  8
0
 10
5.13136
 20
5.13136
 11
5.33034
 21
4.8889
  0
LINE
  8
0
 10
5.33034
 20
4.8889
 11
5.4782
 21
4.61229
  0
LINE
  8
0
 10
5.4782
 20
4.61229
 11
5.56924
 21
4.31213
  0
LINE
  8
0
 10
5.56924
 20
4.31213
 11
5.59999
 21
4
  0
LINE
  8
0
 10
5.59999
 20
4
 11
5.56924
 21
3.68785
  0
LINE
  8
0
 10
5.56924
 20
3.68785
 11
5.4782
 21
3.3877
  0
LINE
  8
0
 10
5.4782
 20
3.3877
 11
5.33034
 21
3.11108
  0
LINE
  8
0
 10
5.33034
 20
3.11108
 11
5.13136
 21
2.86862
  0
LINE
  8
0
 10
5.13136
 20
2.86862
 11
4.8889
 21
2.66965
  0
LINE
  8
0
 10
4.8889
 20
2.66965
 11
4.61229
 21
2.52179
  0
LINE
  8
0
 10
4.61229
 20
2.52179
 11
4.31213
 21
2.43074
  0
LINE
  8
0
 10
4.31213
 20
2.43074
 11
3.99998
 21
2.39999
  0
LINE
  8
0
 10
3.99998
 20
2.39999
 11
3.68785
 21
2.43074
  0
LINE
  8
0
 10
25.6879
 20
2.43074
 11
25.3877
 21
2.52179
  0
LINE
  8
0
 10
25.3877
 20
2.52179
 11
25.1111
 21
2.66965
  0
LINE
  8
0
 10
25.1111
 20
2.66965
 11
24.8686
 21
2.86862
  0
LINE
  8
0
 10
24.8686
 20
2.86862
 11
24.6696
 21
3.11108
  0
LINE
  8
0
 10
24.6696
 20
3.11108
 11
24.5218
 21
3.3877
  0
LINE
  8
0
 10
24.5218
 20
3.3877
 11
24.4307
 21
3.68785
  0
LINE
  8
0
 10
24.4307
 20
3.68785
 11
24.4
 21
4
  0
LINE
  8
0
 10
24.4
 20
4
 11
24.4307
 21
4.31213
  0
LINE
  8
0
 10
24.4307
 20
4.31213
 11
24.5218
 21
4.61229
  0
LINE
  8
0
 10
24.5218
 20
4.61229
 11
24.6696
 21
4.8889
  0
LINE
  8
0
 10
24.6696
 20
4.8889
 11
24.8686
 21
5.13136
  0
LINE
  8
0
 10
24.8686
 20
5.13136
 11
25.1111
 21
5.33034
  0
LINE
  8
0
 10
25.1111
 20
5.33034
 11
25.3877
 21
5.4782
  0
LINE
  8
0
 10
25.3877
 20
5.4782
 11
25.6879
 21
5.56924
  0
LINE
  8
0
 10
25.6879
 20
5.56924
 11
26
 21
5.59999
  0
LINE
  8
0
 10
26
 20
5.59999
 11
26.3121
 21
5.56924
  0
LINE
  8
0
 10
26.3121
 20
5.56924
 11
26.6123
 21
5.4782
  0
LINE
  8
0
 10
26.6123
 20
5.4782
 11
26.8889
 21
5.33034
  0
LINE
  8
0
 10
26.8889
 20
5.33034
 11
27.1314
 21
5.13136
  0
LINE
  8
0
 10
27.1314
 20
5.13136
 11
27.3303
 21
4.8889
  0
LINE
  8
0
 10
27.3303
 20
4.8889
 11
27.4782
 21
4.61229
  0
LINE
  8
0
 10
27.4782
 20
4.61229
 11
27.5692
 21
4.31213
  0
LINE
  8
0
 10
27.5692
 20
4.31213
 11
27.6
 21
4
  0
LINE
  8
0
 10
27.6
 20
4
 11
27.5692
 21
3.68785
  0
LINE
  8
0
 10
27.5692
 20
3.68785
 11
27.4782
 21
3.3877
  0
LINE
  8
0
 10
27.4782
 20
3.3877
 11
27.3303
 21
3.11108
  0
LINE
  8
0
 10
27.3303
 20
3.11108
 11
27.1314
 21
2.86862
  0
LINE
  8
0
 10
27.1314
 20
2.86862
 11
26.8889
 21
2.66965
  0
LINE
  8
0
 10
26.8889
 20
2.66965
 11
26.6123
 21
2.52179
  0
LINE
  8
0
 10
26.6123
 20
2.52179
 11
26.3121
 21
2.43074
  0
LINE
  8
0
 10
26.3121
 20
2.43074
 11
26
 21
2.39999
  0
LINE
  8
0
 10
26
 20
2.39999
 11
25.6879
 21
2.43074
  0
ENDSEC
  0
SECTION
  2
OBJECTS
  0
DICTIONARY
  0
ENDSEC
  0
EOF
