  0
SECTION
  2
BLOCKS
  0
ENDSEC
  0
SECTION
  2
ENTITIES
  0
LINE
  8
0
 10
36.7803
 20
0.0768585
 11
37.5307
 21
0.304474
  0
LINE
  8
0
 10
37.5307
 20
0.304474
 11
38.2223
 21
0.674118
  0
LINE
  8
0
 10
38.2223
 20
0.674118
 11
38.8284
 21
1.17157
  0
LINE
  8
0
 10
38.8284
 20
1.17157
 11
39.3259
 21
1.77771
  0
LINE
  8
0
 10
39.3259
 20
1.77771
 11
39.6955
 21
2.46925
  0
LINE
  8
0
 10
39.6955
 20
2.46925
 11
39.9231
 21
3.21964
  0
LINE
  8
0
 10
39.9231
 20
3.21964
 11
40
 21
4
  0
LINE
  8
0
 10
40
 20
4
 11
40
 21
36
  0
LINE
  8
0
 10
40
 20
36
 11
39.9231
 21
36.7803
  0
LINE
  8
0
 10
39.9231
 20
36.7803
 11
39.6955
 21
37.5307
  0
LINE
  8
0
 10
39.6955
 20
37.5307
 11
39.3259
 21
38.2223
  0
LINE
  8
0
 10
39.3259
 20
38.2223
 11
38.8284
 21
38.8284
  0
LINE
  8
0
 10
38.8284
 20
38.8284
 11
38.2223
 21
39.3259
  0
LINE
  8
0
 10
38.2223
 20
39.3259
 11
37.5307
 21
39.6955
  0
LINE
  8
0
 10
37.5307
 20
39.6955
 11
36.7803
 21
39.9231
  0
LINE
  8
0
 10
36.7803
 20
39.9231
 11
36
 21
40
  0
LINE
  8
0
 10
36
 20
40
 11
4
 21
40
  0
LINE
  8
0
 10
4
 20
40
 11
3.21964
 21
39.9231
  0
LINE
  8
0
 10
3.21964
 20
39.9231
 11
2.46925
 21
39.6955
  0
LINE
  8
0
 10
2.46925
 20
39.6955
 11
1.77771
 21
39.3259
  0
LINE
  8
0
 10
1.77771
 20
39.3259
 11
1.17157
 21
38.8284
  0
LINE
  8
0
 10
1.17157
 20
38.8284
 11
0.674118
 21
38.2223
  0
LINE
  8
0
 10
0.674118
 20
38.2223
 11
0.304474
 21
37.5307
  0
LINE
  8
0
 10
0.304474
 20
37.5307
 11
0.0768585
 21
36.7803
  0
LINE
  8
0
 10
0.0768585
 20
36.7803
 11
0
 21
36
  0
LINE
  8
0
 10
0
 20
36
 11
0
 21
4
  0
LINE
  8
0
 10
0
 20
4
 11
0.0768585
 21
3.21964
  0
LINE
  8
0
 10
0.0768585
 20
3.21964
 11
0.304474
 21
2.46925
  0
LINE
  8
0
 10
0.304474
 20
2.46925
 11
0.674118
 21
1.77771
  0
LINE
  8
0
 10
0.674118
 20
1.77771
 11
1.17157
 21
1.17157
  0
LINE
  8
0
 10
1.17157
 20
1.17157
 11
1.77771
 21
0.674118
  0
LINE
  8
0
 10
1.77771
 20
0.674118
 11
2.46925
 21
0.304474
  0
LINE
  8
0
 10
2.46925
 20
0.304474
 11
3.21964
 21
0.0768585
  0
LINE
  8
0
 10
3.21964
 20
0.0768585
 11
3.99998
 21
0
  0
LINE
  8
0
 10
3.99998
 20
0
 11
36
 21
0
  0
LINE
  8
0
 10
36
 20
0
 11
36.7803
 21
0.0768585
  0
LINE
  8
0
 10
3.68785
 20
34.4307
 11
3.3877
 21
34.5218
  0
LINE
  8
0
 10
3.3877
 20
34.5218
 11
3.11108
 21
34.6696
  0
LINE
  8
0
 10
3.11108
 20
34.6696
 11
2.86862
 21
34.8686
  0
LINE
  8
0
 10
2.86862
 20
34.8686
 11
2.66965
 21
35.1111
  0
LINE
  8
0
 10
2.66965
 20
35.1111
 11
2.52179
 21
35.3877
  0
LINE
  8
0
 10
2.52179
 20
35.3877
 11
2.43074
 21
35.6879
  0
LINE
  8
0
 10
2.43074
 20
35.6879
 11
2.39999
 21
36
  0
LINE
  8
0
 10
2.39999
 20
36
 11
2.43074
 21
36.3121
  0
LINE
  8
0
 10
2.43074
 20
36.3121
 11
2.52179
 21
36.6123
  0
LINE
  8
0
 10
2.52179
 20
36.6123
 11
2.66965
 21
36.8889
  0
LINE
  8
0
 10
2.66965
 20
36.8889
 11
2.86862
 21
37.1314
  0
LINE
  8
0
 10
2.86862
 20
37.1314
 11
3.11108
 21
37.3303
  0
LINE
  8
0
 10
3.11108
 20
37.3303
 11
3.3877
 21
37.4782
  0
LINE
  8
0
 10
3.3877
 20
37.4782
 11
3.68785
 21
37.5692
  0
LINE
  8
0
 10
3.68785
 20
37.5692
 11
4
 21
37.6
  0
LINE
  8
0
 10
4
 20
37.6
 11
4.31213
 21
37.5692
  0
LINE
  8
0
 10
4.31213
 20
37.5692
 11
4.61229
 21
37.4782
  0
LINE
  8
0
 10
4.61229
 20
37.4782
 11
4.8889
 21
37.3303
  0
LINE
  8
0
 10
4.8889
 20
37.3303
 11
5.13136
 21
37.1314
  0
LINE
  8
0
 10
5.13136
 20
37.1314
 11
5.33034
 21
36.8889
  0
LINE
  8
0
 10
5.33034
 20
36.8889
 11
5.4782
 21
36.6123
  0
LINE
  8
0
 10
5.4782
 20
36.6123
 11
5.56924
 21
36.3121
  0
LINE
  8
0
 10
5.56924
 20
36.3121
 11
5.59999
 21
36
  0
LINE
  8
0
 10
5.59999
 20
36
 11
5.56924
 21
35.6879
  0
LINE
  8
0
 10
5.56924
 20
35.6879
 11
5.4782
 21
35.3877
  0
LINE
  8
0
 10
5.4782
 20
35.3877
 11
5.33034
 21
35.1111
  0
LINE
  8
0
 10
5.33034
 20
35.1111
 11
5.13136
 21
34.8686
  0
LINE
  8
0
 10
5.13136
 20
34.8686
 11
4.8889
 21
34.6696
  0
LINE
  8
0
 10
4.8889
 20
34.6696
 11
4.61229
 21
34.5218
  0
LINE
  8
0
 10
4.61229
 20
34.5218
 11
4.31213
 21
34.4307
  0
LINE
  8
0
 10
4.31213
 20
34.4307
 11
3.99998
 21
34.4
  0
LINE
  8
0
 10
3.99998
 20
34.4
 11
3.68785
 21
34.4307
  0
LINE
  8
0
 10
35.6879
 20
34.4307
 11
35.3877
 21
34.5218
  0
LINE
  8
0
 10
35.3877
 20
34.5218
 11
35.1111
 21
34.6696
  0
LINE
  8
0
 10
35.1111
 20
34.6696
 11
34.8686
 21
34.8686
  0
LINE
  8
0
 10
34.8686
 20
34.8686
 11
34.6696
 21
35.1111
  0
LINE
  8
0
 10
34.6696
 20
35.1111
 11
34.5218
 21
35.3877
  0
LINE
  8
0
 10
34.5218
 20
35.3877
 11
34.4307
 21
35.6879
  0
LINE
  8
0
 10
34.4307
 20
35.6879
 11
34.4
 21
36
  0
LINE
  8
0
 10
34.4
 20
36
 11
34.4307
 21
36.3121
  0
LINE
  8
0
 10
34.4307
 20
36.3121
 11
34.5218
 21
36.6123
  0
LINE
  8
0
 10
34.5218
 20
36.6123
 11
34.6696
 21
36.8889
  0
LINE
  8
0
 10
34.6696
 20
36.8889
 11
34.8686
 21
37.1314
  0
LINE
  8
0
 10
34.8686
 20
37.1314
 11
35.1111
 21
37.3303
  0
LINE
  8
0
 10
35.1111
 20
37.3303
 11
35.3877
 21
37.4782
  0
LINE
  8
0
 10
35.3877
 20
37.4782
 11
35.6879
 21
37.5692
  0
LINE
  8
0
 10
35.6879
 20
37.5692
 11
36
 21
37.6
  0
LINE
  8
0
 10
36
 20
37.6
 11
36.3121
 21
37.5692
  0
LINE
  8
0
 10
36.3121
 20
37.5692
 11
36.6123
 21
37.4782
  0
LINE
  8
0
 10
36.6123
 20
37.4782
 11
36.8889
 21
37.3303
  0
LINE
  8
0
 10
36.8889
 20
37.3303
 11
37.1314
 21
37.1314
  0
LINE
  8
0
 10
37.1314
 20
37.1314
 11
37.3303
 21
36.8889
  0
LINE
  8
0
 10
37.3303
 20
36.8889
 11
37.4782
 21
36.6123
  0
LINE
  8
0
 10
37.4782
 20
36.6123
 11
37.5692
 21
36.3121
  0
LINE
  8
0
 10
37.5692
 20
36.3121
 11
37.6
 21
36
  0
LINE
  8
0
 10
37.6
 20
36
 11
37.5692
 21
35.6879
  0
LINE
  8
0
 10
37.5692
 20
35.6879
 11
37.4782
 21
35.3877
  0
LINE
  8
0
 10
37.4782
 20
35.3877
 11
37.3303
 21
35.1111
  0
LINE
  8
0
 10
37.3303
 20
35.1111
 11
37.1314
 21
34.8686
  0
LINE
  8
0
 10
37.1314
 20
34.8686
 11
36.8889
 21
34.6696
  0
LINE
  8
0
 10
36.8889
 20
34.6696
 11
36.6123
 21
34.5218
  0
LINE
  8
0
 10
36.6123
 20
34.5218
 11
36.3121
 21
34.4307
  0
LINE
  8
0
 10
36.3121
 20
34.4307
 11
36
 21
34.4
  0
LINE
  8
0
 10
36
 20
34.4
 11
35.6879
 21
34.4307
  0
LINE
  8
0
 10
3.68785
 20
2.43074
 11
3.3877
 21
2.52179
  0
LINE
  8
0
 10
3.3877
 20
2.52179
 11
3.11108
 21
2.66965
  0
LINE
  8
0
 10
3.11108
 20
2.66965
 11
2.86862
 21
2.86862
  0
LINE
  8
0
 10
2.86862
 20
2.86862
 11
2.66965
 21
3.11108
  0
LINE
  8
0
 10
2.66965
 20
3.11108
 11
2.52179
 21
3.3877
  0
LINE
  8
0
 10
2.52179
 20
3.3877
 11
2.43074
 21
3.68785
  0
LINE
  8
0
 10
2.43074
 20
3.68785
 11
2.39999
 21
4
  0
LINE
  8
0
 10
2.39999
 20
4
 11
2.43074
 21
4.31213
  0
LINE
  8
0
 10
2.43074
 20
4.31213
 11
2.52179
 21
4.61229
  0
LINE
  8
0
 10
2.52179
 20
4.61229
 11
2.66965
 21
4.8889
  0
LINE
  8
0
 10
2.66965
 20
4.8889
 11
2.86862
 21
5.13136
  0
LINE
  8
0
 10
2.86862
 20
5.13136
 11
3.11108
 21
5.33034
  0
LINE
  8
0
 10
3.11108
 20
5.33034
 11
3.3877
 21
5.4782
  0
LINE
  8
0
 10
3.3877
 20
5.4782
 11
3.68785
 21
5.56924
  0
LINE
  8
0
 10
3.68785
 20
5.56924
 11
4
 21
5.59999
  0
LINE
  8
0
 10
4
 20
5.59999
 11
4.31213
 21
5.56924
  0
LINE
  8
0
 10
4.31213
 20
5.56924
 11
4.61229
 21
5.4782
  0
LINE
  8
0
 10
4.61229
 20
5.4782
 11
4.8889
 21
5.33034
  0
LINE
  8
0
 10
4.8889
 20
5.33034
 11
5.13136
 21
5.13136
  0
LINE
  8
0
 10
5.13136
 20
5.13136
 11
5.33034
 21
4.8889
  0
LINE
  8
0
 10
5.33034
 20
4.8889
 11
5.4782
 21
4.61229
  0
LINE
  8
0
 10
5.4782
 20
4.61229
 11
5.56924
 21
4.31213
  0
LINE
  8
0
 10
5.56924
 20
4.31213
 11
5.59999
 21
4
  0
LINE
  8
0
 10
5.59999
 20
4
 11
5.56924
 21
3.68785
  0
LINE
  8
0
 10
5.56924
 20
3.68785
 11
5.4782
 21
3.3877
  0
LINE
  8
0
 10
5.4782
 20
3.3877
 11
5.33034
 21
3.11108
  0
LINE
  8
0
 10
5.33034
 20
3.11108
 11
5.13136
 21
2.86862
  0
LINE
  8
0
 10
5.13136
 20
2.86862
 11
4.8889
 21
2.66965
  0
LINE
  8
0
 10
4.8889
 20
2.66965
 11
4.61229
 21
2.52179
  0
LINE
  8
0
 10
4.61229
 20
2.52179
 11
4.31213
 21
2.43074
  0
LINE
  8
0
 10
4.31213
 20
2.43074
 11
3.99998
 21
2.39999
  0
LINE
  8
0
 10
3.99998
 20
2.39999
 11
3.68785
 21
2.43074
  0
LINE
  8
0
 10
35.6879
 20
2.43074
 11
35.3877
 21
2.52179
  0
LINE
  8
0
 10
35.3877
 20
2.52179
 11
35.1111
 21
2.66965
  0
LINE
  8
0
 10
35.1111
 20
2.66965
 11
34.8686
 21
2.86862
  0
LINE
  8
0
 10
34.8686
 20
2.86862
 11
34.6696
 21
3.11108
  0
LINE
  8
0
 10
34.6696
 20
3.11108
 11
34.5218
 21
3.3877
  0
LINE
  8
0
 10
34.5218
 20
3.3877
 11
34.4307
 21
3.68785
  0
LINE
  8
0
 10
34.4307
 20
3.68785
 11
34.4
 21
4
  0
LINE
  8
0
 10
34.4
 20
4
 11
34.4307
 21
4.31213
  0
LINE
  8
0
 10
34.4307
 20
4.31213
 11
34.5218
 21
4.61229
  0
LINE
  8
0
 10
34.5218
 20
4.61229
 11
34.6696
 21
4.8889
  0
LINE
  8
0
 10
34.6696
 20
4.8889
 11
34.8686
 21
5.13136
  0
LINE
  8
0
 10
34.8686
 20
5.13136
 11
35.1111
 21
5.33034
  0
LINE
  8
0
 10
35.1111
 20
5.33034
 11
35.3877
 21
5.4782
  0
LINE
  8
0
 10
35.3877
 20
5.4782
 11
35.6879
 21
5.56924
  0
LINE
  8
0
 10
35.6879
 20
5.56924
 11
36
 21
5.59999
  0
LINE
  8
0
 10
36
 20
5.59999
 11
36.3121
 21
5.56924
  0
LINE
  8
0
 10
36.3121
 20
5.56924
 11
36.6123
 21
5.4782
  0
LINE
  8
0
 10
36.6123
 20
5.4782
 11
36.8889
 21
5.33034
  0
LINE
  8
0
 10
36.8889
 20
5.33034
 11
37.1314
 21
5.13136
  0
LINE
  8
0
 10
37.1314
 20
5.13136
 11
37.3303
 21
4.8889
  0
LINE
  8
0
 10
37.3303
 20
4.8889
 11
37.4782
 21
4.61229
  0
LINE
  8
0
 10
37.4782
 20
4.61229
 11
37.5692
 21
4.31213
  0
LINE
  8
0
 10
37.5692
 20
4.31213
 11
37.6
 21
4
  0
LINE
  8
0
 10
37.6
 20
4
 11
37.5692
 21
3.68785
  0
LINE
  8
0
 10
37.5692
 20
3.68785
 11
37.4782
 21
3.3877
  0
LINE
  8
0
 10
37.4782
 20
3.3877
 11
37.3303
 21
3.11108
  0
LINE
  8
0
 10
37.3303
 20
3.11108
 11
37.1314
 21
2.86862
  0
LINE
  8
0
 10
37.1314
 20
2.86862
 11
36.8889
 21
2.66965
  0
LINE
  8
0
 10
36.8889
 20
2.66965
 11
36.6123
 21
2.52179
  0
LINE
  8
0
 10
36.6123
 20
2.52179
 11
36.3121
 21
2.43074
  0
LINE
  8
0
 10
36.3121
 20
2.43074
 11
36
 21
2.39999
  0
LINE
  8
0
 10
36
 20
2.39999
 11
35.6879
 21
2.43074
  0
ENDSEC
  0
SECTION
  2
OBJECTS
  0
DICTIONARY
  0
ENDSEC
  0
EOF
