  0
SECTION
  2
BLOCKS
  0
ENDSEC
  0
SECTION
  2
ENTITIES
  0
LINE
  8
0
 10
46.7803
 20
0.0768585
 11
47.5307
 21
0.304474
  0
LINE
  8
0
 10
47.5307
 20
0.304474
 11
48.2223
 21
0.674118
  0
LINE
  8
0
 10
48.2223
 20
0.674118
 11
48.8284
 21
1.17157
  0
LINE
  8
0
 10
48.8284
 20
1.17157
 11
49.3259
 21
1.77771
  0
LINE
  8
0
 10
49.3259
 20
1.77771
 11
49.6955
 21
2.46925
  0
LINE
  8
0
 10
49.6955
 20
2.46925
 11
49.9231
 21
3.21964
  0
LINE
  8
0
 10
49.9231
 20
3.21964
 11
50
 21
4
  0
LINE
  8
0
 10
50
 20
4
 11
50
 21
46
  0
LINE
  8
0
 10
50
 20
46
 11
49.9231
 21
46.7803
  0
LINE
  8
0
 10
49.9231
 20
46.7803
 11
49.6955
 21
47.5307
  0
LINE
  8
0
 10
49.6955
 20
47.5307
 11
49.3259
 21
48.2223
  0
LINE
  8
0
 10
49.3259
 20
48.2223
 11
48.8284
 21
48.8284
  0
LINE
  8
0
 10
48.8284
 20
48.8284
 11
48.2223
 21
49.3259
  0
LINE
  8
0
 10
48.2223
 20
49.3259
 11
47.5307
 21
49.6955
  0
LINE
  8
0
 10
47.5307
 20
49.6955
 11
46.7803
 21
49.9231
  0
LINE
  8
0
 10
46.7803
 20
49.9231
 11
46
 21
50
  0
LINE
  8
0
 10
46
 20
50
 11
4
 21
50
  0
LINE
  8
0
 10
4
 20
50
 11
3.21964
 21
49.9231
  0
LINE
  8
0
 10
3.21964
 20
49.9231
 11
2.46925
 21
49.6955
  0
LINE
  8
0
 10
2.46925
 20
49.6955
 11
1.77771
 21
49.3259
  0
LINE
  8
0
 10
1.77771
 20
49.3259
 11
1.17157
 21
48.8284
  0
LINE
  8
0
 10
1.17157
 20
48.8284
 11
0.674118
 21
48.2223
  0
LINE
  8
0
 10
0.674118
 20
48.2223
 11
0.304474
 21
47.5307
  0
LINE
  8
0
 10
0.304474
 20
47.5307
 11
0.0768585
 21
46.7803
  0
LINE
  8
0
 10
0.0768585
 20
46.7803
 11
0
 21
46
  0
LINE
  8
0
 10
0
 20
46
 11
0
 21
4
  0
LINE
  8
0
 10
0
 20
4
 11
0.0768585
 21
3.21964
  0
LINE
  8
0
 10
0.0768585
 20
3.21964
 11
0.304474
 21
2.46925
  0
LINE
  8
0
 10
0.304474
 20
2.46925
 11
0.674118
 21
1.77771
  0
LINE
  8
0
 10
0.674118
 20
1.77771
 11
1.17157
 21
1.17157
  0
LINE
  8
0
 10
1.17157
 20
1.17157
 11
1.77771
 21
0.674118
  0
LINE
  8
0
 10
1.77771
 20
0.674118
 11
2.46925
 21
0.304474
  0
LINE
  8
0
 10
2.46925
 20
0.304474
 11
3.21964
 21
0.0768585
  0
LINE
  8
0
 10
3.21964
 20
0.0768585
 11
3.99998
 21
0
  0
LINE
  8
0
 10
3.99998
 20
0
 11
46
 21
0
  0
LINE
  8
0
 10
46
 20
0
 11
46.7803
 21
0.0768585
  0
LINE
  8
0
 10
3.68785
 20
44.4307
 11
3.3877
 21
44.5218
  0
LINE
  8
0
 10
3.3877
 20
44.5218
 11
3.11108
 21
44.6696
  0
LINE
  8
0
 10
3.11108
 20
44.6696
 11
2.86862
 21
44.8686
  0
LINE
  8
0
 10
2.86862
 20
44.8686
 11
2.66965
 21
45.1111
  0
LINE
  8
0
 10
2.66965
 20
45.1111
 11
2.52179
 21
45.3877
  0
LINE
  8
0
 10
2.52179
 20
45.3877
 11
2.43074
 21
45.6879
  0
LINE
  8
0
 10
2.43074
 20
45.6879
 11
2.39999
 21
46
  0
LINE
  8
0
 10
2.39999
 20
46
 11
2.43074
 21
46.3121
  0
LINE
  8
0
 10
2.43074
 20
46.3121
 11
2.52179
 21
46.6123
  0
LINE
  8
0
 10
2.52179
 20
46.6123
 11
2.66965
 21
46.8889
  0
LINE
  8
0
 10
2.66965
 20
46.8889
 11
2.86862
 21
47.1314
  0
LINE
  8
0
 10
2.86862
 20
47.1314
 11
3.11108
 21
47.3303
  0
LINE
  8
0
 10
3.11108
 20
47.3303
 11
3.3877
 21
47.4782
  0
LINE
  8
0
 10
3.3877
 20
47.4782
 11
3.68785
 21
47.5692
  0
LINE
  8
0
 10
3.68785
 20
47.5692
 11
4
 21
47.6
  0
LINE
  8
0
 10
4
 20
47.6
 11
4.31213
 21
47.5692
  0
LINE
  8
0
 10
4.31213
 20
47.5692
 11
4.61229
 21
47.4782
  0
LINE
  8
0
 10
4.61229
 20
47.4782
 11
4.8889
 21
47.3303
  0
LINE
  8
0
 10
4.8889
 20
47.3303
 11
5.13136
 21
47.1314
  0
LINE
  8
0
 10
5.13136
 20
47.1314
 11
5.33034
 21
46.8889
  0
LINE
  8
0
 10
5.33034
 20
46.8889
 11
5.4782
 21
46.6123
  0
LINE
  8
0
 10
5.4782
 20
46.6123
 11
5.56924
 21
46.3121
  0
LINE
  8
0
 10
5.56924
 20
46.3121
 11
5.59999
 21
46
  0
LINE
  8
0
 10
5.59999
 20
46
 11
5.56924
 21
45.6879
  0
LINE
  8
0
 10
5.56924
 20
45.6879
 11
5.4782
 21
45.3877
  0
LINE
  8
0
 10
5.4782
 20
45.3877
 11
5.33034
 21
45.1111
  0
LINE
  8
0
 10
5.33034
 20
45.1111
 11
5.13136
 21
44.8686
  0
LINE
  8
0
 10
5.13136
 20
44.8686
 11
4.8889
 21
44.6696
  0
LINE
  8
0
 10
4.8889
 20
44.6696
 11
4.61229
 21
44.5218
  0
LINE
  8
0
 10
4.61229
 20
44.5218
 11
4.31213
 21
44.4307
  0
LINE
  8
0
 10
4.31213
 20
44.4307
 11
3.99998
 21
44.4
  0
LINE
  8
0
 10
3.99998
 20
44.4
 11
3.68785
 21
44.4307
  0
LINE
  8
0
 10
45.6879
 20
44.4307
 11
45.3877
 21
44.5218
  0
LINE
  8
0
 10
45.3877
 20
44.5218
 11
45.1111
 21
44.6696
  0
LINE
  8
0
 10
45.1111
 20
44.6696
 11
44.8686
 21
44.8686
  0
LINE
  8
0
 10
44.8686
 20
44.8686
 11
44.6696
 21
45.1111
  0
LINE
  8
0
 10
44.6696
 20
45.1111
 11
44.5218
 21
45.3877
  0
LINE
  8
0
 10
44.5218
 20
45.3877
 11
44.4307
 21
45.6879
  0
LINE
  8
0
 10
44.4307
 20
45.6879
 11
44.4
 21
46
  0
LINE
  8
0
 10
44.4
 20
46
 11
44.4307
 21
46.3121
  0
LINE
  8
0
 10
44.4307
 20
46.3121
 11
44.5218
 21
46.6123
  0
LINE
  8
0
 10
44.5218
 20
46.6123
 11
44.6696
 21
46.8889
  0
LINE
  8
0
 10
44.6696
 20
46.8889
 11
44.8686
 21
47.1314
  0
LINE
  8
0
 10
44.8686
 20
47.1314
 11
45.1111
 21
47.3303
  0
LINE
  8
0
 10
45.1111
 20
47.3303
 11
45.3877
 21
47.4782
  0
LINE
  8
0
 10
45.3877
 20
47.4782
 11
45.6879
 21
47.5692
  0
LINE
  8
0
 10
45.6879
 20
47.5692
 11
46
 21
47.6
  0
LINE
  8
0
 10
46
 20
47.6
 11
46.3121
 21
47.5692
  0
LINE
  8
0
 10
46.3121
 20
47.5692
 11
46.6123
 21
47.4782
  0
LINE
  8
0
 10
46.6123
 20
47.4782
 11
46.8889
 21
47.3303
  0
LINE
  8
0
 10
46.8889
 20
47.3303
 11
47.1314
 21
47.1314
  0
LINE
  8
0
 10
47.1314
 20
47.1314
 11
47.3303
 21
46.8889
  0
LINE
  8
0
 10
47.3303
 20
46.8889
 11
47.4782
 21
46.6123
  0
LINE
  8
0
 10
47.4782
 20
46.6123
 11
47.5692
 21
46.3121
  0
LINE
  8
0
 10
47.5692
 20
46.3121
 11
47.6
 21
46
  0
LINE
  8
0
 10
47.6
 20
46
 11
47.5692
 21
45.6879
  0
LINE
  8
0
 10
47.5692
 20
45.6879
 11
47.4782
 21
45.3877
  0
LINE
  8
0
 10
47.4782
 20
45.3877
 11
47.3303
 21
45.1111
  0
LINE
  8
0
 10
47.3303
 20
45.1111
 11
47.1314
 21
44.8686
  0
LINE
  8
0
 10
47.1314
 20
44.8686
 11
46.8889
 21
44.6696
  0
LINE
  8
0
 10
46.8889
 20
44.6696
 11
46.6123
 21
44.5218
  0
LINE
  8
0
 10
46.6123
 20
44.5218
 11
46.3121
 21
44.4307
  0
LINE
  8
0
 10
46.3121
 20
44.4307
 11
46
 21
44.4
  0
LINE
  8
0
 10
46
 20
44.4
 11
45.6879
 21
44.4307
  0
LINE
  8
0
 10
3.68785
 20
2.43074
 11
3.3877
 21
2.52179
  0
LINE
  8
0
 10
3.3877
 20
2.52179
 11
3.11108
 21
2.66965
  0
LINE
  8
0
 10
3.11108
 20
2.66965
 11
2.86862
 21
2.86862
  0
LINE
  8
0
 10
2.86862
 20
2.86862
 11
2.66965
 21
3.11108
  0
LINE
  8
0
 10
2.66965
 20
3.11108
 11
2.52179
 21
3.3877
  0
LINE
  8
0
 10
2.52179
 20
3.3877
 11
2.43074
 21
3.68785
  0
LINE
  8
0
 10
2.43074
 20
3.68785
 11
2.39999
 21
4
  0
LINE
  8
0
 10
2.39999
 20
4
 11
2.43074
 21
4.31213
  0
LINE
  8
0
 10
2.43074
 20
4.31213
 11
2.52179
 21
4.61229
  0
LINE
  8
0
 10
2.52179
 20
4.61229
 11
2.66965
 21
4.8889
  0
LINE
  8
0
 10
2.66965
 20
4.8889
 11
2.86862
 21
5.13136
  0
LINE
  8
0
 10
2.86862
 20
5.13136
 11
3.11108
 21
5.33034
  0
LINE
  8
0
 10
3.11108
 20
5.33034
 11
3.3877
 21
5.4782
  0
LINE
  8
0
 10
3.3877
 20
5.4782
 11
3.68785
 21
5.56924
  0
LINE
  8
0
 10
3.68785
 20
5.56924
 11
4
 21
5.59999
  0
LINE
  8
0
 10
4
 20
5.59999
 11
4.31213
 21
5.56924
  0
LINE
  8
0
 10
4.31213
 20
5.56924
 11
4.61229
 21
5.4782
  0
LINE
  8
0
 10
4.61229
 20
5.4782
 11
4.8889
 21
5.33034
  0
LINE
  8
0
 10
4.8889
 20
5.33034
 11
5.13136
 21
5.13136
  0
LINE
  8
0
 10
5.13136
 20
5.13136
 11
5.33034
 21
4.8889
  0
LINE
  8
0
 10
5.33034
 20
4.8889
 11
5.4782
 21
4.61229
  0
LINE
  8
0
 10
5.4782
 20
4.61229
 11
5.56924
 21
4.31213
  0
LINE
  8
0
 10
5.56924
 20
4.31213
 11
5.59999
 21
4
  0
LINE
  8
0
 10
5.59999
 20
4
 11
5.56924
 21
3.68785
  0
LINE
  8
0
 10
5.56924
 20
3.68785
 11
5.4782
 21
3.3877
  0
LINE
  8
0
 10
5.4782
 20
3.3877
 11
5.33034
 21
3.11108
  0
LINE
  8
0
 10
5.33034
 20
3.11108
 11
5.13136
 21
2.86862
  0
LINE
  8
0
 10
5.13136
 20
2.86862
 11
4.8889
 21
2.66965
  0
LINE
  8
0
 10
4.8889
 20
2.66965
 11
4.61229
 21
2.52179
  0
LINE
  8
0
 10
4.61229
 20
2.52179
 11
4.31213
 21
2.43074
  0
LINE
  8
0
 10
4.31213
 20
2.43074
 11
3.99998
 21
2.39999
  0
LINE
  8
0
 10
3.99998
 20
2.39999
 11
3.68785
 21
2.43074
  0
LINE
  8
0
 10
45.6879
 20
2.43074
 11
45.3877
 21
2.52179
  0
LINE
  8
0
 10
45.3877
 20
2.52179
 11
45.1111
 21
2.66965
  0
LINE
  8
0
 10
45.1111
 20
2.66965
 11
44.8686
 21
2.86862
  0
LINE
  8
0
 10
44.8686
 20
2.86862
 11
44.6696
 21
3.11108
  0
LINE
  8
0
 10
44.6696
 20
3.11108
 11
44.5218
 21
3.3877
  0
LINE
  8
0
 10
44.5218
 20
3.3877
 11
44.4307
 21
3.68785
  0
LINE
  8
0
 10
44.4307
 20
3.68785
 11
44.4
 21
4
  0
LINE
  8
0
 10
44.4
 20
4
 11
44.4307
 21
4.31213
  0
LINE
  8
0
 10
44.4307
 20
4.31213
 11
44.5218
 21
4.61229
  0
LINE
  8
0
 10
44.5218
 20
4.61229
 11
44.6696
 21
4.8889
  0
LINE
  8
0
 10
44.6696
 20
4.8889
 11
44.8686
 21
5.13136
  0
LINE
  8
0
 10
44.8686
 20
5.13136
 11
45.1111
 21
5.33034
  0
LINE
  8
0
 10
45.1111
 20
5.33034
 11
45.3877
 21
5.4782
  0
LINE
  8
0
 10
45.3877
 20
5.4782
 11
45.6879
 21
5.56924
  0
LINE
  8
0
 10
45.6879
 20
5.56924
 11
46
 21
5.59999
  0
LINE
  8
0
 10
46
 20
5.59999
 11
46.3121
 21
5.56924
  0
LINE
  8
0
 10
46.3121
 20
5.56924
 11
46.6123
 21
5.4782
  0
LINE
  8
0
 10
46.6123
 20
5.4782
 11
46.8889
 21
5.33034
  0
LINE
  8
0
 10
46.8889
 20
5.33034
 11
47.1314
 21
5.13136
  0
LINE
  8
0
 10
47.1314
 20
5.13136
 11
47.3303
 21
4.8889
  0
LINE
  8
0
 10
47.3303
 20
4.8889
 11
47.4782
 21
4.61229
  0
LINE
  8
0
 10
47.4782
 20
4.61229
 11
47.5692
 21
4.31213
  0
LINE
  8
0
 10
47.5692
 20
4.31213
 11
47.6
 21
4
  0
LINE
  8
0
 10
47.6
 20
4
 11
47.5692
 21
3.68785
  0
LINE
  8
0
 10
47.5692
 20
3.68785
 11
47.4782
 21
3.3877
  0
LINE
  8
0
 10
47.4782
 20
3.3877
 11
47.3303
 21
3.11108
  0
LINE
  8
0
 10
47.3303
 20
3.11108
 11
47.1314
 21
2.86862
  0
LINE
  8
0
 10
47.1314
 20
2.86862
 11
46.8889
 21
2.66965
  0
LINE
  8
0
 10
46.8889
 20
2.66965
 11
46.6123
 21
2.52179
  0
LINE
  8
0
 10
46.6123
 20
2.52179
 11
46.3121
 21
2.43074
  0
LINE
  8
0
 10
46.3121
 20
2.43074
 11
46
 21
2.39999
  0
LINE
  8
0
 10
46
 20
2.39999
 11
45.6879
 21
2.43074
  0
ENDSEC
  0
SECTION
  2
OBJECTS
  0
DICTIONARY
  0
ENDSEC
  0
EOF
