  0
SECTION
  2
BLOCKS
  0
ENDSEC
  0
SECTION
  2
ENTITIES
  0
LINE
  8
0
 10
56.7803
 20
0.0768585
 11
57.5307
 21
0.304474
  0
LINE
  8
0
 10
57.5307
 20
0.304474
 11
58.2223
 21
0.674118
  0
LINE
  8
0
 10
58.2223
 20
0.674118
 11
58.8284
 21
1.17157
  0
LINE
  8
0
 10
58.8284
 20
1.17157
 11
59.3259
 21
1.77771
  0
LINE
  8
0
 10
59.3259
 20
1.77771
 11
59.6955
 21
2.46925
  0
LINE
  8
0
 10
59.6955
 20
2.46925
 11
59.9231
 21
3.21964
  0
LINE
  8
0
 10
59.9231
 20
3.21964
 11
60
 21
4
  0
LINE
  8
0
 10
60
 20
4
 11
60
 21
33
  0
LINE
  8
0
 10
60
 20
33
 11
59.9231
 21
33.7803
  0
LINE
  8
0
 10
59.9231
 20
33.7803
 11
59.6955
 21
34.5307
  0
LINE
  8
0
 10
59.6955
 20
34.5307
 11
59.3259
 21
35.2223
  0
LINE
  8
0
 10
59.3259
 20
35.2223
 11
58.8284
 21
35.8284
  0
LINE
  8
0
 10
58.8284
 20
35.8284
 11
58.2223
 21
36.3259
  0
LINE
  8
0
 10
58.2223
 20
36.3259
 11
57.5307
 21
36.6955
  0
LINE
  8
0
 10
57.5307
 20
36.6955
 11
56.7803
 21
36.9231
  0
LINE
  8
0
 10
56.7803
 20
36.9231
 11
56
 21
37
  0
LINE
  8
0
 10
56
 20
37
 11
4
 21
37
  0
LINE
  8
0
 10
4
 20
37
 11
3.21964
 21
36.9231
  0
LINE
  8
0
 10
3.21964
 20
36.9231
 11
2.46925
 21
36.6955
  0
LINE
  8
0
 10
2.46925
 20
36.6955
 11
1.77771
 21
36.3259
  0
LINE
  8
0
 10
1.77771
 20
36.3259
 11
1.17157
 21
35.8284
  0
LINE
  8
0
 10
1.17157
 20
35.8284
 11
0.674118
 21
35.2223
  0
LINE
  8
0
 10
0.674118
 20
35.2223
 11
0.304474
 21
34.5307
  0
LINE
  8
0
 10
0.304474
 20
34.5307
 11
0.0768585
 21
33.7803
  0
LINE
  8
0
 10
0.0768585
 20
33.7803
 11
0
 21
33
  0
LINE
  8
0
 10
0
 20
33
 11
0
 21
4
  0
LINE
  8
0
 10
0
 20
4
 11
0.0768585
 21
3.21964
  0
LINE
  8
0
 10
0.0768585
 20
3.21964
 11
0.304474
 21
2.46925
  0
LINE
  8
0
 10
0.304474
 20
2.46925
 11
0.674118
 21
1.77771
  0
LINE
  8
0
 10
0.674118
 20
1.77771
 11
1.17157
 21
1.17157
  0
LINE
  8
0
 10
1.17157
 20
1.17157
 11
1.77771
 21
0.674118
  0
LINE
  8
0
 10
1.77771
 20
0.674118
 11
2.46925
 21
0.304474
  0
LINE
  8
0
 10
2.46925
 20
0.304474
 11
3.21964
 21
0.0768585
  0
LINE
  8
0
 10
3.21964
 20
0.0768585
 11
3.99998
 21
0
  0
LINE
  8
0
 10
3.99998
 20
0
 11
56
 21
0
  0
LINE
  8
0
 10
56
 20
0
 11
56.7803
 21
0.0768585
  0
LINE
  8
0
 10
3.68785
 20
31.4307
 11
3.3877
 21
31.5218
  0
LINE
  8
0
 10
3.3877
 20
31.5218
 11
3.11108
 21
31.6696
  0
LINE
  8
0
 10
3.11108
 20
31.6696
 11
2.86862
 21
31.8686
  0
LINE
  8
0
 10
2.86862
 20
31.8686
 11
2.66965
 21
32.1111
  0
LINE
  8
0
 10
2.66965
 20
32.1111
 11
2.52179
 21
32.3877
  0
LINE
  8
0
 10
2.52179
 20
32.3877
 11
2.43074
 21
32.6879
  0
LINE
  8
0
 10
2.43074
 20
32.6879
 11
2.39999
 21
33
  0
LINE
  8
0
 10
2.39999
 20
33
 11
2.43074
 21
33.3121
  0
LINE
  8
0
 10
2.43074
 20
33.3121
 11
2.52179
 21
33.6123
  0
LINE
  8
0
 10
2.52179
 20
33.6123
 11
2.66965
 21
33.8889
  0
LINE
  8
0
 10
2.66965
 20
33.8889
 11
2.86862
 21
34.1314
  0
LINE
  8
0
 10
2.86862
 20
34.1314
 11
3.11108
 21
34.3303
  0
LINE
  8
0
 10
3.11108
 20
34.3303
 11
3.3877
 21
34.4782
  0
LINE
  8
0
 10
3.3877
 20
34.4782
 11
3.68785
 21
34.5692
  0
LINE
  8
0
 10
3.68785
 20
34.5692
 11
4
 21
34.6
  0
LINE
  8
0
 10
4
 20
34.6
 11
4.31213
 21
34.5692
  0
LINE
  8
0
 10
4.31213
 20
34.5692
 11
4.61229
 21
34.4782
  0
LINE
  8
0
 10
4.61229
 20
34.4782
 11
4.8889
 21
34.3303
  0
LINE
  8
0
 10
4.8889
 20
34.3303
 11
5.13136
 21
34.1314
  0
LINE
  8
0
 10
5.13136
 20
34.1314
 11
5.33034
 21
33.8889
  0
LINE
  8
0
 10
5.33034
 20
33.8889
 11
5.4782
 21
33.6123
  0
LINE
  8
0
 10
5.4782
 20
33.6123
 11
5.56924
 21
33.3121
  0
LINE
  8
0
 10
5.56924
 20
33.3121
 11
5.59999
 21
33
  0
LINE
  8
0
 10
5.59999
 20
33
 11
5.56924
 21
32.6879
  0
LINE
  8
0
 10
5.56924
 20
32.6879
 11
5.4782
 21
32.3877
  0
LINE
  8
0
 10
5.4782
 20
32.3877
 11
5.33034
 21
32.1111
  0
LINE
  8
0
 10
5.33034
 20
32.1111
 11
5.13136
 21
31.8686
  0
LINE
  8
0
 10
5.13136
 20
31.8686
 11
4.8889
 21
31.6696
  0
LINE
  8
0
 10
4.8889
 20
31.6696
 11
4.61229
 21
31.5218
  0
LINE
  8
0
 10
4.61229
 20
31.5218
 11
4.31213
 21
31.4307
  0
LINE
  8
0
 10
4.31213
 20
31.4307
 11
3.99998
 21
31.4
  0
LINE
  8
0
 10
3.99998
 20
31.4
 11
3.68785
 21
31.4307
  0
LINE
  8
0
 10
55.6879
 20
31.4307
 11
55.3877
 21
31.5218
  0
LINE
  8
0
 10
55.3877
 20
31.5218
 11
55.1111
 21
31.6696
  0
LINE
  8
0
 10
55.1111
 20
31.6696
 11
54.8686
 21
31.8686
  0
LINE
  8
0
 10
54.8686
 20
31.8686
 11
54.6696
 21
32.1111
  0
LINE
  8
0
 10
54.6696
 20
32.1111
 11
54.5218
 21
32.3877
  0
LINE
  8
0
 10
54.5218
 20
32.3877
 11
54.4307
 21
32.6879
  0
LINE
  8
0
 10
54.4307
 20
32.6879
 11
54.4
 21
33
  0
LINE
  8
0
 10
54.4
 20
33
 11
54.4307
 21
33.3121
  0
LINE
  8
0
 10
54.4307
 20
33.3121
 11
54.5218
 21
33.6123
  0
LINE
  8
0
 10
54.5218
 20
33.6123
 11
54.6696
 21
33.8889
  0
LINE
  8
0
 10
54.6696
 20
33.8889
 11
54.8686
 21
34.1314
  0
LINE
  8
0
 10
54.8686
 20
34.1314
 11
55.1111
 21
34.3303
  0
LINE
  8
0
 10
55.1111
 20
34.3303
 11
55.3877
 21
34.4782
  0
LINE
  8
0
 10
55.3877
 20
34.4782
 11
55.6879
 21
34.5692
  0
LINE
  8
0
 10
55.6879
 20
34.5692
 11
56
 21
34.6
  0
LINE
  8
0
 10
56
 20
34.6
 11
56.3121
 21
34.5692
  0
LINE
  8
0
 10
56.3121
 20
34.5692
 11
56.6123
 21
34.4782
  0
LINE
  8
0
 10
56.6123
 20
34.4782
 11
56.8889
 21
34.3303
  0
LINE
  8
0
 10
56.8889
 20
34.3303
 11
57.1314
 21
34.1314
  0
LINE
  8
0
 10
57.1314
 20
34.1314
 11
57.3303
 21
33.8889
  0
LINE
  8
0
 10
57.3303
 20
33.8889
 11
57.4782
 21
33.6123
  0
LINE
  8
0
 10
57.4782
 20
33.6123
 11
57.5692
 21
33.3121
  0
LINE
  8
0
 10
57.5692
 20
33.3121
 11
57.6
 21
33
  0
LINE
  8
0
 10
57.6
 20
33
 11
57.5692
 21
32.6879
  0
LINE
  8
0
 10
57.5692
 20
32.6879
 11
57.4782
 21
32.3877
  0
LINE
  8
0
 10
57.4782
 20
32.3877
 11
57.3303
 21
32.1111
  0
LINE
  8
0
 10
57.3303
 20
32.1111
 11
57.1314
 21
31.8686
  0
LINE
  8
0
 10
57.1314
 20
31.8686
 11
56.8889
 21
31.6696
  0
LINE
  8
0
 10
56.8889
 20
31.6696
 11
56.6123
 21
31.5218
  0
LINE
  8
0
 10
56.6123
 20
31.5218
 11
56.3121
 21
31.4307
  0
LINE
  8
0
 10
56.3121
 20
31.4307
 11
56
 21
31.4
  0
LINE
  8
0
 10
56
 20
31.4
 11
55.6879
 21
31.4307
  0
LINE
  8
0
 10
3.68785
 20
2.43074
 11
3.3877
 21
2.52179
  0
LINE
  8
0
 10
3.3877
 20
2.52179
 11
3.11108
 21
2.66965
  0
LINE
  8
0
 10
3.11108
 20
2.66965
 11
2.86862
 21
2.86862
  0
LINE
  8
0
 10
2.86862
 20
2.86862
 11
2.66965
 21
3.11108
  0
LINE
  8
0
 10
2.66965
 20
3.11108
 11
2.52179
 21
3.3877
  0
LINE
  8
0
 10
2.52179
 20
3.3877
 11
2.43074
 21
3.68785
  0
LINE
  8
0
 10
2.43074
 20
3.68785
 11
2.39999
 21
4
  0
LINE
  8
0
 10
2.39999
 20
4
 11
2.43074
 21
4.31213
  0
LINE
  8
0
 10
2.43074
 20
4.31213
 11
2.52179
 21
4.61229
  0
LINE
  8
0
 10
2.52179
 20
4.61229
 11
2.66965
 21
4.8889
  0
LINE
  8
0
 10
2.66965
 20
4.8889
 11
2.86862
 21
5.13136
  0
LINE
  8
0
 10
2.86862
 20
5.13136
 11
3.11108
 21
5.33034
  0
LINE
  8
0
 10
3.11108
 20
5.33034
 11
3.3877
 21
5.4782
  0
LINE
  8
0
 10
3.3877
 20
5.4782
 11
3.68785
 21
5.56924
  0
LINE
  8
0
 10
3.68785
 20
5.56924
 11
4
 21
5.59999
  0
LINE
  8
0
 10
4
 20
5.59999
 11
4.31213
 21
5.56924
  0
LINE
  8
0
 10
4.31213
 20
5.56924
 11
4.61229
 21
5.4782
  0
LINE
  8
0
 10
4.61229
 20
5.4782
 11
4.8889
 21
5.33034
  0
LINE
  8
0
 10
4.8889
 20
5.33034
 11
5.13136
 21
5.13136
  0
LINE
  8
0
 10
5.13136
 20
5.13136
 11
5.33034
 21
4.8889
  0
LINE
  8
0
 10
5.33034
 20
4.8889
 11
5.4782
 21
4.61229
  0
LINE
  8
0
 10
5.4782
 20
4.61229
 11
5.56924
 21
4.31213
  0
LINE
  8
0
 10
5.56924
 20
4.31213
 11
5.59999
 21
4
  0
LINE
  8
0
 10
5.59999
 20
4
 11
5.56924
 21
3.68785
  0
LINE
  8
0
 10
5.56924
 20
3.68785
 11
5.4782
 21
3.3877
  0
LINE
  8
0
 10
5.4782
 20
3.3877
 11
5.33034
 21
3.11108
  0
LINE
  8
0
 10
5.33034
 20
3.11108
 11
5.13136
 21
2.86862
  0
LINE
  8
0
 10
5.13136
 20
2.86862
 11
4.8889
 21
2.66965
  0
LINE
  8
0
 10
4.8889
 20
2.66965
 11
4.61229
 21
2.52179
  0
LINE
  8
0
 10
4.61229
 20
2.52179
 11
4.31213
 21
2.43074
  0
LINE
  8
0
 10
4.31213
 20
2.43074
 11
3.99998
 21
2.39999
  0
LINE
  8
0
 10
3.99998
 20
2.39999
 11
3.68785
 21
2.43074
  0
LINE
  8
0
 10
55.6879
 20
2.43074
 11
55.3877
 21
2.52179
  0
LINE
  8
0
 10
55.3877
 20
2.52179
 11
55.1111
 21
2.66965
  0
LINE
  8
0
 10
55.1111
 20
2.66965
 11
54.8686
 21
2.86862
  0
LINE
  8
0
 10
54.8686
 20
2.86862
 11
54.6696
 21
3.11108
  0
LINE
  8
0
 10
54.6696
 20
3.11108
 11
54.5218
 21
3.3877
  0
LINE
  8
0
 10
54.5218
 20
3.3877
 11
54.4307
 21
3.68785
  0
LINE
  8
0
 10
54.4307
 20
3.68785
 11
54.4
 21
4
  0
LINE
  8
0
 10
54.4
 20
4
 11
54.4307
 21
4.31213
  0
LINE
  8
0
 10
54.4307
 20
4.31213
 11
54.5218
 21
4.61229
  0
LINE
  8
0
 10
54.5218
 20
4.61229
 11
54.6696
 21
4.8889
  0
LINE
  8
0
 10
54.6696
 20
4.8889
 11
54.8686
 21
5.13136
  0
LINE
  8
0
 10
54.8686
 20
5.13136
 11
55.1111
 21
5.33034
  0
LINE
  8
0
 10
55.1111
 20
5.33034
 11
55.3877
 21
5.4782
  0
LINE
  8
0
 10
55.3877
 20
5.4782
 11
55.6879
 21
5.56924
  0
LINE
  8
0
 10
55.6879
 20
5.56924
 11
56
 21
5.59999
  0
LINE
  8
0
 10
56
 20
5.59999
 11
56.3121
 21
5.56924
  0
LINE
  8
0
 10
56.3121
 20
5.56924
 11
56.6123
 21
5.4782
  0
LINE
  8
0
 10
56.6123
 20
5.4782
 11
56.8889
 21
5.33034
  0
LINE
  8
0
 10
56.8889
 20
5.33034
 11
57.1314
 21
5.13136
  0
LINE
  8
0
 10
57.1314
 20
5.13136
 11
57.3303
 21
4.8889
  0
LINE
  8
0
 10
57.3303
 20
4.8889
 11
57.4782
 21
4.61229
  0
LINE
  8
0
 10
57.4782
 20
4.61229
 11
57.5692
 21
4.31213
  0
LINE
  8
0
 10
57.5692
 20
4.31213
 11
57.6
 21
4
  0
LINE
  8
0
 10
57.6
 20
4
 11
57.5692
 21
3.68785
  0
LINE
  8
0
 10
57.5692
 20
3.68785
 11
57.4782
 21
3.3877
  0
LINE
  8
0
 10
57.4782
 20
3.3877
 11
57.3303
 21
3.11108
  0
LINE
  8
0
 10
57.3303
 20
3.11108
 11
57.1314
 21
2.86862
  0
LINE
  8
0
 10
57.1314
 20
2.86862
 11
56.8889
 21
2.66965
  0
LINE
  8
0
 10
56.8889
 20
2.66965
 11
56.6123
 21
2.52179
  0
LINE
  8
0
 10
56.6123
 20
2.52179
 11
56.3121
 21
2.43074
  0
LINE
  8
0
 10
56.3121
 20
2.43074
 11
56
 21
2.39999
  0
LINE
  8
0
 10
56
 20
2.39999
 11
55.6879
 21
2.43074
  0
ENDSEC
  0
SECTION
  2
OBJECTS
  0
DICTIONARY
  0
ENDSEC
  0
EOF
