  0
SECTION
  2
BLOCKS
  0
ENDSEC
  0
SECTION
  2
ENTITIES
  0
LINE
  8
0
 10
66.7803
 20
0.0768585
 11
67.5307
 21
0.304474
  0
LINE
  8
0
 10
67.5307
 20
0.304474
 11
68.2223
 21
0.674118
  0
LINE
  8
0
 10
68.2223
 20
0.674118
 11
68.8284
 21
1.17157
  0
LINE
  8
0
 10
68.8284
 20
1.17157
 11
69.3259
 21
1.77771
  0
LINE
  8
0
 10
69.3259
 20
1.77771
 11
69.6955
 21
2.46925
  0
LINE
  8
0
 10
69.6955
 20
2.46925
 11
69.9231
 21
3.21964
  0
LINE
  8
0
 10
69.9231
 20
3.21964
 11
70
 21
4
  0
LINE
  8
0
 10
70
 20
4
 11
70
 21
39
  0
LINE
  8
0
 10
70
 20
39
 11
69.9231
 21
39.7803
  0
LINE
  8
0
 10
69.9231
 20
39.7803
 11
69.6955
 21
40.5307
  0
LINE
  8
0
 10
69.6955
 20
40.5307
 11
69.3259
 21
41.2223
  0
LINE
  8
0
 10
69.3259
 20
41.2223
 11
68.8284
 21
41.8284
  0
LINE
  8
0
 10
68.8284
 20
41.8284
 11
68.2223
 21
42.3259
  0
LINE
  8
0
 10
68.2223
 20
42.3259
 11
67.5307
 21
42.6955
  0
LINE
  8
0
 10
67.5307
 20
42.6955
 11
66.7803
 21
42.9231
  0
LINE
  8
0
 10
66.7803
 20
42.9231
 11
66
 21
43
  0
LINE
  8
0
 10
66
 20
43
 11
4
 21
43
  0
LINE
  8
0
 10
4
 20
43
 11
3.21964
 21
42.9231
  0
LINE
  8
0
 10
3.21964
 20
42.9231
 11
2.46925
 21
42.6955
  0
LINE
  8
0
 10
2.46925
 20
42.6955
 11
1.77771
 21
42.3259
  0
LINE
  8
0
 10
1.77771
 20
42.3259
 11
1.17157
 21
41.8284
  0
LINE
  8
0
 10
1.17157
 20
41.8284
 11
0.674118
 21
41.2223
  0
LINE
  8
0
 10
0.674118
 20
41.2223
 11
0.304474
 21
40.5307
  0
LINE
  8
0
 10
0.304474
 20
40.5307
 11
0.0768585
 21
39.7803
  0
LINE
  8
0
 10
0.0768585
 20
39.7803
 11
0
 21
39
  0
LINE
  8
0
 10
0
 20
39
 11
0
 21
4
  0
LINE
  8
0
 10
0
 20
4
 11
0.0768585
 21
3.21964
  0
LINE
  8
0
 10
0.0768585
 20
3.21964
 11
0.304474
 21
2.46925
  0
LINE
  8
0
 10
0.304474
 20
2.46925
 11
0.674118
 21
1.77771
  0
LINE
  8
0
 10
0.674118
 20
1.77771
 11
1.17157
 21
1.17157
  0
LINE
  8
0
 10
1.17157
 20
1.17157
 11
1.77771
 21
0.674118
  0
LINE
  8
0
 10
1.77771
 20
0.674118
 11
2.46925
 21
0.304474
  0
LINE
  8
0
 10
2.46925
 20
0.304474
 11
3.21964
 21
0.0768585
  0
LINE
  8
0
 10
3.21964
 20
0.0768585
 11
3.99998
 21
0
  0
LINE
  8
0
 10
3.99998
 20
0
 11
66
 21
0
  0
LINE
  8
0
 10
66
 20
0
 11
66.7803
 21
0.0768585
  0
LINE
  8
0
 10
3.68785
 20
37.4307
 11
3.3877
 21
37.5218
  0
LINE
  8
0
 10
3.3877
 20
37.5218
 11
3.11108
 21
37.6696
  0
LINE
  8
0
 10
3.11108
 20
37.6696
 11
2.86862
 21
37.8686
  0
LINE
  8
0
 10
2.86862
 20
37.8686
 11
2.66965
 21
38.1111
  0
LINE
  8
0
 10
2.66965
 20
38.1111
 11
2.52179
 21
38.3877
  0
LINE
  8
0
 10
2.52179
 20
38.3877
 11
2.43074
 21
38.6879
  0
LINE
  8
0
 10
2.43074
 20
38.6879
 11
2.39999
 21
39
  0
LINE
  8
0
 10
2.39999
 20
39
 11
2.43074
 21
39.3121
  0
LINE
  8
0
 10
2.43074
 20
39.3121
 11
2.52179
 21
39.6123
  0
LINE
  8
0
 10
2.52179
 20
39.6123
 11
2.66965
 21
39.8889
  0
LINE
  8
0
 10
2.66965
 20
39.8889
 11
2.86862
 21
40.1314
  0
LINE
  8
0
 10
2.86862
 20
40.1314
 11
3.11108
 21
40.3303
  0
LINE
  8
0
 10
3.11108
 20
40.3303
 11
3.3877
 21
40.4782
  0
LINE
  8
0
 10
3.3877
 20
40.4782
 11
3.68785
 21
40.5692
  0
LINE
  8
0
 10
3.68785
 20
40.5692
 11
4
 21
40.6
  0
LINE
  8
0
 10
4
 20
40.6
 11
4.31213
 21
40.5692
  0
LINE
  8
0
 10
4.31213
 20
40.5692
 11
4.61229
 21
40.4782
  0
LINE
  8
0
 10
4.61229
 20
40.4782
 11
4.8889
 21
40.3303
  0
LINE
  8
0
 10
4.8889
 20
40.3303
 11
5.13136
 21
40.1314
  0
LINE
  8
0
 10
5.13136
 20
40.1314
 11
5.33034
 21
39.8889
  0
LINE
  8
0
 10
5.33034
 20
39.8889
 11
5.4782
 21
39.6123
  0
LINE
  8
0
 10
5.4782
 20
39.6123
 11
5.56924
 21
39.3121
  0
LINE
  8
0
 10
5.56924
 20
39.3121
 11
5.59999
 21
39
  0
LINE
  8
0
 10
5.59999
 20
39
 11
5.56924
 21
38.6879
  0
LINE
  8
0
 10
5.56924
 20
38.6879
 11
5.4782
 21
38.3877
  0
LINE
  8
0
 10
5.4782
 20
38.3877
 11
5.33034
 21
38.1111
  0
LINE
  8
0
 10
5.33034
 20
38.1111
 11
5.13136
 21
37.8686
  0
LINE
  8
0
 10
5.13136
 20
37.8686
 11
4.8889
 21
37.6696
  0
LINE
  8
0
 10
4.8889
 20
37.6696
 11
4.61229
 21
37.5218
  0
LINE
  8
0
 10
4.61229
 20
37.5218
 11
4.31213
 21
37.4307
  0
LINE
  8
0
 10
4.31213
 20
37.4307
 11
3.99998
 21
37.4
  0
LINE
  8
0
 10
3.99998
 20
37.4
 11
3.68785
 21
37.4307
  0
LINE
  8
0
 10
65.6879
 20
37.4307
 11
65.3877
 21
37.5218
  0
LINE
  8
0
 10
65.3877
 20
37.5218
 11
65.1111
 21
37.6696
  0
LINE
  8
0
 10
65.1111
 20
37.6696
 11
64.8686
 21
37.8686
  0
LINE
  8
0
 10
64.8686
 20
37.8686
 11
64.6696
 21
38.1111
  0
LINE
  8
0
 10
64.6696
 20
38.1111
 11
64.5218
 21
38.3877
  0
LINE
  8
0
 10
64.5218
 20
38.3877
 11
64.4307
 21
38.6879
  0
LINE
  8
0
 10
64.4307
 20
38.6879
 11
64.4
 21
39
  0
LINE
  8
0
 10
64.4
 20
39
 11
64.4307
 21
39.3121
  0
LINE
  8
0
 10
64.4307
 20
39.3121
 11
64.5218
 21
39.6123
  0
LINE
  8
0
 10
64.5218
 20
39.6123
 11
64.6696
 21
39.8889
  0
LINE
  8
0
 10
64.6696
 20
39.8889
 11
64.8686
 21
40.1314
  0
LINE
  8
0
 10
64.8686
 20
40.1314
 11
65.1111
 21
40.3303
  0
LINE
  8
0
 10
65.1111
 20
40.3303
 11
65.3877
 21
40.4782
  0
LINE
  8
0
 10
65.3877
 20
40.4782
 11
65.6879
 21
40.5692
  0
LINE
  8
0
 10
65.6879
 20
40.5692
 11
66
 21
40.6
  0
LINE
  8
0
 10
66
 20
40.6
 11
66.3121
 21
40.5692
  0
LINE
  8
0
 10
66.3121
 20
40.5692
 11
66.6123
 21
40.4782
  0
LINE
  8
0
 10
66.6123
 20
40.4782
 11
66.8889
 21
40.3303
  0
LINE
  8
0
 10
66.8889
 20
40.3303
 11
67.1314
 21
40.1314
  0
LINE
  8
0
 10
67.1314
 20
40.1314
 11
67.3303
 21
39.8889
  0
LINE
  8
0
 10
67.3303
 20
39.8889
 11
67.4782
 21
39.6123
  0
LINE
  8
0
 10
67.4782
 20
39.6123
 11
67.5692
 21
39.3121
  0
LINE
  8
0
 10
67.5692
 20
39.3121
 11
67.6
 21
39
  0
LINE
  8
0
 10
67.6
 20
39
 11
67.5692
 21
38.6879
  0
LINE
  8
0
 10
67.5692
 20
38.6879
 11
67.4782
 21
38.3877
  0
LINE
  8
0
 10
67.4782
 20
38.3877
 11
67.3303
 21
38.1111
  0
LINE
  8
0
 10
67.3303
 20
38.1111
 11
67.1314
 21
37.8686
  0
LINE
  8
0
 10
67.1314
 20
37.8686
 11
66.8889
 21
37.6696
  0
LINE
  8
0
 10
66.8889
 20
37.6696
 11
66.6123
 21
37.5218
  0
LINE
  8
0
 10
66.6123
 20
37.5218
 11
66.3121
 21
37.4307
  0
LINE
  8
0
 10
66.3121
 20
37.4307
 11
66
 21
37.4
  0
LINE
  8
0
 10
66
 20
37.4
 11
65.6879
 21
37.4307
  0
LINE
  8
0
 10
3.68785
 20
2.43074
 11
3.3877
 21
2.52179
  0
LINE
  8
0
 10
3.3877
 20
2.52179
 11
3.11108
 21
2.66965
  0
LINE
  8
0
 10
3.11108
 20
2.66965
 11
2.86862
 21
2.86862
  0
LINE
  8
0
 10
2.86862
 20
2.86862
 11
2.66965
 21
3.11108
  0
LINE
  8
0
 10
2.66965
 20
3.11108
 11
2.52179
 21
3.3877
  0
LINE
  8
0
 10
2.52179
 20
3.3877
 11
2.43074
 21
3.68785
  0
LINE
  8
0
 10
2.43074
 20
3.68785
 11
2.39999
 21
4
  0
LINE
  8
0
 10
2.39999
 20
4
 11
2.43074
 21
4.31213
  0
LINE
  8
0
 10
2.43074
 20
4.31213
 11
2.52179
 21
4.61229
  0
LINE
  8
0
 10
2.52179
 20
4.61229
 11
2.66965
 21
4.8889
  0
LINE
  8
0
 10
2.66965
 20
4.8889
 11
2.86862
 21
5.13136
  0
LINE
  8
0
 10
2.86862
 20
5.13136
 11
3.11108
 21
5.33034
  0
LINE
  8
0
 10
3.11108
 20
5.33034
 11
3.3877
 21
5.4782
  0
LINE
  8
0
 10
3.3877
 20
5.4782
 11
3.68785
 21
5.56924
  0
LINE
  8
0
 10
3.68785
 20
5.56924
 11
4
 21
5.59999
  0
LINE
  8
0
 10
4
 20
5.59999
 11
4.31213
 21
5.56924
  0
LINE
  8
0
 10
4.31213
 20
5.56924
 11
4.61229
 21
5.4782
  0
LINE
  8
0
 10
4.61229
 20
5.4782
 11
4.8889
 21
5.33034
  0
LINE
  8
0
 10
4.8889
 20
5.33034
 11
5.13136
 21
5.13136
  0
LINE
  8
0
 10
5.13136
 20
5.13136
 11
5.33034
 21
4.8889
  0
LINE
  8
0
 10
5.33034
 20
4.8889
 11
5.4782
 21
4.61229
  0
LINE
  8
0
 10
5.4782
 20
4.61229
 11
5.56924
 21
4.31213
  0
LINE
  8
0
 10
5.56924
 20
4.31213
 11
5.59999
 21
4
  0
LINE
  8
0
 10
5.59999
 20
4
 11
5.56924
 21
3.68785
  0
LINE
  8
0
 10
5.56924
 20
3.68785
 11
5.4782
 21
3.3877
  0
LINE
  8
0
 10
5.4782
 20
3.3877
 11
5.33034
 21
3.11108
  0
LINE
  8
0
 10
5.33034
 20
3.11108
 11
5.13136
 21
2.86862
  0
LINE
  8
0
 10
5.13136
 20
2.86862
 11
4.8889
 21
2.66965
  0
LINE
  8
0
 10
4.8889
 20
2.66965
 11
4.61229
 21
2.52179
  0
LINE
  8
0
 10
4.61229
 20
2.52179
 11
4.31213
 21
2.43074
  0
LINE
  8
0
 10
4.31213
 20
2.43074
 11
3.99998
 21
2.39999
  0
LINE
  8
0
 10
3.99998
 20
2.39999
 11
3.68785
 21
2.43074
  0
LINE
  8
0
 10
65.6879
 20
2.43074
 11
65.3877
 21
2.52179
  0
LINE
  8
0
 10
65.3877
 20
2.52179
 11
65.1111
 21
2.66965
  0
LINE
  8
0
 10
65.1111
 20
2.66965
 11
64.8686
 21
2.86862
  0
LINE
  8
0
 10
64.8686
 20
2.86862
 11
64.6696
 21
3.11108
  0
LINE
  8
0
 10
64.6696
 20
3.11108
 11
64.5218
 21
3.3877
  0
LINE
  8
0
 10
64.5218
 20
3.3877
 11
64.4307
 21
3.68785
  0
LINE
  8
0
 10
64.4307
 20
3.68785
 11
64.4
 21
4
  0
LINE
  8
0
 10
64.4
 20
4
 11
64.4307
 21
4.31213
  0
LINE
  8
0
 10
64.4307
 20
4.31213
 11
64.5218
 21
4.61229
  0
LINE
  8
0
 10
64.5218
 20
4.61229
 11
64.6696
 21
4.8889
  0
LINE
  8
0
 10
64.6696
 20
4.8889
 11
64.8686
 21
5.13136
  0
LINE
  8
0
 10
64.8686
 20
5.13136
 11
65.1111
 21
5.33034
  0
LINE
  8
0
 10
65.1111
 20
5.33034
 11
65.3877
 21
5.4782
  0
LINE
  8
0
 10
65.3877
 20
5.4782
 11
65.6879
 21
5.56924
  0
LINE
  8
0
 10
65.6879
 20
5.56924
 11
66
 21
5.59999
  0
LINE
  8
0
 10
66
 20
5.59999
 11
66.3121
 21
5.56924
  0
LINE
  8
0
 10
66.3121
 20
5.56924
 11
66.6123
 21
5.4782
  0
LINE
  8
0
 10
66.6123
 20
5.4782
 11
66.8889
 21
5.33034
  0
LINE
  8
0
 10
66.8889
 20
5.33034
 11
67.1314
 21
5.13136
  0
LINE
  8
0
 10
67.1314
 20
5.13136
 11
67.3303
 21
4.8889
  0
LINE
  8
0
 10
67.3303
 20
4.8889
 11
67.4782
 21
4.61229
  0
LINE
  8
0
 10
67.4782
 20
4.61229
 11
67.5692
 21
4.31213
  0
LINE
  8
0
 10
67.5692
 20
4.31213
 11
67.6
 21
4
  0
LINE
  8
0
 10
67.6
 20
4
 11
67.5692
 21
3.68785
  0
LINE
  8
0
 10
67.5692
 20
3.68785
 11
67.4782
 21
3.3877
  0
LINE
  8
0
 10
67.4782
 20
3.3877
 11
67.3303
 21
3.11108
  0
LINE
  8
0
 10
67.3303
 20
3.11108
 11
67.1314
 21
2.86862
  0
LINE
  8
0
 10
67.1314
 20
2.86862
 11
66.8889
 21
2.66965
  0
LINE
  8
0
 10
66.8889
 20
2.66965
 11
66.6123
 21
2.52179
  0
LINE
  8
0
 10
66.6123
 20
2.52179
 11
66.3121
 21
2.43074
  0
LINE
  8
0
 10
66.3121
 20
2.43074
 11
66
 21
2.39999
  0
LINE
  8
0
 10
66
 20
2.39999
 11
65.6879
 21
2.43074
  0
ENDSEC
  0
SECTION
  2
OBJECTS
  0
DICTIONARY
  0
ENDSEC
  0
EOF
