  0
SECTION
  2
BLOCKS
  0
ENDSEC
  0
SECTION
  2
ENTITIES
  0
LINE
  8
0
 10
76.7803
 20
0.0768585
 11
77.5307
 21
0.304474
  0
LINE
  8
0
 10
77.5307
 20
0.304474
 11
78.2223
 21
0.674118
  0
LINE
  8
0
 10
78.2223
 20
0.674118
 11
78.8284
 21
1.17157
  0
LINE
  8
0
 10
78.8284
 20
1.17157
 11
79.3259
 21
1.77771
  0
LINE
  8
0
 10
79.3259
 20
1.77771
 11
79.6955
 21
2.46925
  0
LINE
  8
0
 10
79.6955
 20
2.46925
 11
79.9231
 21
3.21964
  0
LINE
  8
0
 10
79.9231
 20
3.21964
 11
80
 21
4
  0
LINE
  8
0
 10
80
 20
4
 11
80
 21
45
  0
LINE
  8
0
 10
80
 20
45
 11
79.9231
 21
45.7803
  0
LINE
  8
0
 10
79.9231
 20
45.7803
 11
79.6955
 21
46.5307
  0
LINE
  8
0
 10
79.6955
 20
46.5307
 11
79.3259
 21
47.2223
  0
LINE
  8
0
 10
79.3259
 20
47.2223
 11
78.8284
 21
47.8284
  0
LINE
  8
0
 10
78.8284
 20
47.8284
 11
78.2223
 21
48.3259
  0
LINE
  8
0
 10
78.2223
 20
48.3259
 11
77.5307
 21
48.6955
  0
LINE
  8
0
 10
77.5307
 20
48.6955
 11
76.7803
 21
48.9231
  0
LINE
  8
0
 10
76.7803
 20
48.9231
 11
76
 21
49
  0
LINE
  8
0
 10
76
 20
49
 11
4
 21
49
  0
LINE
  8
0
 10
4
 20
49
 11
3.21964
 21
48.9231
  0
LINE
  8
0
 10
3.21964
 20
48.9231
 11
2.46925
 21
48.6955
  0
LINE
  8
0
 10
2.46925
 20
48.6955
 11
1.77771
 21
48.3259
  0
LINE
  8
0
 10
1.77771
 20
48.3259
 11
1.17157
 21
47.8284
  0
LINE
  8
0
 10
1.17157
 20
47.8284
 11
0.674118
 21
47.2223
  0
LINE
  8
0
 10
0.674118
 20
47.2223
 11
0.304474
 21
46.5307
  0
LINE
  8
0
 10
0.304474
 20
46.5307
 11
0.0768585
 21
45.7803
  0
LINE
  8
0
 10
0.0768585
 20
45.7803
 11
0
 21
45
  0
LINE
  8
0
 10
0
 20
45
 11
0
 21
4
  0
LINE
  8
0
 10
0
 20
4
 11
0.0768585
 21
3.21964
  0
LINE
  8
0
 10
0.0768585
 20
3.21964
 11
0.304474
 21
2.46925
  0
LINE
  8
0
 10
0.304474
 20
2.46925
 11
0.674118
 21
1.77771
  0
LINE
  8
0
 10
0.674118
 20
1.77771
 11
1.17157
 21
1.17157
  0
LINE
  8
0
 10
1.17157
 20
1.17157
 11
1.77771
 21
0.674118
  0
LINE
  8
0
 10
1.77771
 20
0.674118
 11
2.46925
 21
0.304474
  0
LINE
  8
0
 10
2.46925
 20
0.304474
 11
3.21964
 21
0.0768585
  0
LINE
  8
0
 10
3.21964
 20
0.0768585
 11
3.99998
 21
0
  0
LINE
  8
0
 10
3.99998
 20
0
 11
76
 21
0
  0
LINE
  8
0
 10
76
 20
0
 11
76.7803
 21
0.0768585
  0
LINE
  8
0
 10
3.68785
 20
43.4307
 11
3.3877
 21
43.5218
  0
LINE
  8
0
 10
3.3877
 20
43.5218
 11
3.11108
 21
43.6696
  0
LINE
  8
0
 10
3.11108
 20
43.6696
 11
2.86862
 21
43.8686
  0
LINE
  8
0
 10
2.86862
 20
43.8686
 11
2.66965
 21
44.1111
  0
LINE
  8
0
 10
2.66965
 20
44.1111
 11
2.52179
 21
44.3877
  0
LINE
  8
0
 10
2.52179
 20
44.3877
 11
2.43074
 21
44.6879
  0
LINE
  8
0
 10
2.43074
 20
44.6879
 11
2.39999
 21
45
  0
LINE
  8
0
 10
2.39999
 20
45
 11
2.43074
 21
45.3121
  0
LINE
  8
0
 10
2.43074
 20
45.3121
 11
2.52179
 21
45.6123
  0
LINE
  8
0
 10
2.52179
 20
45.6123
 11
2.66965
 21
45.8889
  0
LINE
  8
0
 10
2.66965
 20
45.8889
 11
2.86862
 21
46.1314
  0
LINE
  8
0
 10
2.86862
 20
46.1314
 11
3.11108
 21
46.3303
  0
LINE
  8
0
 10
3.11108
 20
46.3303
 11
3.3877
 21
46.4782
  0
LINE
  8
0
 10
3.3877
 20
46.4782
 11
3.68785
 21
46.5692
  0
LINE
  8
0
 10
3.68785
 20
46.5692
 11
4
 21
46.6
  0
LINE
  8
0
 10
4
 20
46.6
 11
4.31213
 21
46.5692
  0
LINE
  8
0
 10
4.31213
 20
46.5692
 11
4.61229
 21
46.4782
  0
LINE
  8
0
 10
4.61229
 20
46.4782
 11
4.8889
 21
46.3303
  0
LINE
  8
0
 10
4.8889
 20
46.3303
 11
5.13136
 21
46.1314
  0
LINE
  8
0
 10
5.13136
 20
46.1314
 11
5.33034
 21
45.8889
  0
LINE
  8
0
 10
5.33034
 20
45.8889
 11
5.4782
 21
45.6123
  0
LINE
  8
0
 10
5.4782
 20
45.6123
 11
5.56924
 21
45.3121
  0
LINE
  8
0
 10
5.56924
 20
45.3121
 11
5.59999
 21
45
  0
LINE
  8
0
 10
5.59999
 20
45
 11
5.56924
 21
44.6879
  0
LINE
  8
0
 10
5.56924
 20
44.6879
 11
5.4782
 21
44.3877
  0
LINE
  8
0
 10
5.4782
 20
44.3877
 11
5.33034
 21
44.1111
  0
LINE
  8
0
 10
5.33034
 20
44.1111
 11
5.13136
 21
43.8686
  0
LINE
  8
0
 10
5.13136
 20
43.8686
 11
4.8889
 21
43.6696
  0
LINE
  8
0
 10
4.8889
 20
43.6696
 11
4.61229
 21
43.5218
  0
LINE
  8
0
 10
4.61229
 20
43.5218
 11
4.31213
 21
43.4307
  0
LINE
  8
0
 10
4.31213
 20
43.4307
 11
3.99998
 21
43.4
  0
LINE
  8
0
 10
3.99998
 20
43.4
 11
3.68785
 21
43.4307
  0
LINE
  8
0
 10
75.6879
 20
43.4307
 11
75.3877
 21
43.5218
  0
LINE
  8
0
 10
75.3877
 20
43.5218
 11
75.1111
 21
43.6696
  0
LINE
  8
0
 10
75.1111
 20
43.6696
 11
74.8686
 21
43.8686
  0
LINE
  8
0
 10
74.8686
 20
43.8686
 11
74.6696
 21
44.1111
  0
LINE
  8
0
 10
74.6696
 20
44.1111
 11
74.5218
 21
44.3877
  0
LINE
  8
0
 10
74.5218
 20
44.3877
 11
74.4307
 21
44.6879
  0
LINE
  8
0
 10
74.4307
 20
44.6879
 11
74.4
 21
45
  0
LINE
  8
0
 10
74.4
 20
45
 11
74.4307
 21
45.3121
  0
LINE
  8
0
 10
74.4307
 20
45.3121
 11
74.5218
 21
45.6123
  0
LINE
  8
0
 10
74.5218
 20
45.6123
 11
74.6696
 21
45.8889
  0
LINE
  8
0
 10
74.6696
 20
45.8889
 11
74.8686
 21
46.1314
  0
LINE
  8
0
 10
74.8686
 20
46.1314
 11
75.1111
 21
46.3303
  0
LINE
  8
0
 10
75.1111
 20
46.3303
 11
75.3877
 21
46.4782
  0
LINE
  8
0
 10
75.3877
 20
46.4782
 11
75.6879
 21
46.5692
  0
LINE
  8
0
 10
75.6879
 20
46.5692
 11
76
 21
46.6
  0
LINE
  8
0
 10
76
 20
46.6
 11
76.3121
 21
46.5692
  0
LINE
  8
0
 10
76.3121
 20
46.5692
 11
76.6123
 21
46.4782
  0
LINE
  8
0
 10
76.6123
 20
46.4782
 11
76.8889
 21
46.3303
  0
LINE
  8
0
 10
76.8889
 20
46.3303
 11
77.1314
 21
46.1314
  0
LINE
  8
0
 10
77.1314
 20
46.1314
 11
77.3303
 21
45.8889
  0
LINE
  8
0
 10
77.3303
 20
45.8889
 11
77.4782
 21
45.6123
  0
LINE
  8
0
 10
77.4782
 20
45.6123
 11
77.5692
 21
45.3121
  0
LINE
  8
0
 10
77.5692
 20
45.3121
 11
77.6
 21
45
  0
LINE
  8
0
 10
77.6
 20
45
 11
77.5692
 21
44.6879
  0
LINE
  8
0
 10
77.5692
 20
44.6879
 11
77.4782
 21
44.3877
  0
LINE
  8
0
 10
77.4782
 20
44.3877
 11
77.3303
 21
44.1111
  0
LINE
  8
0
 10
77.3303
 20
44.1111
 11
77.1314
 21
43.8686
  0
LINE
  8
0
 10
77.1314
 20
43.8686
 11
76.8889
 21
43.6696
  0
LINE
  8
0
 10
76.8889
 20
43.6696
 11
76.6123
 21
43.5218
  0
LINE
  8
0
 10
76.6123
 20
43.5218
 11
76.3121
 21
43.4307
  0
LINE
  8
0
 10
76.3121
 20
43.4307
 11
76
 21
43.4
  0
LINE
  8
0
 10
76
 20
43.4
 11
75.6879
 21
43.4307
  0
LINE
  8
0
 10
3.68785
 20
2.43074
 11
3.3877
 21
2.52179
  0
LINE
  8
0
 10
3.3877
 20
2.52179
 11
3.11108
 21
2.66965
  0
LINE
  8
0
 10
3.11108
 20
2.66965
 11
2.86862
 21
2.86862
  0
LINE
  8
0
 10
2.86862
 20
2.86862
 11
2.66965
 21
3.11108
  0
LINE
  8
0
 10
2.66965
 20
3.11108
 11
2.52179
 21
3.3877
  0
LINE
  8
0
 10
2.52179
 20
3.3877
 11
2.43074
 21
3.68785
  0
LINE
  8
0
 10
2.43074
 20
3.68785
 11
2.39999
 21
4
  0
LINE
  8
0
 10
2.39999
 20
4
 11
2.43074
 21
4.31213
  0
LINE
  8
0
 10
2.43074
 20
4.31213
 11
2.52179
 21
4.61229
  0
LINE
  8
0
 10
2.52179
 20
4.61229
 11
2.66965
 21
4.8889
  0
LINE
  8
0
 10
2.66965
 20
4.8889
 11
2.86862
 21
5.13136
  0
LINE
  8
0
 10
2.86862
 20
5.13136
 11
3.11108
 21
5.33034
  0
LINE
  8
0
 10
3.11108
 20
5.33034
 11
3.3877
 21
5.4782
  0
LINE
  8
0
 10
3.3877
 20
5.4782
 11
3.68785
 21
5.56924
  0
LINE
  8
0
 10
3.68785
 20
5.56924
 11
4
 21
5.59999
  0
LINE
  8
0
 10
4
 20
5.59999
 11
4.31213
 21
5.56924
  0
LINE
  8
0
 10
4.31213
 20
5.56924
 11
4.61229
 21
5.4782
  0
LINE
  8
0
 10
4.61229
 20
5.4782
 11
4.8889
 21
5.33034
  0
LINE
  8
0
 10
4.8889
 20
5.33034
 11
5.13136
 21
5.13136
  0
LINE
  8
0
 10
5.13136
 20
5.13136
 11
5.33034
 21
4.8889
  0
LINE
  8
0
 10
5.33034
 20
4.8889
 11
5.4782
 21
4.61229
  0
LINE
  8
0
 10
5.4782
 20
4.61229
 11
5.56924
 21
4.31213
  0
LINE
  8
0
 10
5.56924
 20
4.31213
 11
5.59999
 21
4
  0
LINE
  8
0
 10
5.59999
 20
4
 11
5.56924
 21
3.68785
  0
LINE
  8
0
 10
5.56924
 20
3.68785
 11
5.4782
 21
3.3877
  0
LINE
  8
0
 10
5.4782
 20
3.3877
 11
5.33034
 21
3.11108
  0
LINE
  8
0
 10
5.33034
 20
3.11108
 11
5.13136
 21
2.86862
  0
LINE
  8
0
 10
5.13136
 20
2.86862
 11
4.8889
 21
2.66965
  0
LINE
  8
0
 10
4.8889
 20
2.66965
 11
4.61229
 21
2.52179
  0
LINE
  8
0
 10
4.61229
 20
2.52179
 11
4.31213
 21
2.43074
  0
LINE
  8
0
 10
4.31213
 20
2.43074
 11
3.99998
 21
2.39999
  0
LINE
  8
0
 10
3.99998
 20
2.39999
 11
3.68785
 21
2.43074
  0
LINE
  8
0
 10
75.6879
 20
2.43074
 11
75.3877
 21
2.52179
  0
LINE
  8
0
 10
75.3877
 20
2.52179
 11
75.1111
 21
2.66965
  0
LINE
  8
0
 10
75.1111
 20
2.66965
 11
74.8686
 21
2.86862
  0
LINE
  8
0
 10
74.8686
 20
2.86862
 11
74.6696
 21
3.11108
  0
LINE
  8
0
 10
74.6696
 20
3.11108
 11
74.5218
 21
3.3877
  0
LINE
  8
0
 10
74.5218
 20
3.3877
 11
74.4307
 21
3.68785
  0
LINE
  8
0
 10
74.4307
 20
3.68785
 11
74.4
 21
4
  0
LINE
  8
0
 10
74.4
 20
4
 11
74.4307
 21
4.31213
  0
LINE
  8
0
 10
74.4307
 20
4.31213
 11
74.5218
 21
4.61229
  0
LINE
  8
0
 10
74.5218
 20
4.61229
 11
74.6696
 21
4.8889
  0
LINE
  8
0
 10
74.6696
 20
4.8889
 11
74.8686
 21
5.13136
  0
LINE
  8
0
 10
74.8686
 20
5.13136
 11
75.1111
 21
5.33034
  0
LINE
  8
0
 10
75.1111
 20
5.33034
 11
75.3877
 21
5.4782
  0
LINE
  8
0
 10
75.3877
 20
5.4782
 11
75.6879
 21
5.56924
  0
LINE
  8
0
 10
75.6879
 20
5.56924
 11
76
 21
5.59999
  0
LINE
  8
0
 10
76
 20
5.59999
 11
76.3121
 21
5.56924
  0
LINE
  8
0
 10
76.3121
 20
5.56924
 11
76.6123
 21
5.4782
  0
LINE
  8
0
 10
76.6123
 20
5.4782
 11
76.8889
 21
5.33034
  0
LINE
  8
0
 10
76.8889
 20
5.33034
 11
77.1314
 21
5.13136
  0
LINE
  8
0
 10
77.1314
 20
5.13136
 11
77.3303
 21
4.8889
  0
LINE
  8
0
 10
77.3303
 20
4.8889
 11
77.4782
 21
4.61229
  0
LINE
  8
0
 10
77.4782
 20
4.61229
 11
77.5692
 21
4.31213
  0
LINE
  8
0
 10
77.5692
 20
4.31213
 11
77.6
 21
4
  0
LINE
  8
0
 10
77.6
 20
4
 11
77.5692
 21
3.68785
  0
LINE
  8
0
 10
77.5692
 20
3.68785
 11
77.4782
 21
3.3877
  0
LINE
  8
0
 10
77.4782
 20
3.3877
 11
77.3303
 21
3.11108
  0
LINE
  8
0
 10
77.3303
 20
3.11108
 11
77.1314
 21
2.86862
  0
LINE
  8
0
 10
77.1314
 20
2.86862
 11
76.8889
 21
2.66965
  0
LINE
  8
0
 10
76.8889
 20
2.66965
 11
76.6123
 21
2.52179
  0
LINE
  8
0
 10
76.6123
 20
2.52179
 11
76.3121
 21
2.43074
  0
LINE
  8
0
 10
76.3121
 20
2.43074
 11
76
 21
2.39999
  0
LINE
  8
0
 10
76
 20
2.39999
 11
75.6879
 21
2.43074
  0
ENDSEC
  0
SECTION
  2
OBJECTS
  0
DICTIONARY
  0
ENDSEC
  0
EOF
