  0
SECTION
  2
BLOCKS
  0
ENDSEC
  0
SECTION
  2
ENTITIES
  0
LINE
  8
0
 10
86.7803
 20
0.0768585
 11
87.5307
 21
0.304474
  0
LINE
  8
0
 10
87.5307
 20
0.304474
 11
88.2223
 21
0.674118
  0
LINE
  8
0
 10
88.2223
 20
0.674118
 11
88.8284
 21
1.17157
  0
LINE
  8
0
 10
88.8284
 20
1.17157
 11
89.3259
 21
1.77771
  0
LINE
  8
0
 10
89.3259
 20
1.77771
 11
89.6955
 21
2.46925
  0
LINE
  8
0
 10
89.6955
 20
2.46925
 11
89.9231
 21
3.21964
  0
LINE
  8
0
 10
89.9231
 20
3.21964
 11
90
 21
4
  0
LINE
  8
0
 10
90
 20
4
 11
90
 21
52
  0
LINE
  8
0
 10
90
 20
52
 11
89.9231
 21
52.7803
  0
LINE
  8
0
 10
89.9231
 20
52.7803
 11
89.6955
 21
53.5307
  0
LINE
  8
0
 10
89.6955
 20
53.5307
 11
89.3259
 21
54.2223
  0
LINE
  8
0
 10
89.3259
 20
54.2223
 11
88.8284
 21
54.8284
  0
LINE
  8
0
 10
88.8284
 20
54.8284
 11
88.2223
 21
55.3259
  0
LINE
  8
0
 10
88.2223
 20
55.3259
 11
87.5307
 21
55.6955
  0
LINE
  8
0
 10
87.5307
 20
55.6955
 11
86.7803
 21
55.9231
  0
LINE
  8
0
 10
86.7803
 20
55.9231
 11
86
 21
56
  0
LINE
  8
0
 10
86
 20
56
 11
4
 21
56
  0
LINE
  8
0
 10
4
 20
56
 11
3.21964
 21
55.9231
  0
LINE
  8
0
 10
3.21964
 20
55.9231
 11
2.46925
 21
55.6955
  0
LINE
  8
0
 10
2.46925
 20
55.6955
 11
1.77771
 21
55.3259
  0
LINE
  8
0
 10
1.77771
 20
55.3259
 11
1.17157
 21
54.8284
  0
LINE
  8
0
 10
1.17157
 20
54.8284
 11
0.674118
 21
54.2223
  0
LINE
  8
0
 10
0.674118
 20
54.2223
 11
0.304474
 21
53.5307
  0
LINE
  8
0
 10
0.304474
 20
53.5307
 11
0.0768585
 21
52.7803
  0
LINE
  8
0
 10
0.0768585
 20
52.7803
 11
0
 21
52
  0
LINE
  8
0
 10
0
 20
52
 11
0
 21
4
  0
LINE
  8
0
 10
0
 20
4
 11
0.0768585
 21
3.21964
  0
LINE
  8
0
 10
0.0768585
 20
3.21964
 11
0.304474
 21
2.46925
  0
LINE
  8
0
 10
0.304474
 20
2.46925
 11
0.674118
 21
1.77771
  0
LINE
  8
0
 10
0.674118
 20
1.77771
 11
1.17157
 21
1.17157
  0
LINE
  8
0
 10
1.17157
 20
1.17157
 11
1.77771
 21
0.674118
  0
LINE
  8
0
 10
1.77771
 20
0.674118
 11
2.46925
 21
0.304474
  0
LINE
  8
0
 10
2.46925
 20
0.304474
 11
3.21964
 21
0.0768585
  0
LINE
  8
0
 10
3.21964
 20
0.0768585
 11
3.99998
 21
0
  0
LINE
  8
0
 10
3.99998
 20
0
 11
86
 21
0
  0
LINE
  8
0
 10
86
 20
0
 11
86.7803
 21
0.0768585
  0
LINE
  8
0
 10
3.68785
 20
50.4307
 11
3.3877
 21
50.5218
  0
LINE
  8
0
 10
3.3877
 20
50.5218
 11
3.11108
 21
50.6696
  0
LINE
  8
0
 10
3.11108
 20
50.6696
 11
2.86862
 21
50.8686
  0
LINE
  8
0
 10
2.86862
 20
50.8686
 11
2.66965
 21
51.1111
  0
LINE
  8
0
 10
2.66965
 20
51.1111
 11
2.52179
 21
51.3877
  0
LINE
  8
0
 10
2.52179
 20
51.3877
 11
2.43074
 21
51.6879
  0
LINE
  8
0
 10
2.43074
 20
51.6879
 11
2.39999
 21
52
  0
LINE
  8
0
 10
2.39999
 20
52
 11
2.43074
 21
52.3121
  0
LINE
  8
0
 10
2.43074
 20
52.3121
 11
2.52179
 21
52.6123
  0
LINE
  8
0
 10
2.52179
 20
52.6123
 11
2.66965
 21
52.8889
  0
LINE
  8
0
 10
2.66965
 20
52.8889
 11
2.86862
 21
53.1314
  0
LINE
  8
0
 10
2.86862
 20
53.1314
 11
3.11108
 21
53.3303
  0
LINE
  8
0
 10
3.11108
 20
53.3303
 11
3.3877
 21
53.4782
  0
LINE
  8
0
 10
3.3877
 20
53.4782
 11
3.68785
 21
53.5692
  0
LINE
  8
0
 10
3.68785
 20
53.5692
 11
4
 21
53.6
  0
LINE
  8
0
 10
4
 20
53.6
 11
4.31213
 21
53.5692
  0
LINE
  8
0
 10
4.31213
 20
53.5692
 11
4.61229
 21
53.4782
  0
LINE
  8
0
 10
4.61229
 20
53.4782
 11
4.8889
 21
53.3303
  0
LINE
  8
0
 10
4.8889
 20
53.3303
 11
5.13136
 21
53.1314
  0
LINE
  8
0
 10
5.13136
 20
53.1314
 11
5.33034
 21
52.8889
  0
LINE
  8
0
 10
5.33034
 20
52.8889
 11
5.4782
 21
52.6123
  0
LINE
  8
0
 10
5.4782
 20
52.6123
 11
5.56924
 21
52.3121
  0
LINE
  8
0
 10
5.56924
 20
52.3121
 11
5.59999
 21
52
  0
LINE
  8
0
 10
5.59999
 20
52
 11
5.56924
 21
51.6879
  0
LINE
  8
0
 10
5.56924
 20
51.6879
 11
5.4782
 21
51.3877
  0
LINE
  8
0
 10
5.4782
 20
51.3877
 11
5.33034
 21
51.1111
  0
LINE
  8
0
 10
5.33034
 20
51.1111
 11
5.13136
 21
50.8686
  0
LINE
  8
0
 10
5.13136
 20
50.8686
 11
4.8889
 21
50.6696
  0
LINE
  8
0
 10
4.8889
 20
50.6696
 11
4.61229
 21
50.5218
  0
LINE
  8
0
 10
4.61229
 20
50.5218
 11
4.31213
 21
50.4307
  0
LINE
  8
0
 10
4.31213
 20
50.4307
 11
3.99998
 21
50.4
  0
LINE
  8
0
 10
3.99998
 20
50.4
 11
3.68785
 21
50.4307
  0
LINE
  8
0
 10
85.6879
 20
50.4307
 11
85.3877
 21
50.5218
  0
LINE
  8
0
 10
85.3877
 20
50.5218
 11
85.1111
 21
50.6696
  0
LINE
  8
0
 10
85.1111
 20
50.6696
 11
84.8686
 21
50.8686
  0
LINE
  8
0
 10
84.8686
 20
50.8686
 11
84.6696
 21
51.1111
  0
LINE
  8
0
 10
84.6696
 20
51.1111
 11
84.5218
 21
51.3877
  0
LINE
  8
0
 10
84.5218
 20
51.3877
 11
84.4307
 21
51.6879
  0
LINE
  8
0
 10
84.4307
 20
51.6879
 11
84.4
 21
52
  0
LINE
  8
0
 10
84.4
 20
52
 11
84.4307
 21
52.3121
  0
LINE
  8
0
 10
84.4307
 20
52.3121
 11
84.5218
 21
52.6123
  0
LINE
  8
0
 10
84.5218
 20
52.6123
 11
84.6696
 21
52.8889
  0
LINE
  8
0
 10
84.6696
 20
52.8889
 11
84.8686
 21
53.1314
  0
LINE
  8
0
 10
84.8686
 20
53.1314
 11
85.1111
 21
53.3303
  0
LINE
  8
0
 10
85.1111
 20
53.3303
 11
85.3877
 21
53.4782
  0
LINE
  8
0
 10
85.3877
 20
53.4782
 11
85.6879
 21
53.5692
  0
LINE
  8
0
 10
85.6879
 20
53.5692
 11
86
 21
53.6
  0
LINE
  8
0
 10
86
 20
53.6
 11
86.3121
 21
53.5692
  0
LINE
  8
0
 10
86.3121
 20
53.5692
 11
86.6123
 21
53.4782
  0
LINE
  8
0
 10
86.6123
 20
53.4782
 11
86.8889
 21
53.3303
  0
LINE
  8
0
 10
86.8889
 20
53.3303
 11
87.1314
 21
53.1314
  0
LINE
  8
0
 10
87.1314
 20
53.1314
 11
87.3303
 21
52.8889
  0
LINE
  8
0
 10
87.3303
 20
52.8889
 11
87.4782
 21
52.6123
  0
LINE
  8
0
 10
87.4782
 20
52.6123
 11
87.5692
 21
52.3121
  0
LINE
  8
0
 10
87.5692
 20
52.3121
 11
87.6
 21
52
  0
LINE
  8
0
 10
87.6
 20
52
 11
87.5692
 21
51.6879
  0
LINE
  8
0
 10
87.5692
 20
51.6879
 11
87.4782
 21
51.3877
  0
LINE
  8
0
 10
87.4782
 20
51.3877
 11
87.3303
 21
51.1111
  0
LINE
  8
0
 10
87.3303
 20
51.1111
 11
87.1314
 21
50.8686
  0
LINE
  8
0
 10
87.1314
 20
50.8686
 11
86.8889
 21
50.6696
  0
LINE
  8
0
 10
86.8889
 20
50.6696
 11
86.6123
 21
50.5218
  0
LINE
  8
0
 10
86.6123
 20
50.5218
 11
86.3121
 21
50.4307
  0
LINE
  8
0
 10
86.3121
 20
50.4307
 11
86
 21
50.4
  0
LINE
  8
0
 10
86
 20
50.4
 11
85.6879
 21
50.4307
  0
LINE
  8
0
 10
3.68785
 20
2.43074
 11
3.3877
 21
2.52179
  0
LINE
  8
0
 10
3.3877
 20
2.52179
 11
3.11108
 21
2.66965
  0
LINE
  8
0
 10
3.11108
 20
2.66965
 11
2.86862
 21
2.86862
  0
LINE
  8
0
 10
2.86862
 20
2.86862
 11
2.66965
 21
3.11108
  0
LINE
  8
0
 10
2.66965
 20
3.11108
 11
2.52179
 21
3.3877
  0
LINE
  8
0
 10
2.52179
 20
3.3877
 11
2.43074
 21
3.68785
  0
LINE
  8
0
 10
2.43074
 20
3.68785
 11
2.39999
 21
4
  0
LINE
  8
0
 10
2.39999
 20
4
 11
2.43074
 21
4.31213
  0
LINE
  8
0
 10
2.43074
 20
4.31213
 11
2.52179
 21
4.61229
  0
LINE
  8
0
 10
2.52179
 20
4.61229
 11
2.66965
 21
4.8889
  0
LINE
  8
0
 10
2.66965
 20
4.8889
 11
2.86862
 21
5.13136
  0
LINE
  8
0
 10
2.86862
 20
5.13136
 11
3.11108
 21
5.33034
  0
LINE
  8
0
 10
3.11108
 20
5.33034
 11
3.3877
 21
5.4782
  0
LINE
  8
0
 10
3.3877
 20
5.4782
 11
3.68785
 21
5.56924
  0
LINE
  8
0
 10
3.68785
 20
5.56924
 11
4
 21
5.59999
  0
LINE
  8
0
 10
4
 20
5.59999
 11
4.31213
 21
5.56924
  0
LINE
  8
0
 10
4.31213
 20
5.56924
 11
4.61229
 21
5.4782
  0
LINE
  8
0
 10
4.61229
 20
5.4782
 11
4.8889
 21
5.33034
  0
LINE
  8
0
 10
4.8889
 20
5.33034
 11
5.13136
 21
5.13136
  0
LINE
  8
0
 10
5.13136
 20
5.13136
 11
5.33034
 21
4.8889
  0
LINE
  8
0
 10
5.33034
 20
4.8889
 11
5.4782
 21
4.61229
  0
LINE
  8
0
 10
5.4782
 20
4.61229
 11
5.56924
 21
4.31213
  0
LINE
  8
0
 10
5.56924
 20
4.31213
 11
5.59999
 21
4
  0
LINE
  8
0
 10
5.59999
 20
4
 11
5.56924
 21
3.68785
  0
LINE
  8
0
 10
5.56924
 20
3.68785
 11
5.4782
 21
3.3877
  0
LINE
  8
0
 10
5.4782
 20
3.3877
 11
5.33034
 21
3.11108
  0
LINE
  8
0
 10
5.33034
 20
3.11108
 11
5.13136
 21
2.86862
  0
LINE
  8
0
 10
5.13136
 20
2.86862
 11
4.8889
 21
2.66965
  0
LINE
  8
0
 10
4.8889
 20
2.66965
 11
4.61229
 21
2.52179
  0
LINE
  8
0
 10
4.61229
 20
2.52179
 11
4.31213
 21
2.43074
  0
LINE
  8
0
 10
4.31213
 20
2.43074
 11
3.99998
 21
2.39999
  0
LINE
  8
0
 10
3.99998
 20
2.39999
 11
3.68785
 21
2.43074
  0
LINE
  8
0
 10
85.6879
 20
2.43074
 11
85.3877
 21
2.52179
  0
LINE
  8
0
 10
85.3877
 20
2.52179
 11
85.1111
 21
2.66965
  0
LINE
  8
0
 10
85.1111
 20
2.66965
 11
84.8686
 21
2.86862
  0
LINE
  8
0
 10
84.8686
 20
2.86862
 11
84.6696
 21
3.11108
  0
LINE
  8
0
 10
84.6696
 20
3.11108
 11
84.5218
 21
3.3877
  0
LINE
  8
0
 10
84.5218
 20
3.3877
 11
84.4307
 21
3.68785
  0
LINE
  8
0
 10
84.4307
 20
3.68785
 11
84.4
 21
4
  0
LINE
  8
0
 10
84.4
 20
4
 11
84.4307
 21
4.31213
  0
LINE
  8
0
 10
84.4307
 20
4.31213
 11
84.5218
 21
4.61229
  0
LINE
  8
0
 10
84.5218
 20
4.61229
 11
84.6696
 21
4.8889
  0
LINE
  8
0
 10
84.6696
 20
4.8889
 11
84.8686
 21
5.13136
  0
LINE
  8
0
 10
84.8686
 20
5.13136
 11
85.1111
 21
5.33034
  0
LINE
  8
0
 10
85.1111
 20
5.33034
 11
85.3877
 21
5.4782
  0
LINE
  8
0
 10
85.3877
 20
5.4782
 11
85.6879
 21
5.56924
  0
LINE
  8
0
 10
85.6879
 20
5.56924
 11
86
 21
5.59999
  0
LINE
  8
0
 10
86
 20
5.59999
 11
86.3121
 21
5.56924
  0
LINE
  8
0
 10
86.3121
 20
5.56924
 11
86.6123
 21
5.4782
  0
LINE
  8
0
 10
86.6123
 20
5.4782
 11
86.8889
 21
5.33034
  0
LINE
  8
0
 10
86.8889
 20
5.33034
 11
87.1314
 21
5.13136
  0
LINE
  8
0
 10
87.1314
 20
5.13136
 11
87.3303
 21
4.8889
  0
LINE
  8
0
 10
87.3303
 20
4.8889
 11
87.4782
 21
4.61229
  0
LINE
  8
0
 10
87.4782
 20
4.61229
 11
87.5692
 21
4.31213
  0
LINE
  8
0
 10
87.5692
 20
4.31213
 11
87.6
 21
4
  0
LINE
  8
0
 10
87.6
 20
4
 11
87.5692
 21
3.68785
  0
LINE
  8
0
 10
87.5692
 20
3.68785
 11
87.4782
 21
3.3877
  0
LINE
  8
0
 10
87.4782
 20
3.3877
 11
87.3303
 21
3.11108
  0
LINE
  8
0
 10
87.3303
 20
3.11108
 11
87.1314
 21
2.86862
  0
LINE
  8
0
 10
87.1314
 20
2.86862
 11
86.8889
 21
2.66965
  0
LINE
  8
0
 10
86.8889
 20
2.66965
 11
86.6123
 21
2.52179
  0
LINE
  8
0
 10
86.6123
 20
2.52179
 11
86.3121
 21
2.43074
  0
LINE
  8
0
 10
86.3121
 20
2.43074
 11
86
 21
2.39999
  0
LINE
  8
0
 10
86
 20
2.39999
 11
85.6879
 21
2.43074
  0
ENDSEC
  0
SECTION
  2
OBJECTS
  0
DICTIONARY
  0
ENDSEC
  0
EOF
