  0
SECTION
  2
BLOCKS
  0
ENDSEC
  0
SECTION
  2
ENTITIES
  0
LINE
  8
0
 10
55.1438
 20
31.8563
 11
56.457
 21
32.2547
  0
LINE
  8
0
 10
56.457
 20
32.2547
 11
57.6672
 21
32.9016
  0
LINE
  8
0
 10
57.6672
 20
32.9016
 11
58.7279
 21
33.7721
  0
LINE
  8
0
 10
58.7279
 20
33.7721
 11
59.5984
 21
34.8328
  0
LINE
  8
0
 10
59.5984
 20
34.8328
 11
60.2453
 21
36.043
  0
LINE
  8
0
 10
60.2453
 20
36.043
 11
60.6437
 21
37.3562
  0
LINE
  8
0
 10
60.6437
 20
37.3562
 11
60.7782
 21
38.7218
  0
LINE
  8
0
 10
60.7782
 20
38.7218
 11
60.6437
 21
40.0875
  0
LINE
  8
0
 10
60.6437
 20
40.0875
 11
60.2453
 21
41.4006
  0
LINE
  8
0
 10
60.2453
 20
41.4006
 11
59.5984
 21
42.6108
  0
LINE
  8
0
 10
59.5984
 20
42.6108
 11
58.7279
 21
43.6716
  0
LINE
  8
0
 10
58.7279
 20
43.6716
 11
57.6672
 21
44.5421
  0
LINE
  8
0
 10
57.6672
 20
44.5421
 11
57.5563
 21
44.6013
  0
LINE
  8
0
 10
57.5563
 20
44.6013
 11
57.5563
 21
44.6184
  0
LINE
  8
0
 10
57.5563
 20
44.6184
 11
57.3122
 21
44.8089
  0
LINE
  8
0
 10
57.3122
 20
44.8089
 11
56.9304
 21
45.1382
  0
LINE
  8
0
 10
56.9304
 20
45.1382
 11
56.5652
 21
45.4859
  0
LINE
  8
0
 10
56.5652
 20
45.4859
 11
56.3138
 21
45.75
  0
LINE
  8
0
 10
56.3138
 20
45.75
 11
46
 21
45.75
  0
LINE
  8
0
 10
46
 20
45.75
 11
46
 21
59.75
  0
LINE
  8
0
 10
46
 20
59.75
 11
56.3138
 21
59.75
  0
LINE
  8
0
 10
56.3138
 20
59.75
 11
56.5652
 21
60.0141
  0
LINE
  8
0
 10
56.5652
 20
60.0141
 11
56.9304
 21
60.3618
  0
LINE
  8
0
 10
56.9304
 20
60.3618
 11
57.3122
 21
60.6911
  0
LINE
  8
0
 10
57.3122
 20
60.6911
 11
57.5563
 21
60.8816
  0
LINE
  8
0
 10
57.5563
 20
60.8816
 11
57.5563
 21
60.8987
  0
LINE
  8
0
 10
57.5563
 20
60.8987
 11
57.6672
 21
60.9579
  0
LINE
  8
0
 10
57.6672
 20
60.9579
 11
58.7279
 21
61.8284
  0
LINE
  8
0
 10
58.7279
 20
61.8284
 11
59.5984
 21
62.8892
  0
LINE
  8
0
 10
59.5984
 20
62.8892
 11
60.2453
 21
64.0994
  0
LINE
  8
0
 10
60.2453
 20
64.0994
 11
60.6437
 21
65.4125
  0
LINE
  8
0
 10
60.6437
 20
65.4125
 11
60.7782
 21
66.7782
  0
LINE
  8
0
 10
60.7782
 20
66.7782
 11
60.6437
 21
68.1438
  0
LINE
  8
0
 10
60.6437
 20
68.1438
 11
60.2453
 21
69.457
  0
LINE
  8
0
 10
60.2453
 20
69.457
 11
59.5984
 21
70.6672
  0
LINE
  8
0
 10
59.5984
 20
70.6672
 11
58.7279
 21
71.7279
  0
LINE
  8
0
 10
58.7279
 20
71.7279
 11
57.6672
 21
72.5984
  0
LINE
  8
0
 10
57.6672
 20
72.5984
 11
56.457
 21
73.2453
  0
LINE
  8
0
 10
56.457
 20
73.2453
 11
55.1438
 21
73.6437
  0
LINE
  8
0
 10
55.1438
 20
73.6437
 11
53.7782
 21
73.7782
  0
LINE
  8
0
 10
53.7782
 20
73.7782
 11
52.4125
 21
73.6437
  0
LINE
  8
0
 10
52.4125
 20
73.6437
 11
51.0994
 21
73.2453
  0
LINE
  8
0
 10
51.0994
 20
73.2453
 11
49.8892
 21
72.5984
  0
LINE
  8
0
 10
49.8892
 20
72.5984
 11
48.8284
 21
71.7279
  0
LINE
  8
0
 10
48.8284
 20
71.7279
 11
47.9579
 21
70.6672
  0
LINE
  8
0
 10
47.9579
 20
70.6672
 11
47.8987
 21
70.5563
  0
LINE
  8
0
 10
47.8987
 20
70.5563
 11
47.8801
 21
70.5563
  0
LINE
  8
0
 10
47.8801
 20
70.5563
 11
47.7291
 21
70.5002
  0
LINE
  8
0
 10
47.7291
 20
70.5002
 11
46.1633
 21
69.9615
  0
LINE
  8
0
 10
46.1633
 20
69.9615
 11
44.5847
 21
69.4615
  0
LINE
  8
0
 10
44.5847
 20
69.4615
 11
42.9944
 21
69.0003
  0
LINE
  8
0
 10
42.9944
 20
69.0003
 11
41.3932
 21
68.5783
  0
LINE
  8
0
 10
41.3932
 20
68.5783
 11
39.7822
 21
68.1956
  0
LINE
  8
0
 10
39.7822
 20
68.1956
 11
38.1622
 21
67.8527
  0
LINE
  8
0
 10
38.1622
 20
67.8527
 11
36.5343
 21
67.5496
  0
LINE
  8
0
 10
36.5343
 20
67.5496
 11
34.8995
 21
67.2866
  0
LINE
  8
0
 10
34.8995
 20
67.2866
 11
33.2587
 21
67.0637
  0
LINE
  8
0
 10
33.2587
 20
67.0637
 11
31.613
 21
66.8812
  0
LINE
  8
0
 10
31.613
 20
66.8812
 11
29.9632
 21
66.7392
  0
LINE
  8
0
 10
29.9632
 20
66.7392
 11
28.3105
 21
66.6376
  0
LINE
  8
0
 10
28.3105
 20
66.6376
 11
26.6557
 21
66.5767
  0
LINE
  8
0
 10
26.6557
 20
66.5767
 11
25
 21
66.5563
  0
LINE
  8
0
 10
25
 20
66.5563
 11
23.3443
 21
66.5767
  0
LINE
  8
0
 10
23.3443
 20
66.5767
 11
21.6895
 21
66.6376
  0
LINE
  8
0
 10
21.6895
 20
66.6376
 11
20.0368
 21
66.7392
  0
LINE
  8
0
 10
20.0368
 20
66.7392
 11
18.387
 21
66.8812
  0
LINE
  8
0
 10
18.387
 20
66.8812
 11
16.7413
 21
67.0637
  0
LINE
  8
0
 10
16.7413
 20
67.0637
 11
15.1005
 21
67.2866
  0
LINE
  8
0
 10
15.1005
 20
67.2866
 11
13.4656
 21
67.5496
  0
LINE
  8
0
 10
13.4656
 20
67.5496
 11
11.8378
 21
67.8527
  0
LINE
  8
0
 10
11.8378
 20
67.8527
 11
10.2178
 21
68.1956
  0
LINE
  8
0
 10
10.2178
 20
68.1956
 11
8.60675
 21
68.5783
  0
LINE
  8
0
 10
8.60675
 20
68.5783
 11
7.00557
 21
69.0003
  0
LINE
  8
0
 10
7.00557
 20
69.0003
 11
5.41524
 21
69.4615
  0
LINE
  8
0
 10
5.41524
 20
69.4615
 11
3.8367
 21
69.9615
  0
LINE
  8
0
 10
3.8367
 20
69.9615
 11
2.2709
 21
70.5002
  0
LINE
  8
0
 10
2.2709
 20
70.5002
 11
2.11992
 21
70.5563
  0
LINE
  8
0
 10
2.11992
 20
70.5563
 11
2.10133
 21
70.5563
  0
LINE
  8
0
 10
2.10133
 20
70.5563
 11
2.0421
 21
70.6672
  0
LINE
  8
0
 10
2.0421
 20
70.6672
 11
1.17157
 21
71.7279
  0
LINE
  8
0
 10
1.17157
 20
71.7279
 11
0.110809
 21
72.5984
  0
LINE
  8
0
 10
0.110809
 20
72.5984
 11
-1.09938
 21
73.2453
  0
LINE
  8
0
 10
-1.09938
 20
73.2453
 11
-2.41254
 21
73.6437
  0
LINE
  8
0
 10
-2.41254
 20
73.6437
 11
-3.77817
 21
73.7782
  0
LINE
  8
0
 10
-3.77817
 20
73.7782
 11
-5.1438
 21
73.6437
  0
LINE
  8
0
 10
-5.1438
 20
73.6437
 11
-6.45695
 21
73.2453
  0
LINE
  8
0
 10
-6.45695
 20
73.2453
 11
-7.66716
 21
72.5984
  0
LINE
  8
0
 10
-7.66716
 20
72.5984
 11
-8.72792
 21
71.7279
  0
LINE
  8
0
 10
-8.72792
 20
71.7279
 11
-9.59845
 21
70.6672
  0
LINE
  8
0
 10
-9.59845
 20
70.6672
 11
-10.2453
 21
69.457
  0
LINE
  8
0
 10
-10.2453
 20
69.457
 11
-10.6437
 21
68.1438
  0
LINE
  8
0
 10
-10.6437
 20
68.1438
 11
-10.7782
 21
66.7782
  0
LINE
  8
0
 10
-10.7782
 20
66.7782
 11
-10.6437
 21
65.4125
  0
LINE
  8
0
 10
-10.6437
 20
65.4125
 11
-10.2453
 21
64.0994
  0
LINE
  8
0
 10
-10.2453
 20
64.0994
 11
-9.59845
 21
62.8892
  0
LINE
  8
0
 10
-9.59845
 20
62.8892
 11
-8.72792
 21
61.8284
  0
LINE
  8
0
 10
-8.72792
 20
61.8284
 11
-7.66716
 21
60.9579
  0
LINE
  8
0
 10
-7.66716
 20
60.9579
 11
-7.55634
 21
60.8987
  0
LINE
  8
0
 10
-7.55634
 20
60.8987
 11
-7.55634
 21
60.8816
  0
LINE
  8
0
 10
-7.55634
 20
60.8816
 11
-7.31221
 21
60.6911
  0
LINE
  8
0
 10
-7.31221
 20
60.6911
 11
-6.9304
 21
60.3618
  0
LINE
  8
0
 10
-6.9304
 20
60.3618
 11
-6.56523
 21
60.0141
  0
LINE
  8
0
 10
-6.56523
 20
60.0141
 11
-6.21754
 21
59.6489
  0
LINE
  8
0
 10
-6.21754
 20
59.6489
 11
-5.8882
 21
59.2671
  0
LINE
  8
0
 10
-5.8882
 20
59.2671
 11
-5.57799
 21
58.8696
  0
LINE
  8
0
 10
-5.57799
 20
58.8696
 11
-5.49376
 21
58.75
  0
LINE
  8
0
 10
-5.49376
 20
58.75
 11
-1
 21
58.75
  0
LINE
  8
0
 10
-1
 20
58.75
 11
-1
 21
46.75
  0
LINE
  8
0
 10
-1
 20
46.75
 11
-5.49374
 21
46.75
  0
LINE
  8
0
 10
-5.49374
 20
46.75
 11
-5.57799
 21
46.6304
  0
LINE
  8
0
 10
-5.57799
 20
46.6304
 11
-5.8882
 21
46.2329
  0
LINE
  8
0
 10
-5.8882
 20
46.2329
 11
-6.21754
 21
45.8511
  0
LINE
  8
0
 10
-6.21754
 20
45.8511
 11
-6.56523
 21
45.4859
  0
LINE
  8
0
 10
-6.56523
 20
45.4859
 11
-6.9304
 21
45.1382
  0
LINE
  8
0
 10
-6.9304
 20
45.1382
 11
-7.31221
 21
44.8089
  0
LINE
  8
0
 10
-7.31221
 20
44.8089
 11
-7.55634
 21
44.6184
  0
LINE
  8
0
 10
-7.55634
 20
44.6184
 11
-7.55634
 21
44.6013
  0
LINE
  8
0
 10
-7.55634
 20
44.6013
 11
-7.66716
 21
44.5421
  0
LINE
  8
0
 10
-7.66716
 20
44.5421
 11
-8.72792
 21
43.6716
  0
LINE
  8
0
 10
-8.72792
 20
43.6716
 11
-9.59845
 21
42.6108
  0
LINE
  8
0
 10
-9.59845
 20
42.6108
 11
-10.2453
 21
41.4006
  0
LINE
  8
0
 10
-10.2453
 20
41.4006
 11
-10.6437
 21
40.0875
  0
LINE
  8
0
 10
-10.6437
 20
40.0875
 11
-10.7782
 21
38.7218
  0
LINE
  8
0
 10
-10.7782
 20
38.7218
 11
-10.6437
 21
37.3562
  0
LINE
  8
0
 10
-10.6437
 20
37.3562
 11
-10.2453
 21
36.043
  0
LINE
  8
0
 10
-10.2453
 20
36.043
 11
-9.59845
 21
34.8328
  0
LINE
  8
0
 10
-9.59845
 20
34.8328
 11
-8.72792
 21
33.7721
  0
LINE
  8
0
 10
-8.72792
 20
33.7721
 11
-7.66716
 21
32.9016
  0
LINE
  8
0
 10
-7.66716
 20
32.9016
 11
-6.45695
 21
32.2547
  0
LINE
  8
0
 10
-6.45695
 20
32.2547
 11
-5.1438
 21
31.8563
  0
LINE
  8
0
 10
-5.1438
 20
31.8563
 11
-3.77817
 21
31.7218
  0
LINE
  8
0
 10
-3.77817
 20
31.7218
 11
-2.41254
 21
31.8563
  0
LINE
  8
0
 10
-2.41254
 20
31.8563
 11
-1.09938
 21
32.2547
  0
LINE
  8
0
 10
-1.09938
 20
32.2547
 11
0.110809
 21
32.9016
  0
LINE
  8
0
 10
0.110809
 20
32.9016
 11
1.17157
 21
33.7721
  0
LINE
  8
0
 10
1.17157
 20
33.7721
 11
2.0421
 21
34.8328
  0
LINE
  8
0
 10
2.0421
 20
34.8328
 11
2.10133
 21
34.9437
  0
LINE
  8
0
 10
2.10133
 20
34.9437
 11
2.11992
 21
34.9437
  0
LINE
  8
0
 10
2.11992
 20
34.9437
 11
2.2709
 21
34.9998
  0
LINE
  8
0
 10
2.2709
 20
34.9998
 11
3.8367
 21
35.5385
  0
LINE
  8
0
 10
3.8367
 20
35.5385
 11
5.41524
 21
36.0385
  0
LINE
  8
0
 10
5.41524
 20
36.0385
 11
7.00557
 21
36.4997
  0
LINE
  8
0
 10
7.00557
 20
36.4997
 11
8.60675
 21
36.9217
  0
LINE
  8
0
 10
8.60675
 20
36.9217
 11
10.2178
 21
37.3044
  0
LINE
  8
0
 10
10.2178
 20
37.3044
 11
11.8378
 21
37.6473
  0
LINE
  8
0
 10
11.8378
 20
37.6473
 11
13.4656
 21
37.9504
  0
LINE
  8
0
 10
13.4656
 20
37.9504
 11
15.1005
 21
38.2134
  0
LINE
  8
0
 10
15.1005
 20
38.2134
 11
16.7413
 21
38.4363
  0
LINE
  8
0
 10
16.7413
 20
38.4363
 11
18.387
 21
38.6188
  0
LINE
  8
0
 10
18.387
 20
38.6188
 11
20.0368
 21
38.7608
  0
LINE
  8
0
 10
20.0368
 20
38.7608
 11
21.6895
 21
38.8624
  0
LINE
  8
0
 10
21.6895
 20
38.8624
 11
23.3443
 21
38.9233
  0
LINE
  8
0
 10
23.3443
 20
38.9233
 11
25
 21
38.9437
  0
LINE
  8
0
 10
25
 20
38.9437
 11
26.6557
 21
38.9233
  0
LINE
  8
0
 10
26.6557
 20
38.9233
 11
28.3105
 21
38.8624
  0
LINE
  8
0
 10
28.3105
 20
38.8624
 11
29.9632
 21
38.7608
  0
LINE
  8
0
 10
29.9632
 20
38.7608
 11
31.613
 21
38.6188
  0
LINE
  8
0
 10
31.613
 20
38.6188
 11
33.2587
 21
38.4363
  0
LINE
  8
0
 10
33.2587
 20
38.4363
 11
34.8995
 21
38.2134
  0
LINE
  8
0
 10
34.8995
 20
38.2134
 11
36.5343
 21
37.9504
  0
LINE
  8
0
 10
36.5343
 20
37.9504
 11
38.1622
 21
37.6473
  0
LINE
  8
0
 10
38.1622
 20
37.6473
 11
39.7822
 21
37.3044
  0
LINE
  8
0
 10
39.7822
 20
37.3044
 11
41.3932
 21
36.9217
  0
LINE
  8
0
 10
41.3932
 20
36.9217
 11
42.9944
 21
36.4997
  0
LINE
  8
0
 10
42.9944
 20
36.4997
 11
44.5847
 21
36.0385
  0
LINE
  8
0
 10
44.5847
 20
36.0385
 11
46.1633
 21
35.5385
  0
LINE
  8
0
 10
46.1633
 20
35.5385
 11
47.7291
 21
34.9998
  0
LINE
  8
0
 10
47.7291
 20
34.9998
 11
47.8801
 21
34.9437
  0
LINE
  8
0
 10
47.8801
 20
34.9437
 11
47.8987
 21
34.9437
  0
LINE
  8
0
 10
47.8987
 20
34.9437
 11
47.9579
 21
34.8328
  0
LINE
  8
0
 10
47.9579
 20
34.8328
 11
48.8284
 21
33.7721
  0
LINE
  8
0
 10
48.8284
 20
33.7721
 11
49.8892
 21
32.9016
  0
LINE
  8
0
 10
49.8892
 20
32.9016
 11
51.0994
 21
32.2547
  0
LINE
  8
0
 10
51.0994
 20
32.2547
 11
52.4125
 21
31.8563
  0
LINE
  8
0
 10
52.4125
 20
31.8563
 11
53.7782
 21
31.7218
  0
LINE
  8
0
 10
53.7782
 20
31.7218
 11
55.1438
 21
31.8563
  0
LINE
  8
0
 10
-4.09032
 20
65.2089
 11
-4.39046
 21
65.3
  0
LINE
  8
0
 10
-4.39046
 20
65.3
 11
-4.66708
 21
65.4478
  0
LINE
  8
0
 10
-4.66708
 20
65.4478
 11
-4.90953
 21
65.6468
  0
LINE
  8
0
 10
-4.90953
 20
65.6468
 11
-5.10852
 21
65.8893
  0
LINE
  8
0
 10
-5.10852
 20
65.8893
 11
-5.25638
 21
66.1659
  0
LINE
  8
0
 10
-5.25638
 20
66.1659
 11
-5.34743
 21
66.466
  0
LINE
  8
0
 10
-5.34743
 20
66.466
 11
-5.37817
 21
66.7782
  0
LINE
  8
0
 10
-5.37817
 20
66.7782
 11
-5.34743
 21
67.0903
  0
LINE
  8
0
 10
-5.34743
 20
67.0903
 11
-5.25638
 21
67.3905
  0
LINE
  8
0
 10
-5.25638
 20
67.3905
 11
-5.10852
 21
67.6671
  0
LINE
  8
0
 10
-5.10852
 20
67.6671
 11
-4.90953
 21
67.9095
  0
LINE
  8
0
 10
-4.90953
 20
67.9095
 11
-4.66708
 21
68.1085
  0
LINE
  8
0
 10
-4.66708
 20
68.1085
 11
-4.39046
 21
68.2564
  0
LINE
  8
0
 10
-4.39046
 20
68.2564
 11
-4.09032
 21
68.3474
  0
LINE
  8
0
 10
-4.09032
 20
68.3474
 11
-3.77817
 21
68.3782
  0
LINE
  8
0
 10
-3.77817
 20
68.3782
 11
-3.46602
 21
68.3474
  0
LINE
  8
0
 10
-3.46602
 20
68.3474
 11
-3.16588
 21
68.2564
  0
LINE
  8
0
 10
-3.16588
 20
68.2564
 11
-2.88925
 21
68.1085
  0
LINE
  8
0
 10
-2.88925
 20
68.1085
 11
-2.64679
 21
67.9095
  0
LINE
  8
0
 10
-2.64679
 20
67.9095
 11
-2.44781
 21
67.6671
  0
LINE
  8
0
 10
-2.44781
 20
67.6671
 11
-2.29996
 21
67.3905
  0
LINE
  8
0
 10
-2.29996
 20
67.3905
 11
-2.20891
 21
67.0903
  0
LINE
  8
0
 10
-2.20891
 20
67.0903
 11
-2.17816
 21
66.7782
  0
LINE
  8
0
 10
-2.17816
 20
66.7782
 11
-2.20891
 21
66.466
  0
LINE
  8
0
 10
-2.20891
 20
66.466
 11
-2.29996
 21
66.1659
  0
LINE
  8
0
 10
-2.29996
 20
66.1659
 11
-2.44781
 21
65.8893
  0
LINE
  8
0
 10
-2.44781
 20
65.8893
 11
-2.64679
 21
65.6468
  0
LINE
  8
0
 10
-2.64679
 20
65.6468
 11
-2.88925
 21
65.4478
  0
LINE
  8
0
 10
-2.88925
 20
65.4478
 11
-3.16588
 21
65.3
  0
LINE
  8
0
 10
-3.16588
 20
65.3
 11
-3.46602
 21
65.2089
  0
LINE
  8
0
 10
-3.46602
 20
65.2089
 11
-3.77817
 21
65.1782
  0
LINE
  8
0
 10
-3.77817
 20
65.1782
 11
-4.09032
 21
65.2089
  0
LINE
  8
0
 10
53.466
 20
65.2089
 11
53.1659
 21
65.3
  0
LINE
  8
0
 10
53.1659
 20
65.3
 11
52.8893
 21
65.4478
  0
LINE
  8
0
 10
52.8893
 20
65.4478
 11
52.6468
 21
65.6468
  0
LINE
  8
0
 10
52.6468
 20
65.6468
 11
52.4478
 21
65.8893
  0
LINE
  8
0
 10
52.4478
 20
65.8893
 11
52.3
 21
66.1659
  0
LINE
  8
0
 10
52.3
 20
66.1659
 11
52.2089
 21
66.466
  0
LINE
  8
0
 10
52.2089
 20
66.466
 11
52.1782
 21
66.7782
  0
LINE
  8
0
 10
52.1782
 20
66.7782
 11
52.2089
 21
67.0903
  0
LINE
  8
0
 10
52.2089
 20
67.0903
 11
52.3
 21
67.3905
  0
LINE
  8
0
 10
52.3
 20
67.3905
 11
52.4478
 21
67.6671
  0
LINE
  8
0
 10
52.4478
 20
67.6671
 11
52.6468
 21
67.9095
  0
LINE
  8
0
 10
52.6468
 20
67.9095
 11
52.8893
 21
68.1085
  0
LINE
  8
0
 10
52.8893
 20
68.1085
 11
53.1659
 21
68.2564
  0
LINE
  8
0
 10
53.1659
 20
68.2564
 11
53.466
 21
68.3474
  0
LINE
  8
0
 10
53.466
 20
68.3474
 11
53.7782
 21
68.3782
  0
LINE
  8
0
 10
53.7782
 20
68.3782
 11
54.0903
 21
68.3474
  0
LINE
  8
0
 10
54.0903
 20
68.3474
 11
54.3905
 21
68.2564
  0
LINE
  8
0
 10
54.3905
 20
68.2564
 11
54.6671
 21
68.1085
  0
LINE
  8
0
 10
54.6671
 20
68.1085
 11
54.9095
 21
67.9095
  0
LINE
  8
0
 10
54.9095
 20
67.9095
 11
55.1085
 21
67.6671
  0
LINE
  8
0
 10
55.1085
 20
67.6671
 11
55.2564
 21
67.3905
  0
LINE
  8
0
 10
55.2564
 20
67.3905
 11
55.3474
 21
67.0903
  0
LINE
  8
0
 10
55.3474
 20
67.0903
 11
55.3782
 21
66.7782
  0
LINE
  8
0
 10
55.3782
 20
66.7782
 11
55.3474
 21
66.466
  0
LINE
  8
0
 10
55.3474
 20
66.466
 11
55.2564
 21
66.1659
  0
LINE
  8
0
 10
55.2564
 20
66.1659
 11
55.1085
 21
65.8893
  0
LINE
  8
0
 10
55.1085
 20
65.8893
 11
54.9095
 21
65.6468
  0
LINE
  8
0
 10
54.9095
 20
65.6468
 11
54.6671
 21
65.4478
  0
LINE
  8
0
 10
54.6671
 20
65.4478
 11
54.3905
 21
65.3
  0
LINE
  8
0
 10
54.3905
 20
65.3
 11
54.0903
 21
65.2089
  0
LINE
  8
0
 10
54.0903
 20
65.2089
 11
53.7782
 21
65.1782
  0
LINE
  8
0
 10
53.7782
 20
65.1782
 11
53.466
 21
65.2089
  0
LINE
  8
0
 10
26
 20
42.5
 11
26
 21
46.5
  0
LINE
  8
0
 10
26
 20
46.5
 11
40
 21
46.5
  0
LINE
  8
0
 10
40
 20
46.5
 11
40
 21
42.5
  0
LINE
  8
0
 10
40
 20
42.5
 11
26
 21
42.5
  0
LINE
  8
0
 10
-4.09032
 20
37.1526
 11
-4.39046
 21
37.2436
  0
LINE
  8
0
 10
-4.39046
 20
37.2436
 11
-4.66708
 21
37.3915
  0
LINE
  8
0
 10
-4.66708
 20
37.3915
 11
-4.90953
 21
37.5905
  0
LINE
  8
0
 10
-4.90953
 20
37.5905
 11
-5.10852
 21
37.8329
  0
LINE
  8
0
 10
-5.10852
 20
37.8329
 11
-5.25638
 21
38.1095
  0
LINE
  8
0
 10
-5.25638
 20
38.1095
 11
-5.34743
 21
38.4097
  0
LINE
  8
0
 10
-5.34743
 20
38.4097
 11
-5.37817
 21
38.7218
  0
LINE
  8
0
 10
-5.37817
 20
38.7218
 11
-5.34743
 21
39.034
  0
LINE
  8
0
 10
-5.34743
 20
39.034
 11
-5.25638
 21
39.3341
  0
LINE
  8
0
 10
-5.25638
 20
39.3341
 11
-5.10852
 21
39.6107
  0
LINE
  8
0
 10
-5.10852
 20
39.6107
 11
-4.90953
 21
39.8532
  0
LINE
  8
0
 10
-4.90953
 20
39.8532
 11
-4.66708
 21
40.0522
  0
LINE
  8
0
 10
-4.66708
 20
40.0522
 11
-4.39046
 21
40.2
  0
LINE
  8
0
 10
-4.39046
 20
40.2
 11
-4.09032
 21
40.2911
  0
LINE
  8
0
 10
-4.09032
 20
40.2911
 11
-3.77817
 21
40.3218
  0
LINE
  8
0
 10
-3.77817
 20
40.3218
 11
-3.46602
 21
40.2911
  0
LINE
  8
0
 10
-3.46602
 20
40.2911
 11
-3.16588
 21
40.2
  0
LINE
  8
0
 10
-3.16588
 20
40.2
 11
-2.88925
 21
40.0522
  0
LINE
  8
0
 10
-2.88925
 20
40.0522
 11
-2.64679
 21
39.8532
  0
LINE
  8
0
 10
-2.64679
 20
39.8532
 11
-2.44781
 21
39.6107
  0
LINE
  8
0
 10
-2.44781
 20
39.6107
 11
-2.29996
 21
39.3341
  0
LINE
  8
0
 10
-2.29996
 20
39.3341
 11
-2.20891
 21
39.034
  0
LINE
  8
0
 10
-2.20891
 20
39.034
 11
-2.17816
 21
38.7218
  0
LINE
  8
0
 10
-2.17816
 20
38.7218
 11
-2.20891
 21
38.4097
  0
LINE
  8
0
 10
-2.20891
 20
38.4097
 11
-2.29996
 21
38.1095
  0
LINE
  8
0
 10
-2.29996
 20
38.1095
 11
-2.44781
 21
37.8329
  0
LINE
  8
0
 10
-2.44781
 20
37.8329
 11
-2.64679
 21
37.5905
  0
LINE
  8
0
 10
-2.64679
 20
37.5905
 11
-2.88925
 21
37.3915
  0
LINE
  8
0
 10
-2.88925
 20
37.3915
 11
-3.16588
 21
37.2436
  0
LINE
  8
0
 10
-3.16588
 20
37.2436
 11
-3.46602
 21
37.1526
  0
LINE
  8
0
 10
-3.46602
 20
37.1526
 11
-3.77817
 21
37.1218
  0
LINE
  8
0
 10
-3.77817
 20
37.1218
 11
-4.09032
 21
37.1526
  0
LINE
  8
0
 10
53.466
 20
37.1526
 11
53.1659
 21
37.2436
  0
LINE
  8
0
 10
53.1659
 20
37.2436
 11
52.8893
 21
37.3915
  0
LINE
  8
0
 10
52.8893
 20
37.3915
 11
52.6468
 21
37.5905
  0
LINE
  8
0
 10
52.6468
 20
37.5905
 11
52.4478
 21
37.8329
  0
LINE
  8
0
 10
52.4478
 20
37.8329
 11
52.3
 21
38.1095
  0
LINE
  8
0
 10
52.3
 20
38.1095
 11
52.2089
 21
38.4097
  0
LINE
  8
0
 10
52.2089
 20
38.4097
 11
52.1782
 21
38.7218
  0
LINE
  8
0
 10
52.1782
 20
38.7218
 11
52.2089
 21
39.034
  0
LINE
  8
0
 10
52.2089
 20
39.034
 11
52.3
 21
39.3341
  0
LINE
  8
0
 10
52.3
 20
39.3341
 11
52.4478
 21
39.6107
  0
LINE
  8
0
 10
52.4478
 20
39.6107
 11
52.6468
 21
39.8532
  0
LINE
  8
0
 10
52.6468
 20
39.8532
 11
52.8893
 21
40.0522
  0
LINE
  8
0
 10
52.8893
 20
40.0522
 11
53.1659
 21
40.2
  0
LINE
  8
0
 10
53.1659
 20
40.2
 11
53.466
 21
40.2911
  0
LINE
  8
0
 10
53.466
 20
40.2911
 11
53.7782
 21
40.3218
  0
LINE
  8
0
 10
53.7782
 20
40.3218
 11
54.0903
 21
40.2911
  0
LINE
  8
0
 10
54.0903
 20
40.2911
 11
54.3905
 21
40.2
  0
LINE
  8
0
 10
54.3905
 20
40.2
 11
54.6671
 21
40.0522
  0
LINE
  8
0
 10
54.6671
 20
40.0522
 11
54.9095
 21
39.8532
  0
LINE
  8
0
 10
54.9095
 20
39.8532
 11
55.1085
 21
39.6107
  0
LINE
  8
0
 10
55.1085
 20
39.6107
 11
55.2564
 21
39.3341
  0
LINE
  8
0
 10
55.2564
 20
39.3341
 11
55.3474
 21
39.034
  0
LINE
  8
0
 10
55.3474
 20
39.034
 11
55.3782
 21
38.7218
  0
LINE
  8
0
 10
55.3782
 20
38.7218
 11
55.3474
 21
38.4097
  0
LINE
  8
0
 10
55.3474
 20
38.4097
 11
55.2564
 21
38.1095
  0
LINE
  8
0
 10
55.2564
 20
38.1095
 11
55.1085
 21
37.8329
  0
LINE
  8
0
 10
55.1085
 20
37.8329
 11
54.9095
 21
37.5905
  0
LINE
  8
0
 10
54.9095
 20
37.5905
 11
54.6671
 21
37.3915
  0
LINE
  8
0
 10
54.6671
 20
37.3915
 11
54.3905
 21
37.2436
  0
LINE
  8
0
 10
54.3905
 20
37.2436
 11
54.0903
 21
37.1526
  0
LINE
  8
0
 10
54.0903
 20
37.1526
 11
53.7782
 21
37.1218
  0
LINE
  8
0
 10
53.7782
 20
37.1218
 11
53.466
 21
37.1526
  0
LINE
  8
0
 10
55.1438
 20
-10.6437
 11
56.457
 21
-10.2453
  0
LINE
  8
0
 10
56.457
 20
-10.2453
 11
57.6672
 21
-9.59845
  0
LINE
  8
0
 10
57.6672
 20
-9.59845
 11
58.7279
 21
-8.72792
  0
LINE
  8
0
 10
58.7279
 20
-8.72792
 11
59.5984
 21
-7.66716
  0
LINE
  8
0
 10
59.5984
 20
-7.66716
 11
60.2453
 21
-6.45695
  0
LINE
  8
0
 10
60.2453
 20
-6.45695
 11
60.6437
 21
-5.1438
  0
LINE
  8
0
 10
60.6437
 20
-5.1438
 11
60.7782
 21
-3.77817
  0
LINE
  8
0
 10
60.7782
 20
-3.77817
 11
60.6437
 21
-2.41254
  0
LINE
  8
0
 10
60.6437
 20
-2.41254
 11
60.2453
 21
-1.09938
  0
LINE
  8
0
 10
60.2453
 20
-1.09938
 11
59.5984
 21
0.110809
  0
LINE
  8
0
 10
59.5984
 20
0.110809
 11
58.7279
 21
1.17157
  0
LINE
  8
0
 10
58.7279
 20
1.17157
 11
57.6672
 21
2.0421
  0
LINE
  8
0
 10
57.6672
 20
2.0421
 11
57.5563
 21
2.10133
  0
LINE
  8
0
 10
57.5563
 20
2.10133
 11
57.5563
 21
2.11836
  0
LINE
  8
0
 10
57.5563
 20
2.11836
 11
57.3122
 21
2.30887
  0
LINE
  8
0
 10
57.3122
 20
2.30887
 11
56.9304
 21
2.63821
  0
LINE
  8
0
 10
56.9304
 20
2.63821
 11
56.5652
 21
2.9859
  0
LINE
  8
0
 10
56.5652
 20
2.9859
 11
56.2175
 21
3.35107
  0
LINE
  8
0
 10
56.2175
 20
3.35107
 11
55.8882
 21
3.73288
  0
LINE
  8
0
 10
55.8882
 20
3.73288
 11
55.578
 21
4.13039
  0
LINE
  8
0
 10
55.578
 20
4.13039
 11
55.2877
 21
4.54263
  0
LINE
  8
0
 10
55.2877
 20
4.54263
 11
55.0179
 21
4.96863
  0
LINE
  8
0
 10
55.0179
 20
4.96863
 11
54.7694
 21
5.40733
  0
LINE
  8
0
 10
54.7694
 20
5.40733
 11
54.5427
 21
5.85773
  0
LINE
  8
0
 10
54.5427
 20
5.85773
 11
54.3383
 21
6.3187
  0
LINE
  8
0
 10
54.3383
 20
6.3187
 11
54.1569
 21
6.78912
  0
LINE
  8
0
 10
54.1569
 20
6.78912
 11
53.9987
 21
7.2679
  0
LINE
  8
0
 10
53.9987
 20
7.2679
 11
53.8642
 21
7.75386
  0
LINE
  8
0
 10
53.8642
 20
7.75386
 11
53.7537
 21
8.24583
  0
LINE
  8
0
 10
53.7537
 20
8.24583
 11
53.6675
 21
8.74263
  0
LINE
  8
0
 10
53.6675
 20
8.74263
 11
53.6058
 21
9.24306
  0
LINE
  8
0
 10
53.6058
 20
9.24306
 11
53.5687
 21
9.74593
  0
LINE
  8
0
 10
53.5687
 20
9.74593
 11
53.5563
 21
10.25
  0
LINE
  8
0
 10
53.5563
 20
10.25
 11
53.5687
 21
10.7541
  0
LINE
  8
0
 10
53.5687
 20
10.7541
 11
53.6058
 21
11.2569
  0
LINE
  8
0
 10
53.6058
 20
11.2569
 11
53.6675
 21
11.7574
  0
LINE
  8
0
 10
53.6675
 20
11.7574
 11
53.7537
 21
12.2542
  0
LINE
  8
0
 10
53.7537
 20
12.2542
 11
53.8642
 21
12.7461
  0
LINE
  8
0
 10
53.8642
 20
12.7461
 11
53.9987
 21
13.2321
  0
LINE
  8
0
 10
53.9987
 20
13.2321
 11
54.1569
 21
13.7109
  0
LINE
  8
0
 10
54.1569
 20
13.7109
 11
54.3383
 21
14.1813
  0
LINE
  8
0
 10
54.3383
 20
14.1813
 11
54.5427
 21
14.6423
  0
LINE
  8
0
 10
54.5427
 20
14.6423
 11
54.7694
 21
15.0927
  0
LINE
  8
0
 10
54.7694
 20
15.0927
 11
55.0179
 21
15.5314
  0
LINE
  8
0
 10
55.0179
 20
15.5314
 11
55.2877
 21
15.9574
  0
LINE
  8
0
 10
55.2877
 20
15.9574
 11
55.578
 21
16.3696
  0
LINE
  8
0
 10
55.578
 20
16.3696
 11
55.8882
 21
16.7671
  0
LINE
  8
0
 10
55.8882
 20
16.7671
 11
56.2175
 21
17.1489
  0
LINE
  8
0
 10
56.2175
 20
17.1489
 11
56.5652
 21
17.5141
  0
LINE
  8
0
 10
56.5652
 20
17.5141
 11
56.9304
 21
17.8618
  0
LINE
  8
0
 10
56.9304
 20
17.8618
 11
57.3122
 21
18.1911
  0
LINE
  8
0
 10
57.3122
 20
18.1911
 11
57.5563
 21
18.3816
  0
LINE
  8
0
 10
57.5563
 20
18.3816
 11
57.5563
 21
18.3987
  0
LINE
  8
0
 10
57.5563
 20
18.3987
 11
57.6672
 21
18.4579
  0
LINE
  8
0
 10
57.6672
 20
18.4579
 11
58.7279
 21
19.3284
  0
LINE
  8
0
 10
58.7279
 20
19.3284
 11
59.5984
 21
20.3892
  0
LINE
  8
0
 10
59.5984
 20
20.3892
 11
60.2453
 21
21.5994
  0
LINE
  8
0
 10
60.2453
 20
21.5994
 11
60.6437
 21
22.9125
  0
LINE
  8
0
 10
60.6437
 20
22.9125
 11
60.7782
 21
24.2782
  0
LINE
  8
0
 10
60.7782
 20
24.2782
 11
60.6437
 21
25.6438
  0
LINE
  8
0
 10
60.6437
 20
25.6438
 11
60.2453
 21
26.957
  0
LINE
  8
0
 10
60.2453
 20
26.957
 11
59.5984
 21
28.1672
  0
LINE
  8
0
 10
59.5984
 20
28.1672
 11
58.7279
 21
29.2279
  0
LINE
  8
0
 10
58.7279
 20
29.2279
 11
57.6672
 21
30.0984
  0
LINE
  8
0
 10
57.6672
 20
30.0984
 11
56.457
 21
30.7453
  0
LINE
  8
0
 10
56.457
 20
30.7453
 11
55.1438
 21
31.1437
  0
LINE
  8
0
 10
55.1438
 20
31.1437
 11
53.7782
 21
31.2782
  0
LINE
  8
0
 10
53.7782
 20
31.2782
 11
52.4125
 21
31.1437
  0
LINE
  8
0
 10
52.4125
 20
31.1437
 11
51.0994
 21
30.7453
  0
LINE
  8
0
 10
51.0994
 20
30.7453
 11
49.8892
 21
30.0984
  0
LINE
  8
0
 10
49.8892
 20
30.0984
 11
48.8284
 21
29.2279
  0
LINE
  8
0
 10
48.8284
 20
29.2279
 11
47.9579
 21
28.1672
  0
LINE
  8
0
 10
47.9579
 20
28.1672
 11
47.8987
 21
28.0563
  0
LINE
  8
0
 10
47.8987
 20
28.0563
 11
47.8801
 21
28.0563
  0
LINE
  8
0
 10
47.8801
 20
28.0563
 11
47.7291
 21
28.0002
  0
LINE
  8
0
 10
47.7291
 20
28.0002
 11
46.1633
 21
27.4615
  0
LINE
  8
0
 10
46.1633
 20
27.4615
 11
44.5847
 21
26.9615
  0
LINE
  8
0
 10
44.5847
 20
26.9615
 11
42.9944
 21
26.5003
  0
LINE
  8
0
 10
42.9944
 20
26.5003
 11
41.3932
 21
26.0783
  0
LINE
  8
0
 10
41.3932
 20
26.0783
 11
39.7822
 21
25.6956
  0
LINE
  8
0
 10
39.7822
 20
25.6956
 11
38.1622
 21
25.3527
  0
LINE
  8
0
 10
38.1622
 20
25.3527
 11
36.5343
 21
25.0496
  0
LINE
  8
0
 10
36.5343
 20
25.0496
 11
34.8995
 21
24.7866
  0
LINE
  8
0
 10
34.8995
 20
24.7866
 11
33.2587
 21
24.5637
  0
LINE
  8
0
 10
33.2587
 20
24.5637
 11
31.613
 21
24.3812
  0
LINE
  8
0
 10
31.613
 20
24.3812
 11
29.9632
 21
24.2392
  0
LINE
  8
0
 10
29.9632
 20
24.2392
 11
28.3105
 21
24.1376
  0
LINE
  8
0
 10
28.3105
 20
24.1376
 11
26.6557
 21
24.0767
  0
LINE
  8
0
 10
26.6557
 20
24.0767
 11
25
 21
24.0563
  0
LINE
  8
0
 10
25
 20
24.0563
 11
23.3443
 21
24.0767
  0
LINE
  8
0
 10
23.3443
 20
24.0767
 11
21.6895
 21
24.1376
  0
LINE
  8
0
 10
21.6895
 20
24.1376
 11
20.0368
 21
24.2392
  0
LINE
  8
0
 10
20.0368
 20
24.2392
 11
18.387
 21
24.3812
  0
LINE
  8
0
 10
18.387
 20
24.3812
 11
16.7413
 21
24.5637
  0
LINE
  8
0
 10
16.7413
 20
24.5637
 11
15.1005
 21
24.7866
  0
LINE
  8
0
 10
15.1005
 20
24.7866
 11
13.4656
 21
25.0496
  0
LINE
  8
0
 10
13.4656
 20
25.0496
 11
11.8378
 21
25.3527
  0
LINE
  8
0
 10
11.8378
 20
25.3527
 11
10.2178
 21
25.6956
  0
LINE
  8
0
 10
10.2178
 20
25.6956
 11
8.60675
 21
26.0783
  0
LINE
  8
0
 10
8.60675
 20
26.0783
 11
7.00557
 21
26.5003
  0
LINE
  8
0
 10
7.00557
 20
26.5003
 11
5.41524
 21
26.9615
  0
LINE
  8
0
 10
5.41524
 20
26.9615
 11
3.8367
 21
27.4615
  0
LINE
  8
0
 10
3.8367
 20
27.4615
 11
2.2709
 21
28.0002
  0
LINE
  8
0
 10
2.2709
 20
28.0002
 11
2.11992
 21
28.0563
  0
LINE
  8
0
 10
2.11992
 20
28.0563
 11
2.10133
 21
28.0563
  0
LINE
  8
0
 10
2.10133
 20
28.0563
 11
2.0421
 21
28.1672
  0
LINE
  8
0
 10
2.0421
 20
28.1672
 11
1.17157
 21
29.2279
  0
LINE
  8
0
 10
1.17157
 20
29.2279
 11
0.110809
 21
30.0984
  0
LINE
  8
0
 10
0.110809
 20
30.0984
 11
-1.09938
 21
30.7453
  0
LINE
  8
0
 10
-1.09938
 20
30.7453
 11
-2.41254
 21
31.1437
  0
LINE
  8
0
 10
-2.41254
 20
31.1437
 11
-3.77817
 21
31.2782
  0
LINE
  8
0
 10
-3.77817
 20
31.2782
 11
-5.1438
 21
31.1437
  0
LINE
  8
0
 10
-5.1438
 20
31.1437
 11
-6.45695
 21
30.7453
  0
LINE
  8
0
 10
-6.45695
 20
30.7453
 11
-7.66716
 21
30.0984
  0
LINE
  8
0
 10
-7.66716
 20
30.0984
 11
-8.72792
 21
29.2279
  0
LINE
  8
0
 10
-8.72792
 20
29.2279
 11
-9.59845
 21
28.1672
  0
LINE
  8
0
 10
-9.59845
 20
28.1672
 11
-10.2453
 21
26.957
  0
LINE
  8
0
 10
-10.2453
 20
26.957
 11
-10.6437
 21
25.6438
  0
LINE
  8
0
 10
-10.6437
 20
25.6438
 11
-10.7782
 21
24.2782
  0
LINE
  8
0
 10
-10.7782
 20
24.2782
 11
-10.6437
 21
22.9125
  0
LINE
  8
0
 10
-10.6437
 20
22.9125
 11
-10.2453
 21
21.5994
  0
LINE
  8
0
 10
-10.2453
 20
21.5994
 11
-9.59845
 21
20.3892
  0
LINE
  8
0
 10
-9.59845
 20
20.3892
 11
-8.72792
 21
19.3284
  0
LINE
  8
0
 10
-8.72792
 20
19.3284
 11
-7.66716
 21
18.4579
  0
LINE
  8
0
 10
-7.66716
 20
18.4579
 11
-7.55634
 21
18.3987
  0
LINE
  8
0
 10
-7.55634
 20
18.3987
 11
-7.55634
 21
18.3816
  0
LINE
  8
0
 10
-7.55634
 20
18.3816
 11
-7.31221
 21
18.1911
  0
LINE
  8
0
 10
-7.31221
 20
18.1911
 11
-6.9304
 21
17.8618
  0
LINE
  8
0
 10
-6.9304
 20
17.8618
 11
-6.56523
 21
17.5141
  0
LINE
  8
0
 10
-6.56523
 20
17.5141
 11
-6.21754
 21
17.1489
  0
LINE
  8
0
 10
-6.21754
 20
17.1489
 11
-5.8882
 21
16.7671
  0
LINE
  8
0
 10
-5.8882
 20
16.7671
 11
-5.57799
 21
16.3696
  0
LINE
  8
0
 10
-5.57799
 20
16.3696
 11
-5.49376
 21
16.25
  0
LINE
  8
0
 10
-5.49376
 20
16.25
 11
-1
 21
16.25
  0
LINE
  8
0
 10
-1
 20
16.25
 11
-1
 21
4.25
  0
LINE
  8
0
 10
-1
 20
4.25
 11
-5.49374
 21
4.25
  0
LINE
  8
0
 10
-5.49374
 20
4.25
 11
-5.57799
 21
4.13039
  0
LINE
  8
0
 10
-5.57799
 20
4.13039
 11
-5.8882
 21
3.73288
  0
LINE
  8
0
 10
-5.8882
 20
3.73288
 11
-6.21754
 21
3.35107
  0
LINE
  8
0
 10
-6.21754
 20
3.35107
 11
-6.56523
 21
2.9859
  0
LINE
  8
0
 10
-6.56523
 20
2.9859
 11
-6.9304
 21
2.63821
  0
LINE
  8
0
 10
-6.9304
 20
2.63821
 11
-7.31221
 21
2.30887
  0
LINE
  8
0
 10
-7.31221
 20
2.30887
 11
-7.55634
 21
2.11836
  0
LINE
  8
0
 10
-7.55634
 20
2.11836
 11
-7.55634
 21
2.10133
  0
LINE
  8
0
 10
-7.55634
 20
2.10133
 11
-7.66716
 21
2.0421
  0
LINE
  8
0
 10
-7.66716
 20
2.0421
 11
-8.72792
 21
1.17157
  0
LINE
  8
0
 10
-8.72792
 20
1.17157
 11
-9.59845
 21
0.110809
  0
LINE
  8
0
 10
-9.59845
 20
0.110809
 11
-10.2453
 21
-1.09938
  0
LINE
  8
0
 10
-10.2453
 20
-1.09938
 11
-10.6437
 21
-2.41254
  0
LINE
  8
0
 10
-10.6437
 20
-2.41254
 11
-10.7782
 21
-3.77817
  0
LINE
  8
0
 10
-10.7782
 20
-3.77817
 11
-10.6437
 21
-5.1438
  0
LINE
  8
0
 10
-10.6437
 20
-5.1438
 11
-10.2453
 21
-6.45695
  0
LINE
  8
0
 10
-10.2453
 20
-6.45695
 11
-9.59845
 21
-7.66716
  0
LINE
  8
0
 10
-9.59845
 20
-7.66716
 11
-8.72792
 21
-8.72792
  0
LINE
  8
0
 10
-8.72792
 20
-8.72792
 11
-7.66716
 21
-9.59845
  0
LINE
  8
0
 10
-7.66716
 20
-9.59845
 11
-6.45695
 21
-10.2453
  0
LINE
  8
0
 10
-6.45695
 20
-10.2453
 11
-5.1438
 21
-10.6437
  0
LINE
  8
0
 10
-5.1438
 20
-10.6437
 11
-3.77817
 21
-10.7782
  0
LINE
  8
0
 10
-3.77817
 20
-10.7782
 11
-2.41254
 21
-10.6437
  0
LINE
  8
0
 10
-2.41254
 20
-10.6437
 11
-1.09938
 21
-10.2453
  0
LINE
  8
0
 10
-1.09938
 20
-10.2453
 11
0.110809
 21
-9.59845
  0
LINE
  8
0
 10
0.110809
 20
-9.59845
 11
1.17157
 21
-8.72792
  0
LINE
  8
0
 10
1.17157
 20
-8.72792
 11
2.0421
 21
-7.66716
  0
LINE
  8
0
 10
2.0421
 20
-7.66716
 11
2.10133
 21
-7.55634
  0
LINE
  8
0
 10
2.10133
 20
-7.55634
 11
2.11992
 21
-7.55634
  0
LINE
  8
0
 10
2.11992
 20
-7.55634
 11
2.2709
 21
-7.50021
  0
LINE
  8
0
 10
2.2709
 20
-7.50021
 11
3.8367
 21
-6.96155
  0
LINE
  8
0
 10
3.8367
 20
-6.96155
 11
5.41524
 21
-6.46147
  0
LINE
  8
0
 10
5.41524
 20
-6.46147
 11
7.00557
 21
-6.00027
  0
LINE
  8
0
 10
7.00557
 20
-6.00027
 11
8.60675
 21
-5.57826
  0
LINE
  8
0
 10
8.60675
 20
-5.57826
 11
10.2178
 21
-5.19565
  0
LINE
  8
0
 10
10.2178
 20
-5.19565
 11
11.8378
 21
-4.85271
  0
LINE
  8
0
 10
11.8378
 20
-4.85271
 11
13.4656
 21
-4.54962
  0
LINE
  8
0
 10
13.4656
 20
-4.54962
 11
15.1005
 21
-4.28658
  0
LINE
  8
0
 10
15.1005
 20
-4.28658
 11
16.7413
 21
-4.06372
  0
LINE
  8
0
 10
16.7413
 20
-4.06372
 11
18.387
 21
-3.88121
  0
LINE
  8
0
 10
18.387
 20
-3.88121
 11
20.0368
 21
-3.73915
  0
LINE
  8
0
 10
20.0368
 20
-3.73915
 11
21.6895
 21
-3.6376
  0
LINE
  8
0
 10
21.6895
 20
-3.6376
 11
23.3443
 21
-3.57666
  0
LINE
  8
0
 10
23.3443
 20
-3.57666
 11
25
 21
-3.55634
  0
LINE
  8
0
 10
25
 20
-3.55634
 11
26.6557
 21
-3.57666
  0
LINE
  8
0
 10
26.6557
 20
-3.57666
 11
28.3105
 21
-3.6376
  0
LINE
  8
0
 10
28.3105
 20
-3.6376
 11
29.9632
 21
-3.73915
  0
LINE
  8
0
 10
29.9632
 20
-3.73915
 11
31.613
 21
-3.88121
  0
LINE
  8
0
 10
31.613
 20
-3.88121
 11
33.2587
 21
-4.06372
  0
LINE
  8
0
 10
33.2587
 20
-4.06372
 11
34.8995
 21
-4.28658
  0
LINE
  8
0
 10
34.8995
 20
-4.28658
 11
36.5343
 21
-4.54962
  0
LINE
  8
0
 10
36.5343
 20
-4.54962
 11
38.1622
 21
-4.85271
  0
LINE
  8
0
 10
38.1622
 20
-4.85271
 11
39.7822
 21
-5.19565
  0
LINE
  8
0
 10
39.7822
 20
-5.19565
 11
41.3932
 21
-5.57826
  0
LINE
  8
0
 10
41.3932
 20
-5.57826
 11
42.9944
 21
-6.00027
  0
LINE
  8
0
 10
42.9944
 20
-6.00027
 11
44.5847
 21
-6.46147
  0
LINE
  8
0
 10
44.5847
 20
-6.46147
 11
46.1633
 21
-6.96155
  0
LINE
  8
0
 10
46.1633
 20
-6.96155
 11
47.7291
 21
-7.50021
  0
LINE
  8
0
 10
47.7291
 20
-7.50021
 11
47.8801
 21
-7.55634
  0
LINE
  8
0
 10
47.8801
 20
-7.55634
 11
47.8987
 21
-7.55634
  0
LINE
  8
0
 10
47.8987
 20
-7.55634
 11
47.9579
 21
-7.66716
  0
LINE
  8
0
 10
47.9579
 20
-7.66716
 11
48.8284
 21
-8.72792
  0
LINE
  8
0
 10
48.8284
 20
-8.72792
 11
49.8892
 21
-9.59845
  0
LINE
  8
0
 10
49.8892
 20
-9.59845
 11
51.0994
 21
-10.2453
  0
LINE
  8
0
 10
51.0994
 20
-10.2453
 11
52.4125
 21
-10.6437
  0
LINE
  8
0
 10
52.4125
 20
-10.6437
 11
53.7782
 21
-10.7782
  0
LINE
  8
0
 10
53.7782
 20
-10.7782
 11
55.1438
 21
-10.6437
  0
LINE
  8
0
 10
-4.09032
 20
22.7089
 11
-4.39046
 21
22.8
  0
LINE
  8
0
 10
-4.39046
 20
22.8
 11
-4.66708
 21
22.9478
  0
LINE
  8
0
 10
-4.66708
 20
22.9478
 11
-4.90953
 21
23.1468
  0
LINE
  8
0
 10
-4.90953
 20
23.1468
 11
-5.10852
 21
23.3893
  0
LINE
  8
0
 10
-5.10852
 20
23.3893
 11
-5.25638
 21
23.6659
  0
LINE
  8
0
 10
-5.25638
 20
23.6659
 11
-5.34743
 21
23.966
  0
LINE
  8
0
 10
-5.34743
 20
23.966
 11
-5.37817
 21
24.2782
  0
LINE
  8
0
 10
-5.37817
 20
24.2782
 11
-5.34743
 21
24.5903
  0
LINE
  8
0
 10
-5.34743
 20
24.5903
 11
-5.25638
 21
24.8905
  0
LINE
  8
0
 10
-5.25638
 20
24.8905
 11
-5.10852
 21
25.1671
  0
LINE
  8
0
 10
-5.10852
 20
25.1671
 11
-4.90953
 21
25.4095
  0
LINE
  8
0
 10
-4.90953
 20
25.4095
 11
-4.66708
 21
25.6085
  0
LINE
  8
0
 10
-4.66708
 20
25.6085
 11
-4.39046
 21
25.7564
  0
LINE
  8
0
 10
-4.39046
 20
25.7564
 11
-4.09032
 21
25.8474
  0
LINE
  8
0
 10
-4.09032
 20
25.8474
 11
-3.77817
 21
25.8782
  0
LINE
  8
0
 10
-3.77817
 20
25.8782
 11
-3.46602
 21
25.8474
  0
LINE
  8
0
 10
-3.46602
 20
25.8474
 11
-3.16588
 21
25.7564
  0
LINE
  8
0
 10
-3.16588
 20
25.7564
 11
-2.88925
 21
25.6085
  0
LINE
  8
0
 10
-2.88925
 20
25.6085
 11
-2.64679
 21
25.4095
  0
LINE
  8
0
 10
-2.64679
 20
25.4095
 11
-2.44781
 21
25.1671
  0
LINE
  8
0
 10
-2.44781
 20
25.1671
 11
-2.29996
 21
24.8905
  0
LINE
  8
0
 10
-2.29996
 20
24.8905
 11
-2.20891
 21
24.5903
  0
LINE
  8
0
 10
-2.20891
 20
24.5903
 11
-2.17816
 21
24.2782
  0
LINE
  8
0
 10
-2.17816
 20
24.2782
 11
-2.20891
 21
23.966
  0
LINE
  8
0
 10
-2.20891
 20
23.966
 11
-2.29996
 21
23.6659
  0
LINE
  8
0
 10
-2.29996
 20
23.6659
 11
-2.44781
 21
23.3893
  0
LINE
  8
0
 10
-2.44781
 20
23.3893
 11
-2.64679
 21
23.1468
  0
LINE
  8
0
 10
-2.64679
 20
23.1468
 11
-2.88925
 21
22.9478
  0
LINE
  8
0
 10
-2.88925
 20
22.9478
 11
-3.16588
 21
22.8
  0
LINE
  8
0
 10
-3.16588
 20
22.8
 11
-3.46602
 21
22.7089
  0
LINE
  8
0
 10
-3.46602
 20
22.7089
 11
-3.77817
 21
22.6782
  0
LINE
  8
0
 10
-3.77817
 20
22.6782
 11
-4.09032
 21
22.7089
  0
LINE
  8
0
 10
53.466
 20
22.7089
 11
53.1659
 21
22.8
  0
LINE
  8
0
 10
53.1659
 20
22.8
 11
52.8893
 21
22.9478
  0
LINE
  8
0
 10
52.8893
 20
22.9478
 11
52.6468
 21
23.1468
  0
LINE
  8
0
 10
52.6468
 20
23.1468
 11
52.4478
 21
23.3893
  0
LINE
  8
0
 10
52.4478
 20
23.3893
 11
52.3
 21
23.6659
  0
LINE
  8
0
 10
52.3
 20
23.6659
 11
52.2089
 21
23.966
  0
LINE
  8
0
 10
52.2089
 20
23.966
 11
52.1782
 21
24.2782
  0
LINE
  8
0
 10
52.1782
 20
24.2782
 11
52.2089
 21
24.5903
  0
LINE
  8
0
 10
52.2089
 20
24.5903
 11
52.3
 21
24.8905
  0
LINE
  8
0
 10
52.3
 20
24.8905
 11
52.4478
 21
25.1671
  0
LINE
  8
0
 10
52.4478
 20
25.1671
 11
52.6468
 21
25.4095
  0
LINE
  8
0
 10
52.6468
 20
25.4095
 11
52.8893
 21
25.6085
  0
LINE
  8
0
 10
52.8893
 20
25.6085
 11
53.1659
 21
25.7564
  0
LINE
  8
0
 10
53.1659
 20
25.7564
 11
53.466
 21
25.8474
  0
LINE
  8
0
 10
53.466
 20
25.8474
 11
53.7782
 21
25.8782
  0
LINE
  8
0
 10
53.7782
 20
25.8782
 11
54.0903
 21
25.8474
  0
LINE
  8
0
 10
54.0903
 20
25.8474
 11
54.3905
 21
25.7564
  0
LINE
  8
0
 10
54.3905
 20
25.7564
 11
54.6671
 21
25.6085
  0
LINE
  8
0
 10
54.6671
 20
25.6085
 11
54.9095
 21
25.4095
  0
LINE
  8
0
 10
54.9095
 20
25.4095
 11
55.1085
 21
25.1671
  0
LINE
  8
0
 10
55.1085
 20
25.1671
 11
55.2564
 21
24.8905
  0
LINE
  8
0
 10
55.2564
 20
24.8905
 11
55.3474
 21
24.5903
  0
LINE
  8
0
 10
55.3474
 20
24.5903
 11
55.3782
 21
24.2782
  0
LINE
  8
0
 10
55.3782
 20
24.2782
 11
55.3474
 21
23.966
  0
LINE
  8
0
 10
55.3474
 20
23.966
 11
55.2564
 21
23.6659
  0
LINE
  8
0
 10
55.2564
 20
23.6659
 11
55.1085
 21
23.3893
  0
LINE
  8
0
 10
55.1085
 20
23.3893
 11
54.9095
 21
23.1468
  0
LINE
  8
0
 10
54.9095
 20
23.1468
 11
54.6671
 21
22.9478
  0
LINE
  8
0
 10
54.6671
 20
22.9478
 11
54.3905
 21
22.8
  0
LINE
  8
0
 10
54.3905
 20
22.8
 11
54.0903
 21
22.7089
  0
LINE
  8
0
 10
54.0903
 20
22.7089
 11
53.7782
 21
22.6782
  0
LINE
  8
0
 10
53.7782
 20
22.6782
 11
53.466
 21
22.7089
  0
LINE
  8
0
 10
-4.09032
 20
-5.34743
 11
-4.39046
 21
-5.25638
  0
LINE
  8
0
 10
-4.39046
 20
-5.25638
 11
-4.66708
 21
-5.10852
  0
LINE
  8
0
 10
-4.66708
 20
-5.10852
 11
-4.90953
 21
-4.90953
  0
LINE
  8
0
 10
-4.90953
 20
-4.90953
 11
-5.10852
 21
-4.66708
  0
LINE
  8
0
 10
-5.10852
 20
-4.66708
 11
-5.25638
 21
-4.39046
  0
LINE
  8
0
 10
-5.25638
 20
-4.39046
 11
-5.34743
 21
-4.09032
  0
LINE
  8
0
 10
-5.34743
 20
-4.09032
 11
-5.37817
 21
-3.77817
  0
LINE
  8
0
 10
-5.37817
 20
-3.77817
 11
-5.34743
 21
-3.46602
  0
LINE
  8
0
 10
-5.34743
 20
-3.46602
 11
-5.25638
 21
-3.16588
  0
LINE
  8
0
 10
-5.25638
 20
-3.16588
 11
-5.10852
 21
-2.88925
  0
LINE
  8
0
 10
-5.10852
 20
-2.88925
 11
-4.90953
 21
-2.64679
  0
LINE
  8
0
 10
-4.90953
 20
-2.64679
 11
-4.66708
 21
-2.44781
  0
LINE
  8
0
 10
-4.66708
 20
-2.44781
 11
-4.39046
 21
-2.29996
  0
LINE
  8
0
 10
-4.39046
 20
-2.29996
 11
-4.09032
 21
-2.20891
  0
LINE
  8
0
 10
-4.09032
 20
-2.20891
 11
-3.77817
 21
-2.17816
  0
LINE
  8
0
 10
-3.77817
 20
-2.17816
 11
-3.46602
 21
-2.20891
  0
LINE
  8
0
 10
-3.46602
 20
-2.20891
 11
-3.16588
 21
-2.29996
  0
LINE
  8
0
 10
-3.16588
 20
-2.29996
 11
-2.88925
 21
-2.44781
  0
LINE
  8
0
 10
-2.88925
 20
-2.44781
 11
-2.64679
 21
-2.64679
  0
LINE
  8
0
 10
-2.64679
 20
-2.64679
 11
-2.44781
 21
-2.88925
  0
LINE
  8
0
 10
-2.44781
 20
-2.88925
 11
-2.29996
 21
-3.16588
  0
LINE
  8
0
 10
-2.29996
 20
-3.16588
 11
-2.20891
 21
-3.46602
  0
LINE
  8
0
 10
-2.20891
 20
-3.46602
 11
-2.17816
 21
-3.77817
  0
LINE
  8
0
 10
-2.17816
 20
-3.77817
 11
-2.20891
 21
-4.09032
  0
LINE
  8
0
 10
-2.20891
 20
-4.09032
 11
-2.29996
 21
-4.39046
  0
LINE
  8
0
 10
-2.29996
 20
-4.39046
 11
-2.44781
 21
-4.66708
  0
LINE
  8
0
 10
-2.44781
 20
-4.66708
 11
-2.64679
 21
-4.90953
  0
LINE
  8
0
 10
-2.64679
 20
-4.90953
 11
-2.88925
 21
-5.10852
  0
LINE
  8
0
 10
-2.88925
 20
-5.10852
 11
-3.16588
 21
-5.25638
  0
LINE
  8
0
 10
-3.16588
 20
-5.25638
 11
-3.46602
 21
-5.34743
  0
LINE
  8
0
 10
-3.46602
 20
-5.34743
 11
-3.77817
 21
-5.37817
  0
LINE
  8
0
 10
-3.77817
 20
-5.37817
 11
-4.09032
 21
-5.34743
  0
LINE
  8
0
 10
53.466
 20
-5.34743
 11
53.1659
 21
-5.25638
  0
LINE
  8
0
 10
53.1659
 20
-5.25638
 11
52.8893
 21
-5.10852
  0
LINE
  8
0
 10
52.8893
 20
-5.10852
 11
52.6468
 21
-4.90953
  0
LINE
  8
0
 10
52.6468
 20
-4.90953
 11
52.4478
 21
-4.66708
  0
LINE
  8
0
 10
52.4478
 20
-4.66708
 11
52.3
 21
-4.39046
  0
LINE
  8
0
 10
52.3
 20
-4.39046
 11
52.2089
 21
-4.09032
  0
LINE
  8
0
 10
52.2089
 20
-4.09032
 11
52.1782
 21
-3.77817
  0
LINE
  8
0
 10
52.1782
 20
-3.77817
 11
52.2089
 21
-3.46602
  0
LINE
  8
0
 10
52.2089
 20
-3.46602
 11
52.3
 21
-3.16588
  0
LINE
  8
0
 10
52.3
 20
-3.16588
 11
52.4478
 21
-2.88925
  0
LINE
  8
0
 10
52.4478
 20
-2.88925
 11
52.6468
 21
-2.64679
  0
LINE
  8
0
 10
52.6468
 20
-2.64679
 11
52.8893
 21
-2.44781
  0
LINE
  8
0
 10
52.8893
 20
-2.44781
 11
53.1659
 21
-2.29996
  0
LINE
  8
0
 10
53.1659
 20
-2.29996
 11
53.466
 21
-2.20891
  0
LINE
  8
0
 10
53.466
 20
-2.20891
 11
53.7782
 21
-2.17816
  0
LINE
  8
0
 10
53.7782
 20
-2.17816
 11
54.0903
 21
-2.20891
  0
LINE
  8
0
 10
54.0903
 20
-2.20891
 11
54.3905
 21
-2.29996
  0
LINE
  8
0
 10
54.3905
 20
-2.29996
 11
54.6671
 21
-2.44781
  0
LINE
  8
0
 10
54.6671
 20
-2.44781
 11
54.9095
 21
-2.64679
  0
LINE
  8
0
 10
54.9095
 20
-2.64679
 11
55.1085
 21
-2.88925
  0
LINE
  8
0
 10
55.1085
 20
-2.88925
 11
55.2564
 21
-3.16588
  0
LINE
  8
0
 10
55.2564
 20
-3.16588
 11
55.3474
 21
-3.46602
  0
LINE
  8
0
 10
55.3474
 20
-3.46602
 11
55.3782
 21
-3.77817
  0
LINE
  8
0
 10
55.3782
 20
-3.77817
 11
55.3474
 21
-4.09032
  0
LINE
  8
0
 10
55.3474
 20
-4.09032
 11
55.2564
 21
-4.39046
  0
LINE
  8
0
 10
55.2564
 20
-4.39046
 11
55.1085
 21
-4.66708
  0
LINE
  8
0
 10
55.1085
 20
-4.66708
 11
54.9095
 21
-4.90953
  0
LINE
  8
0
 10
54.9095
 20
-4.90953
 11
54.6671
 21
-5.10852
  0
LINE
  8
0
 10
54.6671
 20
-5.10852
 11
54.3905
 21
-5.25638
  0
LINE
  8
0
 10
54.3905
 20
-5.25638
 11
54.0903
 21
-5.34743
  0
LINE
  8
0
 10
54.0903
 20
-5.34743
 11
53.7782
 21
-5.37817
  0
LINE
  8
0
 10
53.7782
 20
-5.37817
 11
53.466
 21
-5.34743
  0
LINE
  8
0
 10
55.1438
 20
-53.1437
 11
56.457
 21
-52.7453
  0
LINE
  8
0
 10
56.457
 20
-52.7453
 11
57.6672
 21
-52.0984
  0
LINE
  8
0
 10
57.6672
 20
-52.0984
 11
58.7279
 21
-51.2279
  0
LINE
  8
0
 10
58.7279
 20
-51.2279
 11
59.5984
 21
-50.1672
  0
LINE
  8
0
 10
59.5984
 20
-50.1672
 11
60.2453
 21
-48.957
  0
LINE
  8
0
 10
60.2453
 20
-48.957
 11
60.6437
 21
-47.6438
  0
LINE
  8
0
 10
60.6437
 20
-47.6438
 11
60.7782
 21
-46.2782
  0
LINE
  8
0
 10
60.7782
 20
-46.2782
 11
60.6437
 21
-44.9125
  0
LINE
  8
0
 10
60.6437
 20
-44.9125
 11
60.2453
 21
-43.5994
  0
LINE
  8
0
 10
60.2453
 20
-43.5994
 11
59.5984
 21
-42.3892
  0
LINE
  8
0
 10
59.5984
 20
-42.3892
 11
58.7279
 21
-41.3284
  0
LINE
  8
0
 10
58.7279
 20
-41.3284
 11
57.6672
 21
-40.4579
  0
LINE
  8
0
 10
57.6672
 20
-40.4579
 11
57.5563
 21
-40.3987
  0
LINE
  8
0
 10
57.5563
 20
-40.3987
 11
57.5563
 21
-40.3816
  0
LINE
  8
0
 10
57.5563
 20
-40.3816
 11
57.3122
 21
-40.1911
  0
LINE
  8
0
 10
57.3122
 20
-40.1911
 11
56.9304
 21
-39.8618
  0
LINE
  8
0
 10
56.9304
 20
-39.8618
 11
56.5652
 21
-39.5141
  0
LINE
  8
0
 10
56.5652
 20
-39.5141
 11
56.3138
 21
-39.25
  0
LINE
  8
0
 10
56.3138
 20
-39.25
 11
46
 21
-39.25
  0
LINE
  8
0
 10
46
 20
-39.25
 11
46
 21
-25.25
  0
LINE
  8
0
 10
46
 20
-25.25
 11
56.3138
 21
-25.25
  0
LINE
  8
0
 10
56.3138
 20
-25.25
 11
56.5652
 21
-24.9859
  0
LINE
  8
0
 10
56.5652
 20
-24.9859
 11
56.9304
 21
-24.6382
  0
LINE
  8
0
 10
56.9304
 20
-24.6382
 11
57.3122
 21
-24.3089
  0
LINE
  8
0
 10
57.3122
 20
-24.3089
 11
57.5563
 21
-24.1184
  0
LINE
  8
0
 10
57.5563
 20
-24.1184
 11
57.5563
 21
-24.1013
  0
LINE
  8
0
 10
57.5563
 20
-24.1013
 11
57.6672
 21
-24.0421
  0
LINE
  8
0
 10
57.6672
 20
-24.0421
 11
58.7279
 21
-23.1716
  0
LINE
  8
0
 10
58.7279
 20
-23.1716
 11
59.5984
 21
-22.1108
  0
LINE
  8
0
 10
59.5984
 20
-22.1108
 11
60.2453
 21
-20.9006
  0
LINE
  8
0
 10
60.2453
 20
-20.9006
 11
60.6437
 21
-19.5875
  0
LINE
  8
0
 10
60.6437
 20
-19.5875
 11
60.7782
 21
-18.2218
  0
LINE
  8
0
 10
60.7782
 20
-18.2218
 11
60.6437
 21
-16.8562
  0
LINE
  8
0
 10
60.6437
 20
-16.8562
 11
60.2453
 21
-15.543
  0
LINE
  8
0
 10
60.2453
 20
-15.543
 11
59.5984
 21
-14.3328
  0
LINE
  8
0
 10
59.5984
 20
-14.3328
 11
58.7279
 21
-13.2721
  0
LINE
  8
0
 10
58.7279
 20
-13.2721
 11
57.6672
 21
-12.4016
  0
LINE
  8
0
 10
57.6672
 20
-12.4016
 11
56.457
 21
-11.7547
  0
LINE
  8
0
 10
56.457
 20
-11.7547
 11
55.1438
 21
-11.3563
  0
LINE
  8
0
 10
55.1438
 20
-11.3563
 11
53.7782
 21
-11.2218
  0
LINE
  8
0
 10
53.7782
 20
-11.2218
 11
52.4125
 21
-11.3563
  0
LINE
  8
0
 10
52.4125
 20
-11.3563
 11
51.0994
 21
-11.7547
  0
LINE
  8
0
 10
51.0994
 20
-11.7547
 11
49.8892
 21
-12.4016
  0
LINE
  8
0
 10
49.8892
 20
-12.4016
 11
48.8284
 21
-13.2721
  0
LINE
  8
0
 10
48.8284
 20
-13.2721
 11
47.9579
 21
-14.3328
  0
LINE
  8
0
 10
47.9579
 20
-14.3328
 11
47.8987
 21
-14.4437
  0
LINE
  8
0
 10
47.8987
 20
-14.4437
 11
47.8801
 21
-14.4437
  0
LINE
  8
0
 10
47.8801
 20
-14.4437
 11
47.7291
 21
-14.4998
  0
LINE
  8
0
 10
47.7291
 20
-14.4998
 11
46.1633
 21
-15.0385
  0
LINE
  8
0
 10
46.1633
 20
-15.0385
 11
44.5847
 21
-15.5385
  0
LINE
  8
0
 10
44.5847
 20
-15.5385
 11
42.9944
 21
-15.9997
  0
LINE
  8
0
 10
42.9944
 20
-15.9997
 11
41.3932
 21
-16.4217
  0
LINE
  8
0
 10
41.3932
 20
-16.4217
 11
39.7822
 21
-16.8044
  0
LINE
  8
0
 10
39.7822
 20
-16.8044
 11
38.1622
 21
-17.1473
  0
LINE
  8
0
 10
38.1622
 20
-17.1473
 11
36.5343
 21
-17.4504
  0
LINE
  8
0
 10
36.5343
 20
-17.4504
 11
34.8995
 21
-17.7134
  0
LINE
  8
0
 10
34.8995
 20
-17.7134
 11
33.2587
 21
-17.9363
  0
LINE
  8
0
 10
33.2587
 20
-17.9363
 11
31.613
 21
-18.1188
  0
LINE
  8
0
 10
31.613
 20
-18.1188
 11
29.9632
 21
-18.2608
  0
LINE
  8
0
 10
29.9632
 20
-18.2608
 11
28.3105
 21
-18.3624
  0
LINE
  8
0
 10
28.3105
 20
-18.3624
 11
26.6557
 21
-18.4233
  0
LINE
  8
0
 10
26.6557
 20
-18.4233
 11
25
 21
-18.4437
  0
LINE
  8
0
 10
25
 20
-18.4437
 11
23.3443
 21
-18.4233
  0
LINE
  8
0
 10
23.3443
 20
-18.4233
 11
21.6895
 21
-18.3624
  0
LINE
  8
0
 10
21.6895
 20
-18.3624
 11
20.0368
 21
-18.2608
  0
LINE
  8
0
 10
20.0368
 20
-18.2608
 11
18.387
 21
-18.1188
  0
LINE
  8
0
 10
18.387
 20
-18.1188
 11
16.7413
 21
-17.9363
  0
LINE
  8
0
 10
16.7413
 20
-17.9363
 11
15.1005
 21
-17.7134
  0
LINE
  8
0
 10
15.1005
 20
-17.7134
 11
13.4656
 21
-17.4504
  0
LINE
  8
0
 10
13.4656
 20
-17.4504
 11
11.8378
 21
-17.1473
  0
LINE
  8
0
 10
11.8378
 20
-17.1473
 11
10.2178
 21
-16.8044
  0
LINE
  8
0
 10
10.2178
 20
-16.8044
 11
8.60675
 21
-16.4217
  0
LINE
  8
0
 10
8.60675
 20
-16.4217
 11
7.00557
 21
-15.9997
  0
LINE
  8
0
 10
7.00557
 20
-15.9997
 11
5.41524
 21
-15.5385
  0
LINE
  8
0
 10
5.41524
 20
-15.5385
 11
3.8367
 21
-15.0385
  0
LINE
  8
0
 10
3.8367
 20
-15.0385
 11
2.2709
 21
-14.4998
  0
LINE
  8
0
 10
2.2709
 20
-14.4998
 11
2.11992
 21
-14.4437
  0
LINE
  8
0
 10
2.11992
 20
-14.4437
 11
2.10133
 21
-14.4437
  0
LINE
  8
0
 10
2.10133
 20
-14.4437
 11
2.0421
 21
-14.3328
  0
LINE
  8
0
 10
2.0421
 20
-14.3328
 11
1.17157
 21
-13.2721
  0
LINE
  8
0
 10
1.17157
 20
-13.2721
 11
0.110809
 21
-12.4016
  0
LINE
  8
0
 10
0.110809
 20
-12.4016
 11
-1.09938
 21
-11.7547
  0
LINE
  8
0
 10
-1.09938
 20
-11.7547
 11
-2.41254
 21
-11.3563
  0
LINE
  8
0
 10
-2.41254
 20
-11.3563
 11
-3.77817
 21
-11.2218
  0
LINE
  8
0
 10
-3.77817
 20
-11.2218
 11
-5.1438
 21
-11.3563
  0
LINE
  8
0
 10
-5.1438
 20
-11.3563
 11
-6.45695
 21
-11.7547
  0
LINE
  8
0
 10
-6.45695
 20
-11.7547
 11
-7.66716
 21
-12.4016
  0
LINE
  8
0
 10
-7.66716
 20
-12.4016
 11
-8.72792
 21
-13.2721
  0
LINE
  8
0
 10
-8.72792
 20
-13.2721
 11
-9.59845
 21
-14.3328
  0
LINE
  8
0
 10
-9.59845
 20
-14.3328
 11
-10.2453
 21
-15.543
  0
LINE
  8
0
 10
-10.2453
 20
-15.543
 11
-10.6437
 21
-16.8562
  0
LINE
  8
0
 10
-10.6437
 20
-16.8562
 11
-10.7782
 21
-18.2218
  0
LINE
  8
0
 10
-10.7782
 20
-18.2218
 11
-10.6437
 21
-19.5875
  0
LINE
  8
0
 10
-10.6437
 20
-19.5875
 11
-10.2453
 21
-20.9006
  0
LINE
  8
0
 10
-10.2453
 20
-20.9006
 11
-9.59845
 21
-22.1108
  0
LINE
  8
0
 10
-9.59845
 20
-22.1108
 11
-8.72792
 21
-23.1716
  0
LINE
  8
0
 10
-8.72792
 20
-23.1716
 11
-7.66716
 21
-24.0421
  0
LINE
  8
0
 10
-7.66716
 20
-24.0421
 11
-7.55634
 21
-24.1013
  0
LINE
  8
0
 10
-7.55634
 20
-24.1013
 11
-7.55634
 21
-24.1184
  0
LINE
  8
0
 10
-7.55634
 20
-24.1184
 11
-7.31221
 21
-24.3089
  0
LINE
  8
0
 10
-7.31221
 20
-24.3089
 11
-6.9304
 21
-24.6382
  0
LINE
  8
0
 10
-6.9304
 20
-24.6382
 11
-6.56523
 21
-24.9859
  0
LINE
  8
0
 10
-6.56523
 20
-24.9859
 11
-6.21754
 21
-25.3511
  0
LINE
  8
0
 10
-6.21754
 20
-25.3511
 11
-5.8882
 21
-25.7329
  0
LINE
  8
0
 10
-5.8882
 20
-25.7329
 11
-5.57799
 21
-26.1304
  0
LINE
  8
0
 10
-5.57799
 20
-26.1304
 11
-5.49376
 21
-26.25
  0
LINE
  8
0
 10
-5.49376
 20
-26.25
 11
-1
 21
-26.25
  0
LINE
  8
0
 10
-1
 20
-26.25
 11
-1
 21
-38.25
  0
LINE
  8
0
 10
-1
 20
-38.25
 11
-5.49374
 21
-38.25
  0
LINE
  8
0
 10
-5.49374
 20
-38.25
 11
-5.57799
 21
-38.3696
  0
LINE
  8
0
 10
-5.57799
 20
-38.3696
 11
-5.8882
 21
-38.7671
  0
LINE
  8
0
 10
-5.8882
 20
-38.7671
 11
-6.21754
 21
-39.1489
  0
LINE
  8
0
 10
-6.21754
 20
-39.1489
 11
-6.56523
 21
-39.5141
  0
LINE
  8
0
 10
-6.56523
 20
-39.5141
 11
-6.9304
 21
-39.8618
  0
LINE
  8
0
 10
-6.9304
 20
-39.8618
 11
-7.31221
 21
-40.1911
  0
LINE
  8
0
 10
-7.31221
 20
-40.1911
 11
-7.55634
 21
-40.3816
  0
LINE
  8
0
 10
-7.55634
 20
-40.3816
 11
-7.55634
 21
-40.3987
  0
LINE
  8
0
 10
-7.55634
 20
-40.3987
 11
-7.66716
 21
-40.4579
  0
LINE
  8
0
 10
-7.66716
 20
-40.4579
 11
-8.72792
 21
-41.3284
  0
LINE
  8
0
 10
-8.72792
 20
-41.3284
 11
-9.59845
 21
-42.3892
  0
LINE
  8
0
 10
-9.59845
 20
-42.3892
 11
-10.2453
 21
-43.5994
  0
LINE
  8
0
 10
-10.2453
 20
-43.5994
 11
-10.6437
 21
-44.9125
  0
LINE
  8
0
 10
-10.6437
 20
-44.9125
 11
-10.7782
 21
-46.2782
  0
LINE
  8
0
 10
-10.7782
 20
-46.2782
 11
-10.6437
 21
-47.6438
  0
LINE
  8
0
 10
-10.6437
 20
-47.6438
 11
-10.2453
 21
-48.957
  0
LINE
  8
0
 10
-10.2453
 20
-48.957
 11
-9.59845
 21
-50.1672
  0
LINE
  8
0
 10
-9.59845
 20
-50.1672
 11
-8.72792
 21
-51.2279
  0
LINE
  8
0
 10
-8.72792
 20
-51.2279
 11
-7.66716
 21
-52.0984
  0
LINE
  8
0
 10
-7.66716
 20
-52.0984
 11
-6.45695
 21
-52.7453
  0
LINE
  8
0
 10
-6.45695
 20
-52.7453
 11
-5.1438
 21
-53.1437
  0
LINE
  8
0
 10
-5.1438
 20
-53.1437
 11
-3.77817
 21
-53.2782
  0
LINE
  8
0
 10
-3.77817
 20
-53.2782
 11
-2.41254
 21
-53.1437
  0
LINE
  8
0
 10
-2.41254
 20
-53.1437
 11
-1.09938
 21
-52.7453
  0
LINE
  8
0
 10
-1.09938
 20
-52.7453
 11
0.110809
 21
-52.0984
  0
LINE
  8
0
 10
0.110809
 20
-52.0984
 11
1.17157
 21
-51.2279
  0
LINE
  8
0
 10
1.17157
 20
-51.2279
 11
2.0421
 21
-50.1672
  0
LINE
  8
0
 10
2.0421
 20
-50.1672
 11
2.10133
 21
-50.0563
  0
LINE
  8
0
 10
2.10133
 20
-50.0563
 11
2.11992
 21
-50.0563
  0
LINE
  8
0
 10
2.11992
 20
-50.0563
 11
2.2709
 21
-50.0002
  0
LINE
  8
0
 10
2.2709
 20
-50.0002
 11
3.8367
 21
-49.4615
  0
LINE
  8
0
 10
3.8367
 20
-49.4615
 11
5.41524
 21
-48.9615
  0
LINE
  8
0
 10
5.41524
 20
-48.9615
 11
7.00557
 21
-48.5003
  0
LINE
  8
0
 10
7.00557
 20
-48.5003
 11
8.60675
 21
-48.0783
  0
LINE
  8
0
 10
8.60675
 20
-48.0783
 11
10.2178
 21
-47.6956
  0
LINE
  8
0
 10
10.2178
 20
-47.6956
 11
11.8378
 21
-47.3527
  0
LINE
  8
0
 10
11.8378
 20
-47.3527
 11
13.4656
 21
-47.0496
  0
LINE
  8
0
 10
13.4656
 20
-47.0496
 11
15.1005
 21
-46.7866
  0
LINE
  8
0
 10
15.1005
 20
-46.7866
 11
16.7413
 21
-46.5637
  0
LINE
  8
0
 10
16.7413
 20
-46.5637
 11
18.387
 21
-46.3812
  0
LINE
  8
0
 10
18.387
 20
-46.3812
 11
20.0368
 21
-46.2392
  0
LINE
  8
0
 10
20.0368
 20
-46.2392
 11
21.6895
 21
-46.1376
  0
LINE
  8
0
 10
21.6895
 20
-46.1376
 11
23.3443
 21
-46.0767
  0
LINE
  8
0
 10
23.3443
 20
-46.0767
 11
25
 21
-46.0563
  0
LINE
  8
0
 10
25
 20
-46.0563
 11
26.6557
 21
-46.0767
  0
LINE
  8
0
 10
26.6557
 20
-46.0767
 11
28.3105
 21
-46.1376
  0
LINE
  8
0
 10
28.3105
 20
-46.1376
 11
29.9632
 21
-46.2392
  0
LINE
  8
0
 10
29.9632
 20
-46.2392
 11
31.613
 21
-46.3812
  0
LINE
  8
0
 10
31.613
 20
-46.3812
 11
33.2587
 21
-46.5637
  0
LINE
  8
0
 10
33.2587
 20
-46.5637
 11
34.8995
 21
-46.7866
  0
LINE
  8
0
 10
34.8995
 20
-46.7866
 11
36.5343
 21
-47.0496
  0
LINE
  8
0
 10
36.5343
 20
-47.0496
 11
38.1622
 21
-47.3527
  0
LINE
  8
0
 10
38.1622
 20
-47.3527
 11
39.7822
 21
-47.6956
  0
LINE
  8
0
 10
39.7822
 20
-47.6956
 11
41.3932
 21
-48.0783
  0
LINE
  8
0
 10
41.3932
 20
-48.0783
 11
42.9944
 21
-48.5003
  0
LINE
  8
0
 10
42.9944
 20
-48.5003
 11
44.5847
 21
-48.9615
  0
LINE
  8
0
 10
44.5847
 20
-48.9615
 11
46.1633
 21
-49.4615
  0
LINE
  8
0
 10
46.1633
 20
-49.4615
 11
47.7291
 21
-50.0002
  0
LINE
  8
0
 10
47.7291
 20
-50.0002
 11
47.8801
 21
-50.0563
  0
LINE
  8
0
 10
47.8801
 20
-50.0563
 11
47.8987
 21
-50.0563
  0
LINE
  8
0
 10
47.8987
 20
-50.0563
 11
47.9579
 21
-50.1672
  0
LINE
  8
0
 10
47.9579
 20
-50.1672
 11
48.8284
 21
-51.2279
  0
LINE
  8
0
 10
48.8284
 20
-51.2279
 11
49.8892
 21
-52.0984
  0
LINE
  8
0
 10
49.8892
 20
-52.0984
 11
51.0994
 21
-52.7453
  0
LINE
  8
0
 10
51.0994
 20
-52.7453
 11
52.4125
 21
-53.1437
  0
LINE
  8
0
 10
52.4125
 20
-53.1437
 11
53.7782
 21
-53.2782
  0
LINE
  8
0
 10
53.7782
 20
-53.2782
 11
55.1438
 21
-53.1437
  0
LINE
  8
0
 10
-4.09032
 20
-19.7911
 11
-4.39046
 21
-19.7
  0
LINE
  8
0
 10
-4.39046
 20
-19.7
 11
-4.66708
 21
-19.5522
  0
LINE
  8
0
 10
-4.66708
 20
-19.5522
 11
-4.90953
 21
-19.3532
  0
LINE
  8
0
 10
-4.90953
 20
-19.3532
 11
-5.10852
 21
-19.1107
  0
LINE
  8
0
 10
-5.10852
 20
-19.1107
 11
-5.25638
 21
-18.8341
  0
LINE
  8
0
 10
-5.25638
 20
-18.8341
 11
-5.34743
 21
-18.534
  0
LINE
  8
0
 10
-5.34743
 20
-18.534
 11
-5.37817
 21
-18.2218
  0
LINE
  8
0
 10
-5.37817
 20
-18.2218
 11
-5.34743
 21
-17.9097
  0
LINE
  8
0
 10
-5.34743
 20
-17.9097
 11
-5.25638
 21
-17.6095
  0
LINE
  8
0
 10
-5.25638
 20
-17.6095
 11
-5.10852
 21
-17.3329
  0
LINE
  8
0
 10
-5.10852
 20
-17.3329
 11
-4.90953
 21
-17.0905
  0
LINE
  8
0
 10
-4.90953
 20
-17.0905
 11
-4.66708
 21
-16.8915
  0
LINE
  8
0
 10
-4.66708
 20
-16.8915
 11
-4.39046
 21
-16.7436
  0
LINE
  8
0
 10
-4.39046
 20
-16.7436
 11
-4.09032
 21
-16.6526
  0
LINE
  8
0
 10
-4.09032
 20
-16.6526
 11
-3.77817
 21
-16.6218
  0
LINE
  8
0
 10
-3.77817
 20
-16.6218
 11
-3.46602
 21
-16.6526
  0
LINE
  8
0
 10
-3.46602
 20
-16.6526
 11
-3.16588
 21
-16.7436
  0
LINE
  8
0
 10
-3.16588
 20
-16.7436
 11
-2.88925
 21
-16.8915
  0
LINE
  8
0
 10
-2.88925
 20
-16.8915
 11
-2.64679
 21
-17.0905
  0
LINE
  8
0
 10
-2.64679
 20
-17.0905
 11
-2.44781
 21
-17.3329
  0
LINE
  8
0
 10
-2.44781
 20
-17.3329
 11
-2.29996
 21
-17.6095
  0
LINE
  8
0
 10
-2.29996
 20
-17.6095
 11
-2.20891
 21
-17.9097
  0
LINE
  8
0
 10
-2.20891
 20
-17.9097
 11
-2.17816
 21
-18.2218
  0
LINE
  8
0
 10
-2.17816
 20
-18.2218
 11
-2.20891
 21
-18.534
  0
LINE
  8
0
 10
-2.20891
 20
-18.534
 11
-2.29996
 21
-18.8341
  0
LINE
  8
0
 10
-2.29996
 20
-18.8341
 11
-2.44781
 21
-19.1107
  0
LINE
  8
0
 10
-2.44781
 20
-19.1107
 11
-2.64679
 21
-19.3532
  0
LINE
  8
0
 10
-2.64679
 20
-19.3532
 11
-2.88925
 21
-19.5522
  0
LINE
  8
0
 10
-2.88925
 20
-19.5522
 11
-3.16588
 21
-19.7
  0
LINE
  8
0
 10
-3.16588
 20
-19.7
 11
-3.46602
 21
-19.7911
  0
LINE
  8
0
 10
-3.46602
 20
-19.7911
 11
-3.77817
 21
-19.8218
  0
LINE
  8
0
 10
-3.77817
 20
-19.8218
 11
-4.09032
 21
-19.7911
  0
LINE
  8
0
 10
53.466
 20
-19.7911
 11
53.1659
 21
-19.7
  0
LINE
  8
0
 10
53.1659
 20
-19.7
 11
52.8893
 21
-19.5522
  0
LINE
  8
0
 10
52.8893
 20
-19.5522
 11
52.6468
 21
-19.3532
  0
LINE
  8
0
 10
52.6468
 20
-19.3532
 11
52.4478
 21
-19.1107
  0
LINE
  8
0
 10
52.4478
 20
-19.1107
 11
52.3
 21
-18.8341
  0
LINE
  8
0
 10
52.3
 20
-18.8341
 11
52.2089
 21
-18.534
  0
LINE
  8
0
 10
52.2089
 20
-18.534
 11
52.1782
 21
-18.2218
  0
LINE
  8
0
 10
52.1782
 20
-18.2218
 11
52.2089
 21
-17.9097
  0
LINE
  8
0
 10
52.2089
 20
-17.9097
 11
52.3
 21
-17.6095
  0
LINE
  8
0
 10
52.3
 20
-17.6095
 11
52.4478
 21
-17.3329
  0
LINE
  8
0
 10
52.4478
 20
-17.3329
 11
52.6468
 21
-17.0905
  0
LINE
  8
0
 10
52.6468
 20
-17.0905
 11
52.8893
 21
-16.8915
  0
LINE
  8
0
 10
52.8893
 20
-16.8915
 11
53.1659
 21
-16.7436
  0
LINE
  8
0
 10
53.1659
 20
-16.7436
 11
53.466
 21
-16.6526
  0
LINE
  8
0
 10
53.466
 20
-16.6526
 11
53.7782
 21
-16.6218
  0
LINE
  8
0
 10
53.7782
 20
-16.6218
 11
54.0903
 21
-16.6526
  0
LINE
  8
0
 10
54.0903
 20
-16.6526
 11
54.3905
 21
-16.7436
  0
LINE
  8
0
 10
54.3905
 20
-16.7436
 11
54.6671
 21
-16.8915
  0
LINE
  8
0
 10
54.6671
 20
-16.8915
 11
54.9095
 21
-17.0905
  0
LINE
  8
0
 10
54.9095
 20
-17.0905
 11
55.1085
 21
-17.3329
  0
LINE
  8
0
 10
55.1085
 20
-17.3329
 11
55.2564
 21
-17.6095
  0
LINE
  8
0
 10
55.2564
 20
-17.6095
 11
55.3474
 21
-17.9097
  0
LINE
  8
0
 10
55.3474
 20
-17.9097
 11
55.3782
 21
-18.2218
  0
LINE
  8
0
 10
55.3782
 20
-18.2218
 11
55.3474
 21
-18.534
  0
LINE
  8
0
 10
55.3474
 20
-18.534
 11
55.2564
 21
-18.8341
  0
LINE
  8
0
 10
55.2564
 20
-18.8341
 11
55.1085
 21
-19.1107
  0
LINE
  8
0
 10
55.1085
 20
-19.1107
 11
54.9095
 21
-19.3532
  0
LINE
  8
0
 10
54.9095
 20
-19.3532
 11
54.6671
 21
-19.5522
  0
LINE
  8
0
 10
54.6671
 20
-19.5522
 11
54.3905
 21
-19.7
  0
LINE
  8
0
 10
54.3905
 20
-19.7
 11
54.0903
 21
-19.7911
  0
LINE
  8
0
 10
54.0903
 20
-19.7911
 11
53.7782
 21
-19.8218
  0
LINE
  8
0
 10
53.7782
 20
-19.8218
 11
53.466
 21
-19.7911
  0
LINE
  8
0
 10
-4.09032
 20
-47.8474
 11
-4.39046
 21
-47.7564
  0
LINE
  8
0
 10
-4.39046
 20
-47.7564
 11
-4.66708
 21
-47.6085
  0
LINE
  8
0
 10
-4.66708
 20
-47.6085
 11
-4.90953
 21
-47.4095
  0
LINE
  8
0
 10
-4.90953
 20
-47.4095
 11
-5.10852
 21
-47.1671
  0
LINE
  8
0
 10
-5.10852
 20
-47.1671
 11
-5.25638
 21
-46.8905
  0
LINE
  8
0
 10
-5.25638
 20
-46.8905
 11
-5.34743
 21
-46.5903
  0
LINE
  8
0
 10
-5.34743
 20
-46.5903
 11
-5.37817
 21
-46.2782
  0
LINE
  8
0
 10
-5.37817
 20
-46.2782
 11
-5.34743
 21
-45.966
  0
LINE
  8
0
 10
-5.34743
 20
-45.966
 11
-5.25638
 21
-45.6659
  0
LINE
  8
0
 10
-5.25638
 20
-45.6659
 11
-5.10852
 21
-45.3893
  0
LINE
  8
0
 10
-5.10852
 20
-45.3893
 11
-4.90953
 21
-45.1468
  0
LINE
  8
0
 10
-4.90953
 20
-45.1468
 11
-4.66708
 21
-44.9478
  0
LINE
  8
0
 10
-4.66708
 20
-44.9478
 11
-4.39046
 21
-44.8
  0
LINE
  8
0
 10
-4.39046
 20
-44.8
 11
-4.09032
 21
-44.7089
  0
LINE
  8
0
 10
-4.09032
 20
-44.7089
 11
-3.77817
 21
-44.6782
  0
LINE
  8
0
 10
-3.77817
 20
-44.6782
 11
-3.46602
 21
-44.7089
  0
LINE
  8
0
 10
-3.46602
 20
-44.7089
 11
-3.16588
 21
-44.8
  0
LINE
  8
0
 10
-3.16588
 20
-44.8
 11
-2.88925
 21
-44.9478
  0
LINE
  8
0
 10
-2.88925
 20
-44.9478
 11
-2.64679
 21
-45.1468
  0
LINE
  8
0
 10
-2.64679
 20
-45.1468
 11
-2.44781
 21
-45.3893
  0
LINE
  8
0
 10
-2.44781
 20
-45.3893
 11
-2.29996
 21
-45.6659
  0
LINE
  8
0
 10
-2.29996
 20
-45.6659
 11
-2.20891
 21
-45.966
  0
LINE
  8
0
 10
-2.20891
 20
-45.966
 11
-2.17816
 21
-46.2782
  0
LINE
  8
0
 10
-2.17816
 20
-46.2782
 11
-2.20891
 21
-46.5903
  0
LINE
  8
0
 10
-2.20891
 20
-46.5903
 11
-2.29996
 21
-46.8905
  0
LINE
  8
0
 10
-2.29996
 20
-46.8905
 11
-2.44781
 21
-47.1671
  0
LINE
  8
0
 10
-2.44781
 20
-47.1671
 11
-2.64679
 21
-47.4095
  0
LINE
  8
0
 10
-2.64679
 20
-47.4095
 11
-2.88925
 21
-47.6085
  0
LINE
  8
0
 10
-2.88925
 20
-47.6085
 11
-3.16588
 21
-47.7564
  0
LINE
  8
0
 10
-3.16588
 20
-47.7564
 11
-3.46602
 21
-47.8474
  0
LINE
  8
0
 10
-3.46602
 20
-47.8474
 11
-3.77817
 21
-47.8782
  0
LINE
  8
0
 10
-3.77817
 20
-47.8782
 11
-4.09032
 21
-47.8474
  0
LINE
  8
0
 10
53.466
 20
-47.8474
 11
53.1659
 21
-47.7564
  0
LINE
  8
0
 10
53.1659
 20
-47.7564
 11
52.8893
 21
-47.6085
  0
LINE
  8
0
 10
52.8893
 20
-47.6085
 11
52.6468
 21
-47.4095
  0
LINE
  8
0
 10
52.6468
 20
-47.4095
 11
52.4478
 21
-47.1671
  0
LINE
  8
0
 10
52.4478
 20
-47.1671
 11
52.3
 21
-46.8905
  0
LINE
  8
0
 10
52.3
 20
-46.8905
 11
52.2089
 21
-46.5903
  0
LINE
  8
0
 10
52.2089
 20
-46.5903
 11
52.1782
 21
-46.2782
  0
LINE
  8
0
 10
52.1782
 20
-46.2782
 11
52.2089
 21
-45.966
  0
LINE
  8
0
 10
52.2089
 20
-45.966
 11
52.3
 21
-45.6659
  0
LINE
  8
0
 10
52.3
 20
-45.6659
 11
52.4478
 21
-45.3893
  0
LINE
  8
0
 10
52.4478
 20
-45.3893
 11
52.6468
 21
-45.1468
  0
LINE
  8
0
 10
52.6468
 20
-45.1468
 11
52.8893
 21
-44.9478
  0
LINE
  8
0
 10
52.8893
 20
-44.9478
 11
53.1659
 21
-44.8
  0
LINE
  8
0
 10
53.1659
 20
-44.8
 11
53.466
 21
-44.7089
  0
LINE
  8
0
 10
53.466
 20
-44.7089
 11
53.7782
 21
-44.6782
  0
LINE
  8
0
 10
53.7782
 20
-44.6782
 11
54.0903
 21
-44.7089
  0
LINE
  8
0
 10
54.0903
 20
-44.7089
 11
54.3905
 21
-44.8
  0
LINE
  8
0
 10
54.3905
 20
-44.8
 11
54.6671
 21
-44.9478
  0
LINE
  8
0
 10
54.6671
 20
-44.9478
 11
54.9095
 21
-45.1468
  0
LINE
  8
0
 10
54.9095
 20
-45.1468
 11
55.1085
 21
-45.3893
  0
LINE
  8
0
 10
55.1085
 20
-45.3893
 11
55.2564
 21
-45.6659
  0
LINE
  8
0
 10
55.2564
 20
-45.6659
 11
55.3474
 21
-45.966
  0
LINE
  8
0
 10
55.3474
 20
-45.966
 11
55.3782
 21
-46.2782
  0
LINE
  8
0
 10
55.3782
 20
-46.2782
 11
55.3474
 21
-46.5903
  0
LINE
  8
0
 10
55.3474
 20
-46.5903
 11
55.2564
 21
-46.8905
  0
LINE
  8
0
 10
55.2564
 20
-46.8905
 11
55.1085
 21
-47.1671
  0
LINE
  8
0
 10
55.1085
 20
-47.1671
 11
54.9095
 21
-47.4095
  0
LINE
  8
0
 10
54.9095
 20
-47.4095
 11
54.6671
 21
-47.6085
  0
LINE
  8
0
 10
54.6671
 20
-47.6085
 11
54.3905
 21
-47.7564
  0
LINE
  8
0
 10
54.3905
 20
-47.7564
 11
54.0903
 21
-47.8474
  0
LINE
  8
0
 10
54.0903
 20
-47.8474
 11
53.7782
 21
-47.8782
  0
LINE
  8
0
 10
53.7782
 20
-47.8782
 11
53.466
 21
-47.8474
  0
LINE
  8
0
 10
55.1438
 20
-95.6437
 11
56.457
 21
-95.2453
  0
LINE
  8
0
 10
56.457
 20
-95.2453
 11
57.6672
 21
-94.5984
  0
LINE
  8
0
 10
57.6672
 20
-94.5984
 11
58.7279
 21
-93.7279
  0
LINE
  8
0
 10
58.7279
 20
-93.7279
 11
59.5984
 21
-92.6672
  0
LINE
  8
0
 10
59.5984
 20
-92.6672
 11
60.2453
 21
-91.457
  0
LINE
  8
0
 10
60.2453
 20
-91.457
 11
60.6437
 21
-90.1438
  0
LINE
  8
0
 10
60.6437
 20
-90.1438
 11
60.7782
 21
-88.7782
  0
LINE
  8
0
 10
60.7782
 20
-88.7782
 11
60.6437
 21
-87.4125
  0
LINE
  8
0
 10
60.6437
 20
-87.4125
 11
60.2453
 21
-86.0994
  0
LINE
  8
0
 10
60.2453
 20
-86.0994
 11
59.5984
 21
-84.8892
  0
LINE
  8
0
 10
59.5984
 20
-84.8892
 11
58.7279
 21
-83.8284
  0
LINE
  8
0
 10
58.7279
 20
-83.8284
 11
57.6672
 21
-82.9579
  0
LINE
  8
0
 10
57.6672
 20
-82.9579
 11
57.5563
 21
-82.8987
  0
LINE
  8
0
 10
57.5563
 20
-82.8987
 11
57.5563
 21
-82.8816
  0
LINE
  8
0
 10
57.5563
 20
-82.8816
 11
57.3122
 21
-82.6911
  0
LINE
  8
0
 10
57.3122
 20
-82.6911
 11
56.9304
 21
-82.3618
  0
LINE
  8
0
 10
56.9304
 20
-82.3618
 11
56.5652
 21
-82.0141
  0
LINE
  8
0
 10
56.5652
 20
-82.0141
 11
56.3138
 21
-81.75
  0
LINE
  8
0
 10
56.3138
 20
-81.75
 11
50
 21
-81.75
  0
LINE
  8
0
 10
50
 20
-81.75
 11
50
 21
-85
  0
LINE
  8
0
 10
50
 20
-85
 11
0
 21
-85
  0
LINE
  8
0
 10
0
 20
-85
 11
0
 21
-64.5
  0
LINE
  8
0
 10
0
 20
-64.5
 11
50
 21
-64.5
  0
LINE
  8
0
 10
50
 20
-64.5
 11
50
 21
-67.75
  0
LINE
  8
0
 10
50
 20
-67.75
 11
56.3138
 21
-67.75
  0
LINE
  8
0
 10
56.3138
 20
-67.75
 11
56.5652
 21
-67.4859
  0
LINE
  8
0
 10
56.5652
 20
-67.4859
 11
56.9304
 21
-67.1382
  0
LINE
  8
0
 10
56.9304
 20
-67.1382
 11
57.3122
 21
-66.8089
  0
LINE
  8
0
 10
57.3122
 20
-66.8089
 11
57.5563
 21
-66.6184
  0
LINE
  8
0
 10
57.5563
 20
-66.6184
 11
57.5563
 21
-66.6013
  0
LINE
  8
0
 10
57.5563
 20
-66.6013
 11
57.6672
 21
-66.5421
  0
LINE
  8
0
 10
57.6672
 20
-66.5421
 11
58.7279
 21
-65.6716
  0
LINE
  8
0
 10
58.7279
 20
-65.6716
 11
59.5984
 21
-64.6108
  0
LINE
  8
0
 10
59.5984
 20
-64.6108
 11
60.2453
 21
-63.4006
  0
LINE
  8
0
 10
60.2453
 20
-63.4006
 11
60.6437
 21
-62.0875
  0
LINE
  8
0
 10
60.6437
 20
-62.0875
 11
60.7782
 21
-60.7218
  0
LINE
  8
0
 10
60.7782
 20
-60.7218
 11
60.6437
 21
-59.3562
  0
LINE
  8
0
 10
60.6437
 20
-59.3562
 11
60.2453
 21
-58.043
  0
LINE
  8
0
 10
60.2453
 20
-58.043
 11
59.5984
 21
-56.8328
  0
LINE
  8
0
 10
59.5984
 20
-56.8328
 11
58.7279
 21
-55.7721
  0
LINE
  8
0
 10
58.7279
 20
-55.7721
 11
57.6672
 21
-54.9016
  0
LINE
  8
0
 10
57.6672
 20
-54.9016
 11
56.457
 21
-54.2547
  0
LINE
  8
0
 10
56.457
 20
-54.2547
 11
55.1438
 21
-53.8563
  0
LINE
  8
0
 10
55.1438
 20
-53.8563
 11
53.7782
 21
-53.7218
  0
LINE
  8
0
 10
53.7782
 20
-53.7218
 11
52.4125
 21
-53.8563
  0
LINE
  8
0
 10
52.4125
 20
-53.8563
 11
51.0994
 21
-54.2547
  0
LINE
  8
0
 10
51.0994
 20
-54.2547
 11
49.8892
 21
-54.9016
  0
LINE
  8
0
 10
49.8892
 20
-54.9016
 11
48.8284
 21
-55.7721
  0
LINE
  8
0
 10
48.8284
 20
-55.7721
 11
47.9579
 21
-56.8328
  0
LINE
  8
0
 10
47.9579
 20
-56.8328
 11
47.8987
 21
-56.9437
  0
LINE
  8
0
 10
47.8987
 20
-56.9437
 11
47.8801
 21
-56.9437
  0
LINE
  8
0
 10
47.8801
 20
-56.9437
 11
47.7291
 21
-56.9998
  0
LINE
  8
0
 10
47.7291
 20
-56.9998
 11
46.1633
 21
-57.5385
  0
LINE
  8
0
 10
46.1633
 20
-57.5385
 11
44.5847
 21
-58.0385
  0
LINE
  8
0
 10
44.5847
 20
-58.0385
 11
42.9944
 21
-58.4997
  0
LINE
  8
0
 10
42.9944
 20
-58.4997
 11
41.3932
 21
-58.9217
  0
LINE
  8
0
 10
41.3932
 20
-58.9217
 11
39.7822
 21
-59.3044
  0
LINE
  8
0
 10
39.7822
 20
-59.3044
 11
38.1622
 21
-59.6473
  0
LINE
  8
0
 10
38.1622
 20
-59.6473
 11
36.5343
 21
-59.9504
  0
LINE
  8
0
 10
36.5343
 20
-59.9504
 11
34.8995
 21
-60.2134
  0
LINE
  8
0
 10
34.8995
 20
-60.2134
 11
33.2587
 21
-60.4363
  0
LINE
  8
0
 10
33.2587
 20
-60.4363
 11
31.613
 21
-60.6188
  0
LINE
  8
0
 10
31.613
 20
-60.6188
 11
29.9632
 21
-60.7608
  0
LINE
  8
0
 10
29.9632
 20
-60.7608
 11
28.3105
 21
-60.8624
  0
LINE
  8
0
 10
28.3105
 20
-60.8624
 11
26.6557
 21
-60.9233
  0
LINE
  8
0
 10
26.6557
 20
-60.9233
 11
25
 21
-60.9437
  0
LINE
  8
0
 10
25
 20
-60.9437
 11
23.3443
 21
-60.9233
  0
LINE
  8
0
 10
23.3443
 20
-60.9233
 11
21.6895
 21
-60.8624
  0
LINE
  8
0
 10
21.6895
 20
-60.8624
 11
20.0368
 21
-60.7608
  0
LINE
  8
0
 10
20.0368
 20
-60.7608
 11
18.387
 21
-60.6188
  0
LINE
  8
0
 10
18.387
 20
-60.6188
 11
16.7413
 21
-60.4363
  0
LINE
  8
0
 10
16.7413
 20
-60.4363
 11
15.1005
 21
-60.2134
  0
LINE
  8
0
 10
15.1005
 20
-60.2134
 11
13.4656
 21
-59.9504
  0
LINE
  8
0
 10
13.4656
 20
-59.9504
 11
11.8378
 21
-59.6473
  0
LINE
  8
0
 10
11.8378
 20
-59.6473
 11
10.2178
 21
-59.3044
  0
LINE
  8
0
 10
10.2178
 20
-59.3044
 11
8.60675
 21
-58.9217
  0
LINE
  8
0
 10
8.60675
 20
-58.9217
 11
7.00557
 21
-58.4997
  0
LINE
  8
0
 10
7.00557
 20
-58.4997
 11
5.41524
 21
-58.0385
  0
LINE
  8
0
 10
5.41524
 20
-58.0385
 11
3.8367
 21
-57.5385
  0
LINE
  8
0
 10
3.8367
 20
-57.5385
 11
2.2709
 21
-56.9998
  0
LINE
  8
0
 10
2.2709
 20
-56.9998
 11
2.11992
 21
-56.9437
  0
LINE
  8
0
 10
2.11992
 20
-56.9437
 11
2.10133
 21
-56.9437
  0
LINE
  8
0
 10
2.10133
 20
-56.9437
 11
2.0421
 21
-56.8328
  0
LINE
  8
0
 10
2.0421
 20
-56.8328
 11
1.17157
 21
-55.7721
  0
LINE
  8
0
 10
1.17157
 20
-55.7721
 11
0.110809
 21
-54.9016
  0
LINE
  8
0
 10
0.110809
 20
-54.9016
 11
-1.09938
 21
-54.2547
  0
LINE
  8
0
 10
-1.09938
 20
-54.2547
 11
-2.41254
 21
-53.8563
  0
LINE
  8
0
 10
-2.41254
 20
-53.8563
 11
-3.77817
 21
-53.7218
  0
LINE
  8
0
 10
-3.77817
 20
-53.7218
 11
-5.1438
 21
-53.8563
  0
LINE
  8
0
 10
-5.1438
 20
-53.8563
 11
-6.45695
 21
-54.2547
  0
LINE
  8
0
 10
-6.45695
 20
-54.2547
 11
-7.66716
 21
-54.9016
  0
LINE
  8
0
 10
-7.66716
 20
-54.9016
 11
-8.72792
 21
-55.7721
  0
LINE
  8
0
 10
-8.72792
 20
-55.7721
 11
-9.59845
 21
-56.8328
  0
LINE
  8
0
 10
-9.59845
 20
-56.8328
 11
-10.2453
 21
-58.043
  0
LINE
  8
0
 10
-10.2453
 20
-58.043
 11
-10.6437
 21
-59.3562
  0
LINE
  8
0
 10
-10.6437
 20
-59.3562
 11
-10.7782
 21
-60.7218
  0
LINE
  8
0
 10
-10.7782
 20
-60.7218
 11
-10.6437
 21
-62.0875
  0
LINE
  8
0
 10
-10.6437
 20
-62.0875
 11
-10.2453
 21
-63.4006
  0
LINE
  8
0
 10
-10.2453
 20
-63.4006
 11
-9.59845
 21
-64.6108
  0
LINE
  8
0
 10
-9.59845
 20
-64.6108
 11
-8.72792
 21
-65.6716
  0
LINE
  8
0
 10
-8.72792
 20
-65.6716
 11
-7.66716
 21
-66.5421
  0
LINE
  8
0
 10
-7.66716
 20
-66.5421
 11
-7.55634
 21
-66.6013
  0
LINE
  8
0
 10
-7.55634
 20
-66.6013
 11
-7.55634
 21
-66.6184
  0
LINE
  8
0
 10
-7.55634
 20
-66.6184
 11
-7.31221
 21
-66.8089
  0
LINE
  8
0
 10
-7.31221
 20
-66.8089
 11
-6.9304
 21
-67.1382
  0
LINE
  8
0
 10
-6.9304
 20
-67.1382
 11
-6.56523
 21
-67.4859
  0
LINE
  8
0
 10
-6.56523
 20
-67.4859
 11
-6.21754
 21
-67.8511
  0
LINE
  8
0
 10
-6.21754
 20
-67.8511
 11
-5.8882
 21
-68.2329
  0
LINE
  8
0
 10
-5.8882
 20
-68.2329
 11
-5.57799
 21
-68.6304
  0
LINE
  8
0
 10
-5.57799
 20
-68.6304
 11
-5.49376
 21
-68.75
  0
LINE
  8
0
 10
-5.49376
 20
-68.75
 11
-1
 21
-68.75
  0
LINE
  8
0
 10
-1
 20
-68.75
 11
-1
 21
-80.75
  0
LINE
  8
0
 10
-1
 20
-80.75
 11
-5.49374
 21
-80.75
  0
LINE
  8
0
 10
-5.49374
 20
-80.75
 11
-5.57799
 21
-80.8696
  0
LINE
  8
0
 10
-5.57799
 20
-80.8696
 11
-5.8882
 21
-81.2671
  0
LINE
  8
0
 10
-5.8882
 20
-81.2671
 11
-6.21754
 21
-81.6489
  0
LINE
  8
0
 10
-6.21754
 20
-81.6489
 11
-6.56523
 21
-82.0141
  0
LINE
  8
0
 10
-6.56523
 20
-82.0141
 11
-6.9304
 21
-82.3618
  0
LINE
  8
0
 10
-6.9304
 20
-82.3618
 11
-7.31221
 21
-82.6911
  0
LINE
  8
0
 10
-7.31221
 20
-82.6911
 11
-7.55634
 21
-82.8816
  0
LINE
  8
0
 10
-7.55634
 20
-82.8816
 11
-7.55634
 21
-82.8987
  0
LINE
  8
0
 10
-7.55634
 20
-82.8987
 11
-7.66716
 21
-82.9579
  0
LINE
  8
0
 10
-7.66716
 20
-82.9579
 11
-8.72792
 21
-83.8284
  0
LINE
  8
0
 10
-8.72792
 20
-83.8284
 11
-9.59845
 21
-84.8892
  0
LINE
  8
0
 10
-9.59845
 20
-84.8892
 11
-10.2453
 21
-86.0994
  0
LINE
  8
0
 10
-10.2453
 20
-86.0994
 11
-10.6437
 21
-87.4125
  0
LINE
  8
0
 10
-10.6437
 20
-87.4125
 11
-10.7782
 21
-88.7782
  0
LINE
  8
0
 10
-10.7782
 20
-88.7782
 11
-10.6437
 21
-90.1438
  0
LINE
  8
0
 10
-10.6437
 20
-90.1438
 11
-10.2453
 21
-91.457
  0
LINE
  8
0
 10
-10.2453
 20
-91.457
 11
-9.59845
 21
-92.6672
  0
LINE
  8
0
 10
-9.59845
 20
-92.6672
 11
-8.72792
 21
-93.7279
  0
LINE
  8
0
 10
-8.72792
 20
-93.7279
 11
-7.66716
 21
-94.5984
  0
LINE
  8
0
 10
-7.66716
 20
-94.5984
 11
-6.45695
 21
-95.2453
  0
LINE
  8
0
 10
-6.45695
 20
-95.2453
 11
-5.1438
 21
-95.6437
  0
LINE
  8
0
 10
-5.1438
 20
-95.6437
 11
-3.77817
 21
-95.7782
  0
LINE
  8
0
 10
-3.77817
 20
-95.7782
 11
-2.41254
 21
-95.6437
  0
LINE
  8
0
 10
-2.41254
 20
-95.6437
 11
-1.09938
 21
-95.2453
  0
LINE
  8
0
 10
-1.09938
 20
-95.2453
 11
0.110809
 21
-94.5984
  0
LINE
  8
0
 10
0.110809
 20
-94.5984
 11
1.17157
 21
-93.7279
  0
LINE
  8
0
 10
1.17157
 20
-93.7279
 11
2.0421
 21
-92.6672
  0
LINE
  8
0
 10
2.0421
 20
-92.6672
 11
2.10133
 21
-92.5563
  0
LINE
  8
0
 10
2.10133
 20
-92.5563
 11
2.11992
 21
-92.5563
  0
LINE
  8
0
 10
2.11992
 20
-92.5563
 11
2.2709
 21
-92.5002
  0
LINE
  8
0
 10
2.2709
 20
-92.5002
 11
3.8367
 21
-91.9615
  0
LINE
  8
0
 10
3.8367
 20
-91.9615
 11
5.41524
 21
-91.4615
  0
LINE
  8
0
 10
5.41524
 20
-91.4615
 11
7.00557
 21
-91.0003
  0
LINE
  8
0
 10
7.00557
 20
-91.0003
 11
8.60675
 21
-90.5783
  0
LINE
  8
0
 10
8.60675
 20
-90.5783
 11
10.2178
 21
-90.1956
  0
LINE
  8
0
 10
10.2178
 20
-90.1956
 11
11.8378
 21
-89.8527
  0
LINE
  8
0
 10
11.8378
 20
-89.8527
 11
13.4656
 21
-89.5496
  0
LINE
  8
0
 10
13.4656
 20
-89.5496
 11
15.1005
 21
-89.2866
  0
LINE
  8
0
 10
15.1005
 20
-89.2866
 11
16.7413
 21
-89.0637
  0
LINE
  8
0
 10
16.7413
 20
-89.0637
 11
18.387
 21
-88.8812
  0
LINE
  8
0
 10
18.387
 20
-88.8812
 11
20.0368
 21
-88.7392
  0
LINE
  8
0
 10
20.0368
 20
-88.7392
 11
21.6895
 21
-88.6376
  0
LINE
  8
0
 10
21.6895
 20
-88.6376
 11
23.3443
 21
-88.5767
  0
LINE
  8
0
 10
23.3443
 20
-88.5767
 11
25
 21
-88.5563
  0
LINE
  8
0
 10
25
 20
-88.5563
 11
26.6557
 21
-88.5767
  0
LINE
  8
0
 10
26.6557
 20
-88.5767
 11
28.3105
 21
-88.6376
  0
LINE
  8
0
 10
28.3105
 20
-88.6376
 11
29.9632
 21
-88.7392
  0
LINE
  8
0
 10
29.9632
 20
-88.7392
 11
31.613
 21
-88.8812
  0
LINE
  8
0
 10
31.613
 20
-88.8812
 11
33.2587
 21
-89.0637
  0
LINE
  8
0
 10
33.2587
 20
-89.0637
 11
34.8995
 21
-89.2866
  0
LINE
  8
0
 10
34.8995
 20
-89.2866
 11
36.5343
 21
-89.5496
  0
LINE
  8
0
 10
36.5343
 20
-89.5496
 11
38.1622
 21
-89.8527
  0
LINE
  8
0
 10
38.1622
 20
-89.8527
 11
39.7822
 21
-90.1956
  0
LINE
  8
0
 10
39.7822
 20
-90.1956
 11
41.3932
 21
-90.5783
  0
LINE
  8
0
 10
41.3932
 20
-90.5783
 11
42.9944
 21
-91.0003
  0
LINE
  8
0
 10
42.9944
 20
-91.0003
 11
44.5847
 21
-91.4615
  0
LINE
  8
0
 10
44.5847
 20
-91.4615
 11
46.1633
 21
-91.9615
  0
LINE
  8
0
 10
46.1633
 20
-91.9615
 11
47.7291
 21
-92.5002
  0
LINE
  8
0
 10
47.7291
 20
-92.5002
 11
47.8801
 21
-92.5563
  0
LINE
  8
0
 10
47.8801
 20
-92.5563
 11
47.8987
 21
-92.5563
  0
LINE
  8
0
 10
47.8987
 20
-92.5563
 11
47.9579
 21
-92.6672
  0
LINE
  8
0
 10
47.9579
 20
-92.6672
 11
48.8284
 21
-93.7279
  0
LINE
  8
0
 10
48.8284
 20
-93.7279
 11
49.8892
 21
-94.5984
  0
LINE
  8
0
 10
49.8892
 20
-94.5984
 11
51.0994
 21
-95.2453
  0
LINE
  8
0
 10
51.0994
 20
-95.2453
 11
52.4125
 21
-95.6437
  0
LINE
  8
0
 10
52.4125
 20
-95.6437
 11
53.7782
 21
-95.7782
  0
LINE
  8
0
 10
53.7782
 20
-95.7782
 11
55.1438
 21
-95.6437
  0
LINE
  8
0
 10
-4.09032
 20
-62.2911
 11
-4.39046
 21
-62.2
  0
LINE
  8
0
 10
-4.39046
 20
-62.2
 11
-4.66708
 21
-62.0522
  0
LINE
  8
0
 10
-4.66708
 20
-62.0522
 11
-4.90953
 21
-61.8532
  0
LINE
  8
0
 10
-4.90953
 20
-61.8532
 11
-5.10852
 21
-61.6107
  0
LINE
  8
0
 10
-5.10852
 20
-61.6107
 11
-5.25638
 21
-61.3341
  0
LINE
  8
0
 10
-5.25638
 20
-61.3341
 11
-5.34743
 21
-61.034
  0
LINE
  8
0
 10
-5.34743
 20
-61.034
 11
-5.37817
 21
-60.7218
  0
LINE
  8
0
 10
-5.37817
 20
-60.7218
 11
-5.34743
 21
-60.4097
  0
LINE
  8
0
 10
-5.34743
 20
-60.4097
 11
-5.25638
 21
-60.1095
  0
LINE
  8
0
 10
-5.25638
 20
-60.1095
 11
-5.10852
 21
-59.8329
  0
LINE
  8
0
 10
-5.10852
 20
-59.8329
 11
-4.90953
 21
-59.5905
  0
LINE
  8
0
 10
-4.90953
 20
-59.5905
 11
-4.66708
 21
-59.3915
  0
LINE
  8
0
 10
-4.66708
 20
-59.3915
 11
-4.39046
 21
-59.2436
  0
LINE
  8
0
 10
-4.39046
 20
-59.2436
 11
-4.09032
 21
-59.1526
  0
LINE
  8
0
 10
-4.09032
 20
-59.1526
 11
-3.77817
 21
-59.1218
  0
LINE
  8
0
 10
-3.77817
 20
-59.1218
 11
-3.46602
 21
-59.1526
  0
LINE
  8
0
 10
-3.46602
 20
-59.1526
 11
-3.16588
 21
-59.2436
  0
LINE
  8
0
 10
-3.16588
 20
-59.2436
 11
-2.88925
 21
-59.3915
  0
LINE
  8
0
 10
-2.88925
 20
-59.3915
 11
-2.64679
 21
-59.5905
  0
LINE
  8
0
 10
-2.64679
 20
-59.5905
 11
-2.44781
 21
-59.8329
  0
LINE
  8
0
 10
-2.44781
 20
-59.8329
 11
-2.29996
 21
-60.1095
  0
LINE
  8
0
 10
-2.29996
 20
-60.1095
 11
-2.20891
 21
-60.4097
  0
LINE
  8
0
 10
-2.20891
 20
-60.4097
 11
-2.17816
 21
-60.7218
  0
LINE
  8
0
 10
-2.17816
 20
-60.7218
 11
-2.20891
 21
-61.034
  0
LINE
  8
0
 10
-2.20891
 20
-61.034
 11
-2.29996
 21
-61.3341
  0
LINE
  8
0
 10
-2.29996
 20
-61.3341
 11
-2.44781
 21
-61.6107
  0
LINE
  8
0
 10
-2.44781
 20
-61.6107
 11
-2.64679
 21
-61.8532
  0
LINE
  8
0
 10
-2.64679
 20
-61.8532
 11
-2.88925
 21
-62.0522
  0
LINE
  8
0
 10
-2.88925
 20
-62.0522
 11
-3.16588
 21
-62.2
  0
LINE
  8
0
 10
-3.16588
 20
-62.2
 11
-3.46602
 21
-62.2911
  0
LINE
  8
0
 10
-3.46602
 20
-62.2911
 11
-3.77817
 21
-62.3218
  0
LINE
  8
0
 10
-3.77817
 20
-62.3218
 11
-4.09032
 21
-62.2911
  0
LINE
  8
0
 10
53.466
 20
-62.2911
 11
53.1659
 21
-62.2
  0
LINE
  8
0
 10
53.1659
 20
-62.2
 11
52.8893
 21
-62.0522
  0
LINE
  8
0
 10
52.8893
 20
-62.0522
 11
52.6468
 21
-61.8532
  0
LINE
  8
0
 10
52.6468
 20
-61.8532
 11
52.4478
 21
-61.6107
  0
LINE
  8
0
 10
52.4478
 20
-61.6107
 11
52.3
 21
-61.3341
  0
LINE
  8
0
 10
52.3
 20
-61.3341
 11
52.2089
 21
-61.034
  0
LINE
  8
0
 10
52.2089
 20
-61.034
 11
52.1782
 21
-60.7218
  0
LINE
  8
0
 10
52.1782
 20
-60.7218
 11
52.2089
 21
-60.4097
  0
LINE
  8
0
 10
52.2089
 20
-60.4097
 11
52.3
 21
-60.1095
  0
LINE
  8
0
 10
52.3
 20
-60.1095
 11
52.4478
 21
-59.8329
  0
LINE
  8
0
 10
52.4478
 20
-59.8329
 11
52.6468
 21
-59.5905
  0
LINE
  8
0
 10
52.6468
 20
-59.5905
 11
52.8893
 21
-59.3915
  0
LINE
  8
0
 10
52.8893
 20
-59.3915
 11
53.1659
 21
-59.2436
  0
LINE
  8
0
 10
53.1659
 20
-59.2436
 11
53.466
 21
-59.1526
  0
LINE
  8
0
 10
53.466
 20
-59.1526
 11
53.7782
 21
-59.1218
  0
LINE
  8
0
 10
53.7782
 20
-59.1218
 11
54.0903
 21
-59.1526
  0
LINE
  8
0
 10
54.0903
 20
-59.1526
 11
54.3905
 21
-59.2436
  0
LINE
  8
0
 10
54.3905
 20
-59.2436
 11
54.6671
 21
-59.3915
  0
LINE
  8
0
 10
54.6671
 20
-59.3915
 11
54.9095
 21
-59.5905
  0
LINE
  8
0
 10
54.9095
 20
-59.5905
 11
55.1085
 21
-59.8329
  0
LINE
  8
0
 10
55.1085
 20
-59.8329
 11
55.2564
 21
-60.1095
  0
LINE
  8
0
 10
55.2564
 20
-60.1095
 11
55.3474
 21
-60.4097
  0
LINE
  8
0
 10
55.3474
 20
-60.4097
 11
55.3782
 21
-60.7218
  0
LINE
  8
0
 10
55.3782
 20
-60.7218
 11
55.3474
 21
-61.034
  0
LINE
  8
0
 10
55.3474
 20
-61.034
 11
55.2564
 21
-61.3341
  0
LINE
  8
0
 10
55.2564
 20
-61.3341
 11
55.1085
 21
-61.6107
  0
LINE
  8
0
 10
55.1085
 20
-61.6107
 11
54.9095
 21
-61.8532
  0
LINE
  8
0
 10
54.9095
 20
-61.8532
 11
54.6671
 21
-62.0522
  0
LINE
  8
0
 10
54.6671
 20
-62.0522
 11
54.3905
 21
-62.2
  0
LINE
  8
0
 10
54.3905
 20
-62.2
 11
54.0903
 21
-62.2911
  0
LINE
  8
0
 10
54.0903
 20
-62.2911
 11
53.7782
 21
-62.3218
  0
LINE
  8
0
 10
53.7782
 20
-62.3218
 11
53.466
 21
-62.2911
  0
LINE
  8
0
 10
-4.09032
 20
-90.3474
 11
-4.39046
 21
-90.2564
  0
LINE
  8
0
 10
-4.39046
 20
-90.2564
 11
-4.66708
 21
-90.1085
  0
LINE
  8
0
 10
-4.66708
 20
-90.1085
 11
-4.90953
 21
-89.9095
  0
LINE
  8
0
 10
-4.90953
 20
-89.9095
 11
-5.10852
 21
-89.6671
  0
LINE
  8
0
 10
-5.10852
 20
-89.6671
 11
-5.25638
 21
-89.3905
  0
LINE
  8
0
 10
-5.25638
 20
-89.3905
 11
-5.34743
 21
-89.0903
  0
LINE
  8
0
 10
-5.34743
 20
-89.0903
 11
-5.37817
 21
-88.7782
  0
LINE
  8
0
 10
-5.37817
 20
-88.7782
 11
-5.34743
 21
-88.466
  0
LINE
  8
0
 10
-5.34743
 20
-88.466
 11
-5.25638
 21
-88.1659
  0
LINE
  8
0
 10
-5.25638
 20
-88.1659
 11
-5.10852
 21
-87.8893
  0
LINE
  8
0
 10
-5.10852
 20
-87.8893
 11
-4.90953
 21
-87.6468
  0
LINE
  8
0
 10
-4.90953
 20
-87.6468
 11
-4.66708
 21
-87.4478
  0
LINE
  8
0
 10
-4.66708
 20
-87.4478
 11
-4.39046
 21
-87.3
  0
LINE
  8
0
 10
-4.39046
 20
-87.3
 11
-4.09032
 21
-87.2089
  0
LINE
  8
0
 10
-4.09032
 20
-87.2089
 11
-3.77817
 21
-87.1782
  0
LINE
  8
0
 10
-3.77817
 20
-87.1782
 11
-3.46602
 21
-87.2089
  0
LINE
  8
0
 10
-3.46602
 20
-87.2089
 11
-3.16588
 21
-87.3
  0
LINE
  8
0
 10
-3.16588
 20
-87.3
 11
-2.88925
 21
-87.4478
  0
LINE
  8
0
 10
-2.88925
 20
-87.4478
 11
-2.64679
 21
-87.6468
  0
LINE
  8
0
 10
-2.64679
 20
-87.6468
 11
-2.44781
 21
-87.8893
  0
LINE
  8
0
 10
-2.44781
 20
-87.8893
 11
-2.29996
 21
-88.1659
  0
LINE
  8
0
 10
-2.29996
 20
-88.1659
 11
-2.20891
 21
-88.466
  0
LINE
  8
0
 10
-2.20891
 20
-88.466
 11
-2.17816
 21
-88.7782
  0
LINE
  8
0
 10
-2.17816
 20
-88.7782
 11
-2.20891
 21
-89.0903
  0
LINE
  8
0
 10
-2.20891
 20
-89.0903
 11
-2.29996
 21
-89.3905
  0
LINE
  8
0
 10
-2.29996
 20
-89.3905
 11
-2.44781
 21
-89.6671
  0
LINE
  8
0
 10
-2.44781
 20
-89.6671
 11
-2.64679
 21
-89.9095
  0
LINE
  8
0
 10
-2.64679
 20
-89.9095
 11
-2.88925
 21
-90.1085
  0
LINE
  8
0
 10
-2.88925
 20
-90.1085
 11
-3.16588
 21
-90.2564
  0
LINE
  8
0
 10
-3.16588
 20
-90.2564
 11
-3.46602
 21
-90.3474
  0
LINE
  8
0
 10
-3.46602
 20
-90.3474
 11
-3.77817
 21
-90.3782
  0
LINE
  8
0
 10
-3.77817
 20
-90.3782
 11
-4.09032
 21
-90.3474
  0
LINE
  8
0
 10
53.466
 20
-90.3474
 11
53.1659
 21
-90.2564
  0
LINE
  8
0
 10
53.1659
 20
-90.2564
 11
52.8893
 21
-90.1085
  0
LINE
  8
0
 10
52.8893
 20
-90.1085
 11
52.6468
 21
-89.9095
  0
LINE
  8
0
 10
52.6468
 20
-89.9095
 11
52.4478
 21
-89.6671
  0
LINE
  8
0
 10
52.4478
 20
-89.6671
 11
52.3
 21
-89.3905
  0
LINE
  8
0
 10
52.3
 20
-89.3905
 11
52.2089
 21
-89.0903
  0
LINE
  8
0
 10
52.2089
 20
-89.0903
 11
52.1782
 21
-88.7782
  0
LINE
  8
0
 10
52.1782
 20
-88.7782
 11
52.2089
 21
-88.466
  0
LINE
  8
0
 10
52.2089
 20
-88.466
 11
52.3
 21
-88.1659
  0
LINE
  8
0
 10
52.3
 20
-88.1659
 11
52.4478
 21
-87.8893
  0
LINE
  8
0
 10
52.4478
 20
-87.8893
 11
52.6468
 21
-87.6468
  0
LINE
  8
0
 10
52.6468
 20
-87.6468
 11
52.8893
 21
-87.4478
  0
LINE
  8
0
 10
52.8893
 20
-87.4478
 11
53.1659
 21
-87.3
  0
LINE
  8
0
 10
53.1659
 20
-87.3
 11
53.466
 21
-87.2089
  0
LINE
  8
0
 10
53.466
 20
-87.2089
 11
53.7782
 21
-87.1782
  0
LINE
  8
0
 10
53.7782
 20
-87.1782
 11
54.0903
 21
-87.2089
  0
LINE
  8
0
 10
54.0903
 20
-87.2089
 11
54.3905
 21
-87.3
  0
LINE
  8
0
 10
54.3905
 20
-87.3
 11
54.6671
 21
-87.4478
  0
LINE
  8
0
 10
54.6671
 20
-87.4478
 11
54.9095
 21
-87.6468
  0
LINE
  8
0
 10
54.9095
 20
-87.6468
 11
55.1085
 21
-87.8893
  0
LINE
  8
0
 10
55.1085
 20
-87.8893
 11
55.2564
 21
-88.1659
  0
LINE
  8
0
 10
55.2564
 20
-88.1659
 11
55.3474
 21
-88.466
  0
LINE
  8
0
 10
55.3474
 20
-88.466
 11
55.3782
 21
-88.7782
  0
LINE
  8
0
 10
55.3782
 20
-88.7782
 11
55.3474
 21
-89.0903
  0
LINE
  8
0
 10
55.3474
 20
-89.0903
 11
55.2564
 21
-89.3905
  0
LINE
  8
0
 10
55.2564
 20
-89.3905
 11
55.1085
 21
-89.6671
  0
LINE
  8
0
 10
55.1085
 20
-89.6671
 11
54.9095
 21
-89.9095
  0
LINE
  8
0
 10
54.9095
 20
-89.9095
 11
54.6671
 21
-90.1085
  0
LINE
  8
0
 10
54.6671
 20
-90.1085
 11
54.3905
 21
-90.2564
  0
LINE
  8
0
 10
54.3905
 20
-90.2564
 11
54.0903
 21
-90.3474
  0
LINE
  8
0
 10
54.0903
 20
-90.3474
 11
53.7782
 21
-90.3782
  0
LINE
  8
0
 10
53.7782
 20
-90.3782
 11
53.466
 21
-90.3474
  0
ENDSEC
  0
SECTION
  2
OBJECTS
  0
DICTIONARY
  0
ENDSEC
  0
EOF
